# Blender 4.4.1
# www.blender.org
mtllib studio.mtl
o 球
v 0.000017 980.785217 -195.090485
v 0.000033 923.879456 -382.683563
v 0.000049 831.469482 -555.570374
v 0.000062 707.106689 -707.106934
v 0.000073 555.570129 -831.469727
v 0.000081 382.683289 -923.879456
v 0.000086 195.090195 -980.785217
v 0.000073 -555.570312 -831.469543
v 0.000062 -707.106934 -707.106689
v 0.000049 -831.469788 -555.570068
v -38.060238 980.785217 -191.341858
v -74.657829 923.879456 -375.330444
v -108.386353 831.469482 -544.895203
v -137.949646 707.106689 -693.520020
v -162.211609 555.570129 -815.493225
v -180.239883 382.683289 -906.127441
v -191.341629 195.090195 -961.939758
v -195.090240 -0.000192 -980.785217
v -191.341629 -195.090485 -961.939697
v -180.239914 -382.683533 -906.127441
v -162.211624 -555.570312 -815.493103
v -137.949646 -707.106934 -693.519775
v -108.386337 -831.469788 -544.894958
v -74.657829 -923.879456 -375.330200
v -38.060238 -980.785278 -191.341553
v -74.657852 980.785217 -180.240097
v -146.446625 923.879456 -353.553589
v -212.607513 831.469482 -513.280029
v -270.598022 707.106689 -653.281616
v -318.189606 555.570129 -768.177734
v -353.553375 382.683289 -853.553467
v -375.330231 195.090225 -906.127441
v -382.683380 -0.000184 -923.879517
v -375.330231 -195.090454 -906.127380
v -353.553375 -382.683533 -853.553406
v -318.189667 -555.570312 -768.177673
v -270.598022 -707.106934 -653.281433
v -212.607498 -831.469788 -513.279785
v -146.446625 -923.879456 -353.553314
v -74.657845 -980.785278 -180.239792
v -108.386398 980.785217 -162.211792
v -212.607544 923.879456 -318.189819
v -308.658295 831.469482 -461.939850
v -392.847473 707.106689 -587.937866
v -461.939667 555.570129 -691.341675
v -513.279907 382.683289 -768.177795
v -544.895020 195.090225 -815.493164
v -555.570190 -0.000170 -831.469543
v -544.895020 -195.090454 -815.493164
v -513.279968 -382.683533 -768.177734
v -461.939789 -555.570312 -691.341553
v -392.847473 -707.106934 -587.937683
v -308.658264 -831.469788 -461.939606
v -212.607559 -923.879456 -318.189545
v -108.386383 -980.785278 -162.211502
v -137.949722 980.785217 -137.949829
v -270.598114 923.879456 -270.598175
v -392.847504 831.469604 -392.847565
v -499.999969 707.106689 -500.000122
v -587.937622 555.570129 -587.937866
v -653.281433 382.683289 -653.281433
v -693.519836 195.090256 -693.519897
v -707.106750 -0.000150 -707.106689
v -693.519836 -195.090424 -693.519897
v -653.281494 -382.683533 -653.281494
v -587.937805 -555.570312 -587.937622
v -499.999969 -707.106934 -499.999908
v -392.847504 -831.469666 -392.847321
v -270.598114 -923.879456 -270.597931
v -137.949707 -980.785278 -137.949509
v -162.211716 980.785217 -108.386505
v -318.189728 923.879456 -212.607651
v -461.939789 831.469604 -308.658325
v -587.937683 707.106812 -392.847565
v -691.341553 555.570129 -461.939758
v -768.177673 382.683350 -513.280029
v -815.493042 195.090256 -544.895020
v -831.469543 -0.000128 -555.570068
v -815.493042 -195.090424 -544.895020
v -768.177795 -382.683472 -513.279968
v -691.341614 -555.570312 -461.939636
v -587.937683 -707.106812 -392.847351
v -461.939728 -831.469666 -308.658081
v -318.189728 -923.879456 -212.607391
v -162.211716 -980.785278 -108.386185
v -180.240005 980.785217 -74.657951
v -353.553497 923.879456 -146.446732
v -513.279968 831.469604 -212.607590
v -653.281494 707.106812 -270.598175
v -768.177612 555.570251 -318.189667
v -853.553284 382.683350 -353.553467
v -906.127258 195.090286 -375.330261
v -923.879333 -0.000102 -382.683319
v -906.127258 -195.090393 -375.330231
v -853.553406 -382.683472 -353.553314
v -768.177734 -555.570190 -318.189514
v -653.281494 -707.106812 -270.597931
v -513.279968 -831.469666 -212.607346
v -353.553528 -923.879456 -146.446442
v -180.239990 -980.785278 -74.657631
v -191.341766 980.785217 -38.060337
v -375.330383 923.879456 -74.657906
v -544.895081 831.469604 -108.386429
v -693.519897 707.106812 -137.949799
v -815.493042 555.570251 -162.211731
v -906.127319 382.683411 -180.240067
v -961.939636 195.090317 -191.341721
v -980.785034 -0.000074 -195.090210
v -961.939636 -195.090363 -191.341675
v -906.127563 -382.683411 -180.239853
v -815.493042 -555.570190 -162.211533
v -693.519897 -707.106812 -137.949600
v -544.895081 -831.469666 -108.386185
v -375.330444 -923.879456 -74.657654
v -191.341736 -980.785278 -38.060032
v -195.090363 980.785217 -0.000096
v -382.683533 923.879456 -0.000052
v -555.570129 831.469604 -0.000061
v -707.106689 707.106812 -0.000122
v -831.469421 555.570251 -0.000066
v -923.879395 382.683411 -0.000122
v -980.785156 195.090347 -0.000024
v -999.999695 -0.000044 0.000079
v -980.785156 -195.090332 0.000035
v -923.879517 -382.683411 0.000128
v -831.469482 -555.570190 0.000117
v -707.106689 -707.106812 0.000091
v -555.570129 -831.469666 0.000190
v -382.683563 -923.879456 0.000205
v -195.090347 -980.785278 0.000207
v -191.341766 980.785217 38.060146
v -375.330353 923.879456 74.657799
v -544.894958 831.469604 108.386299
v -693.519836 707.106812 137.949570
v -815.492920 555.570251 162.211578
v -906.127258 382.683411 180.239807
v -961.939575 195.090378 191.341675
v -980.784912 -0.000014 195.090332
v -961.939575 -195.090302 191.341721
v -906.127441 -382.683411 180.240097
v -815.493042 -555.570190 162.211777
v -693.519836 -707.106812 137.949768
v -544.894958 -831.469666 108.386543
v -375.330444 -923.879456 74.658066
v -191.341736 -980.785278 38.060444
v -180.239990 980.785217 74.657745
v -353.553467 923.879456 146.446579
v -513.279785 831.469604 212.607422
v -653.281372 707.106812 270.597870
v -768.177490 555.570251 318.189514
v -853.553284 382.683472 353.553223
v -906.127319 195.090408 375.330231
v -923.879150 0.000014 382.683350
v -906.127319 -195.090271 375.330261
v -853.553467 -382.683350 353.553528
v -768.177551 -555.570190 318.189667
v -653.281372 -707.106812 270.598114
v -513.279785 -831.469666 212.607666
v -353.553497 -923.879456 146.446884
v -180.239990 -980.785278 74.658051
v -162.211716 980.785217 108.386292
v -318.189758 923.879456 212.607529
v -461.939667 831.469604 308.658142
v -587.937744 707.106812 392.847321
v -691.341553 555.570374 461.939575
v -768.177612 382.683472 513.279785
v -815.492981 195.090439 544.895020
v -831.469177 0.000040 555.570129
v -815.492981 -195.090240 544.895020
v -768.177795 -382.683350 513.280029
v -691.341614 -555.570068 461.939728
v -587.937744 -707.106812 392.847534
v -461.939667 -831.469666 308.658386
v -318.189758 -923.879456 212.607819
v -162.211700 -980.785278 108.386597
v -137.949722 980.785217 137.949615
v -270.598114 923.879456 270.598083
v -392.847351 831.469604 392.847321
v -500.000000 707.106934 499.999847
v -587.937622 555.570374 587.937500
v -653.281372 382.683533 653.281311
v -693.519836 195.090439 693.519775
v -707.106323 0.000062 707.106567
v -693.519836 -195.090240 693.519775
v -653.281433 -382.683289 653.281555
v -587.937622 -555.570068 587.937744
v -500.000000 -707.106689 500.000061
v -392.847351 -831.469666 392.847565
v -270.598145 -923.879456 270.598358
v -137.949707 -980.785278 137.949905
v -108.386406 980.785217 162.211624
v -212.607590 923.879456 318.189636
v -308.658203 831.469727 461.939575
v -392.847504 707.106934 587.937622
v -461.939636 555.570374 691.341431
v -513.279907 382.683533 768.177551
v -544.894958 195.090469 815.492981
v -555.569763 0.000082 831.469299
v -544.894958 -195.090210 815.492981
v -513.279907 -382.683289 768.177795
v -461.939697 -555.570068 691.341614
v -392.847504 -707.106689 587.937805
v -308.658203 -831.469543 461.939819
v -212.607605 -923.879456 318.189911
v -108.386391 -980.785278 162.211884
v -74.657852 980.785217 180.239899
v -146.446655 923.879456 353.553375
v -212.607468 831.469727 513.279785
v -270.598114 707.106934 653.281372
v -318.189575 555.570374 768.177368
v -353.553375 382.683533 853.553162
v -375.330139 195.090469 906.127197
v -382.683075 0.000096 923.879089
v -375.330139 -195.090210 906.127258
v -353.553345 -382.683289 853.553406
v -318.189575 -555.570068 768.177612
v -270.598114 -707.106689 653.281555
v -212.607468 -831.469543 513.280029
v -146.446686 -923.879456 353.553650
v -74.657845 -980.785278 180.240158
v -38.060249 980.785217 191.341644
v -74.657852 923.879456 375.330322
v -108.386337 831.469727 544.894958
v -137.949783 707.106934 693.519775
v -162.211670 555.570374 815.492737
v -180.240005 382.683533 906.127197
v -191.341660 195.090500 961.939392
v -195.090042 0.000104 980.784790
v -191.341660 -195.090179 961.939453
v -180.239914 -382.683289 906.127441
v -162.211670 -555.570068 815.492981
v -137.949783 -707.106689 693.520020
v -108.386337 -831.469543 544.895203
v -74.657883 -923.879456 375.330566
v -38.060246 -980.785278 191.341934
v -0.000019 980.785217 195.090256
v -0.000005 923.879456 382.683441
v 0.000016 831.469727 555.570007
v -0.000109 707.106934 707.106567
v -0.000060 555.570374 831.469116
v -0.000098 382.683533 923.879333
v -0.000014 195.090500 980.784973
v 0.000179 0.000106 999.999390
v -0.000014 -195.090179 980.784973
v 0.000036 -382.683289 923.879456
v -0.000030 -555.570068 831.469482
v -0.000109 -707.106689 707.106812
v 0.000016 -831.469543 555.570251
v -0.000035 -923.879456 382.683685
v -0.000015 -980.785278 195.090546
v 38.060215 980.785217 191.341644
v 74.657845 923.879456 375.330261
v 108.386353 831.469727 544.894836
v 137.949554 707.106934 693.519714
v 162.211533 555.570374 815.492737
v 180.239807 382.683533 906.127258
v 191.341614 195.090500 961.939392
v 195.090378 0.000104 980.784607
v 191.341614 -195.090179 961.939453
v 180.239975 -382.683289 906.127441
v 162.211563 -555.570068 815.492981
v 137.949554 -707.106689 693.519958
v 108.386353 -831.469543 544.895081
v 74.657806 -923.879456 375.330505
v 38.060211 -980.785278 191.341934
v 74.657814 980.785217 180.239899
v 146.446625 923.879456 353.553345
v 212.607468 831.469727 513.279663
v 270.597870 707.106934 653.281311
v 318.189392 555.570374 768.177368
v 353.553162 382.683533 853.553162
v 375.330078 195.090469 906.127075
v 382.683319 0.000096 923.878845
v 375.330078 -195.090210 906.127136
v 353.553375 -382.683289 853.553406
v 318.189453 -555.570068 768.177612
v 270.597870 -707.106689 653.281494
v 212.607468 -831.469543 513.279907
v 146.446594 -923.879456 353.553619
v 74.657806 -980.785278 180.240158
v 108.386353 980.785217 162.211609
v 212.607544 923.879456 318.189606
v 308.658173 831.469727 461.939484
v 392.847260 707.106934 587.937622
v 461.939453 555.570374 691.341431
v 513.279724 382.683533 768.177551
v 544.894897 195.090469 815.492859
v 555.570007 0.000082 831.468872
v 544.894897 -195.090210 815.492859
v 513.279907 -382.683289 768.177673
v 461.939484 -555.570068 691.341675
v 392.847260 -707.106689 587.937805
v 308.658173 -831.469543 461.939728
v 212.607529 -923.879456 318.189880
v 108.386337 -980.785278 162.211884
v 137.949661 980.785217 137.949615
v 270.598053 923.879456 270.597961
v 392.847290 831.469604 392.847198
v 499.999786 707.106934 499.999878
v 587.937439 555.570374 587.937500
v 653.281189 382.683533 653.281311
v 693.519592 195.090439 693.519653
v 707.106384 0.000062 707.106079
v 693.519592 -195.090240 693.519653
v 653.281433 -382.683289 653.281372
v 587.937500 -555.570068 587.937744
v 499.999786 -707.106689 500.000092
v 392.847290 -831.469666 392.847443
v 270.598022 -923.879456 270.598236
v 137.949646 -980.785278 137.949905
v 162.211624 980.785217 108.386307
v 318.189636 923.879456 212.607437
v 461.939514 831.469604 308.658020
v 587.937500 707.106812 392.847382
v 691.341248 555.570374 461.939636
v 768.177429 382.683472 513.279907
v 815.492737 195.090439 544.894897
v 831.469055 0.000040 555.569519
v 815.492737 -195.090240 544.894897
v 768.177673 -382.683350 513.279907
v 691.341370 -555.570068 461.939758
v 587.937500 -707.106812 392.847595
v 461.939514 -831.469666 308.658264
v 318.189606 -923.879456 212.607727
v 162.211624 -980.785278 108.386597
v 0.000081 1000.000000 -0.000029
v 180.239929 980.785217 74.657768
v 353.553345 923.879456 146.446533
v 513.279663 831.469604 212.607346
v 653.281250 707.106812 270.597992
v 768.177368 555.570251 318.189575
v 853.553040 382.683472 353.553314
v 906.126953 195.090408 375.330109
v 923.878784 0.000014 382.682831
v 906.126953 -195.090271 375.330139
v 853.553284 -382.683350 353.553345
v 768.177429 -555.570190 318.189728
v 653.281250 -707.106812 270.598236
v 513.279663 -831.469666 212.607590
v 353.553314 -923.879456 146.446838
v 180.239899 -980.785278 74.658058
v 191.341690 980.785217 38.060169
v 375.330200 923.879456 74.657768
v 544.894836 831.469604 108.386238
v 693.519775 707.106812 137.949692
v 815.492798 555.570251 162.211624
v 906.127197 382.683411 180.239914
v 961.939209 195.090378 191.341614
v 980.784424 -0.000014 195.089844
v 961.939209 -195.090302 191.341660
v 906.127258 -382.683411 180.239944
v 815.492798 -555.570190 162.211792
v 693.519775 -707.106812 137.949890
v 544.894836 -831.469666 108.386482
v 375.330170 -923.879456 74.658051
v 191.341644 -980.785278 38.060459
v 195.090271 980.785217 -0.000059
v 382.683350 923.879456 -0.000060
v 555.569885 831.469604 -0.000083
v 707.106567 707.106812 0.000046
v 831.469177 555.570251 0.000035
v 923.879272 382.683411 0.000025
v 980.784790 195.090347 -0.000017
v 999.999084 -0.000044 -0.000299
v 980.784790 -195.090332 0.000042
v 923.879333 -382.683411 0.000021
v 831.469177 -555.570190 0.000188
v 707.106567 -707.106812 0.000259
v 555.569885 -831.469666 0.000168
v 382.683289 -923.879456 0.000234
v 195.090256 -980.785278 0.000234
v 191.341675 980.785217 -38.060284
v 375.330170 923.879456 -74.657875
v 544.894775 831.469604 -108.386391
v 693.519653 707.106812 -137.949600
v 815.492676 555.570251 -162.211563
v 906.127075 382.683411 -180.239868
v 961.939209 195.090317 -191.341644
v 980.784241 -0.000074 -195.090424
v 961.939209 -195.090363 -191.341599
v 906.127258 -382.683411 -180.239899
v 815.492676 -555.570190 -162.211426
v 693.519653 -707.106812 -137.949402
v 544.894775 -831.469666 -108.386147
v 375.330139 -923.879456 -74.657585
v 191.341629 -980.785278 -38.059986
v 180.239899 980.785217 -74.657883
v 353.553223 923.879456 -146.446640
v 513.279602 831.469604 -212.607468
v 653.281250 707.106812 -270.597931
v 768.177368 555.570251 -318.189453
v 853.553162 382.683350 -353.553223
v 906.127014 195.090286 -375.330109
v 923.878540 -0.000102 -382.683319
v 906.127014 -195.090393 -375.330078
v 853.553162 -382.683472 -353.553314
v 768.177368 -555.570190 -318.189301
v 653.281250 -707.106812 -270.597687
v 513.279602 -831.469666 -212.607224
v 353.553223 -923.879456 -146.446320
v 180.239868 -980.785278 -74.657570
v 162.211624 980.785217 -108.386414
v 318.189484 923.879456 -212.607544
v 461.939423 831.469604 -308.658173
v 587.937622 707.106812 -392.847321
v 691.341370 555.570129 -461.939453
v 768.177490 382.683350 -513.279663
v 815.492676 195.090256 -544.894836
v 831.468567 -0.000128 -555.569946
v 815.492676 -195.090424 -544.894836
v 768.177490 -382.683472 -513.279785
v 691.341370 -555.570312 -461.939331
v 587.937622 -707.106812 -392.847107
v 461.939423 -831.469666 -308.657928
v 318.189484 -923.879456 -212.607224
v 162.211609 -980.785278 -108.386093
v 137.949631 980.785217 -137.949722
v 270.597900 923.879456 -270.598022
v 392.847137 831.469604 -392.847260
v 499.999847 707.106689 -499.999786
v 587.937561 555.570129 -587.937500
v 653.281311 382.683289 -653.281250
v 693.519470 195.090256 -693.519531
v 707.105774 -0.000150 -707.106262
v 693.519470 -195.090424 -693.519531
v 653.281311 -382.683533 -653.281250
v 587.937561 -555.570312 -587.937256
v 499.999847 -707.106934 -499.999573
v 392.847137 -831.469666 -392.847015
v 270.597900 -923.879456 -270.597717
v 137.949615 -980.785278 -137.949387
v 108.386322 980.785217 -162.211685
v 212.607391 923.879456 -318.189575
v 308.657928 831.469482 -461.939484
v 392.847351 707.106689 -587.937561
v 461.939514 555.570129 -691.341309
v 513.279785 382.683289 -768.177429
v 544.894775 195.090225 -815.492737
v 555.569275 -0.000170 -831.468933
v 544.894775 -195.090454 -815.492737
v 513.279785 -382.683533 -768.177490
v 461.939514 -555.570312 -691.341125
v 392.847351 -707.106934 -587.937378
v 308.657928 -831.469788 -461.939240
v 212.607391 -923.879456 -318.189301
v 108.386314 -980.785278 -162.211365
v 74.657784 980.785217 -180.239944
v 146.446503 923.879456 -353.553314
v 212.607254 831.469482 -513.279602
v 270.597961 707.106689 -653.281250
v 318.189484 555.570129 -768.177246
v 353.553223 382.683289 -853.553101
v 375.329987 195.090225 -906.127014
v 382.682617 -0.000184 -923.878601
v 375.329987 -195.090454 -906.126953
v 353.553223 -382.683533 -853.553101
v 318.189484 -555.570312 -768.177063
v 270.597961 -707.106934 -653.281067
v 212.607254 -831.469788 -513.279358
v 146.446518 -923.879456 -353.553009
v 74.657784 -980.785278 -180.239624
v 38.060192 980.785217 -191.341705
v 74.657738 923.879456 -375.330170
v 108.386192 831.469482 -544.894653
v 137.949661 707.106689 -693.519714
v 162.211609 555.570129 -815.492615
v 180.239853 382.683289 -906.127014
v 191.341492 195.090195 -961.939209
v 195.089661 -0.000192 -980.784180
v 191.341492 -195.090485 -961.939148
v 180.239792 -382.683533 -906.127136
v 162.211609 -555.570312 -815.492432
v 137.949661 -707.106934 -693.519470
v 108.386192 -831.469788 -544.894409
v 74.657761 -923.879456 -375.329926
v 38.060200 -980.785278 -191.341370
v -0.000452 -0.000194 -999.998779
v -0.000140 -195.090485 -980.784668
v -0.000115 -382.683533 -923.879272
v -0.000036 -923.879456 -382.683014
v -0.000011 -980.785278 -195.089966
v -0.000000 -1000.000000 0.000237
vn 0.0097 -0.9951 0.0980
vn 0.0097 0.9951 0.0980
vn 0.0975 0.0975 0.9904
vn 0.0286 -0.9565 0.2902
vn 0.0938 0.2890 0.9527
vn 0.0464 -0.8810 0.4709
vn 0.0865 0.4696 0.8786
vn 0.0624 -0.7715 0.6332
vn 0.0759 0.6326 0.7708
vn 0.0759 -0.6326 0.7708
vn 0.0624 0.7715 0.6332
vn 0.0865 -0.4696 0.8786
vn 0.0464 0.8810 0.4709
vn 0.0938 -0.2890 0.9527
vn 0.0286 0.9565 0.2902
vn 0.0975 -0.0975 0.9904
vn 0.2779 -0.2890 0.9161
vn 0.0846 0.9565 0.2790
vn 0.2889 -0.0975 0.9524
vn 0.0286 -0.9951 0.0942
vn 0.0286 0.9951 0.0942
vn 0.2889 0.0975 0.9524
vn 0.0846 -0.9565 0.2790
vn 0.2779 0.2890 0.9161
vn 0.1374 -0.8810 0.4528
vn 0.2563 0.4696 0.8448
vn 0.1847 -0.7715 0.6088
vn 0.2248 0.6326 0.7412
vn 0.2248 -0.6326 0.7412
vn 0.1847 0.7715 0.6088
vn 0.2563 -0.4696 0.8448
vn 0.1374 0.8810 0.4528
vn 0.4162 0.4696 0.7786
vn 0.2999 -0.7715 0.5611
vn 0.3651 0.6326 0.6831
vn 0.3651 -0.6326 0.6831
vn 0.2999 0.7715 0.5611
vn 0.4162 -0.4696 0.7786
vn 0.2230 0.8810 0.4173
vn 0.4513 -0.2890 0.8443
vn 0.1374 0.9565 0.2571
vn 0.4691 -0.0975 0.8777
vn 0.0464 -0.9951 0.0869
vn 0.0464 0.9951 0.0869
vn 0.4691 0.0975 0.8777
vn 0.1374 -0.9565 0.2571
vn 0.4513 0.2890 0.8443
vn 0.2230 -0.8810 0.4173
vn 0.1850 0.9565 0.2254
vn 0.6314 -0.0975 0.7693
vn 0.0625 -0.9951 0.0761
vn 0.0625 0.9951 0.0761
vn 0.6314 0.0975 0.7693
vn 0.1850 -0.9565 0.2254
vn 0.6073 0.2890 0.7400
vn 0.3002 -0.8810 0.3658
vn 0.5601 0.4696 0.6825
vn 0.4036 -0.7715 0.4918
vn 0.4913 0.6326 0.5987
vn 0.4913 -0.6326 0.5987
vn 0.4036 0.7715 0.4918
vn 0.5601 -0.4696 0.6825
vn 0.3002 0.8810 0.3658
vn 0.6073 -0.2890 0.7400
vn 0.5987 0.6326 0.4913
vn 0.5987 -0.6326 0.4913
vn 0.4918 0.7715 0.4036
vn 0.6825 -0.4696 0.5601
vn 0.3658 0.8810 0.3002
vn 0.7400 -0.2890 0.6073
vn 0.2254 0.9565 0.1850
vn 0.7693 -0.0975 0.6314
vn 0.0761 -0.9951 0.0625
vn 0.0761 0.9951 0.0625
vn 0.7693 0.0975 0.6314
vn 0.2254 -0.9565 0.1850
vn 0.7400 0.2890 0.6073
vn 0.3658 -0.8810 0.3002
vn 0.6825 0.4696 0.5601
vn 0.4918 -0.7715 0.4036
vn 0.0869 -0.9951 0.0464
vn 0.0869 0.9951 0.0464
vn 0.8777 0.0975 0.4691
vn 0.8777 0.0976 0.4691
vn 0.2571 -0.9565 0.1374
vn 0.8443 0.2890 0.4513
vn 0.4173 -0.8810 0.2230
vn 0.4173 -0.8810 0.2231
vn 0.7786 0.4696 0.4162
vn 0.5611 -0.7715 0.2999
vn 0.6831 0.6326 0.3651
vn 0.6831 -0.6326 0.3651
vn 0.5611 0.7715 0.2999
vn 0.7786 -0.4696 0.4162
vn 0.4173 0.8810 0.2230
vn 0.8443 -0.2890 0.4513
vn 0.2571 0.9565 0.1374
vn 0.8777 -0.0975 0.4691
vn 0.7412 -0.6326 0.2248
vn 0.6088 0.7715 0.1847
vn 0.8448 -0.4696 0.2563
vn 0.4528 0.8810 0.1374
vn 0.9161 -0.2890 0.2779
vn 0.2790 0.9565 0.0846
vn 0.9524 -0.0975 0.2889
vn 0.0942 -0.9951 0.0286
vn 0.0942 0.9951 0.0286
vn 0.9524 0.0975 0.2889
vn 0.2790 -0.9565 0.0846
vn 0.9161 0.2890 0.2779
vn 0.4528 -0.8810 0.1374
vn 0.8448 0.4696 0.2563
vn 0.6088 -0.7715 0.1847
vn 0.7412 0.6326 0.2248
vn 0.9904 0.0975 0.0975
vn 0.2902 -0.9565 0.0286
vn 0.9527 0.2890 0.0938
vn 0.4709 -0.8810 0.0464
vn 0.8786 0.4696 0.0865
vn 0.6332 -0.7715 0.0624
vn 0.7708 0.6326 0.0759
vn 0.7708 -0.6326 0.0759
vn 0.6332 0.7715 0.0624
vn 0.8786 -0.4696 0.0865
vn 0.4709 0.8810 0.0464
vn 0.9527 -0.2890 0.0938
vn 0.2902 0.9565 0.0286
vn 0.9904 -0.0975 0.0975
vn 0.0980 -0.9951 0.0097
vn 0.0980 0.9951 0.0097
vn 0.6332 0.7715 -0.0624
vn 0.8786 -0.4696 -0.0865
vn 0.4709 0.8810 -0.0464
vn 0.9527 -0.2890 -0.0938
vn 0.2902 0.9565 -0.0286
vn 0.9904 -0.0975 -0.0975
vn 0.0980 -0.9951 -0.0097
vn 0.0980 0.9951 -0.0097
vn 0.9904 0.0975 -0.0975
vn 0.2902 -0.9565 -0.0286
vn 0.9527 0.2890 -0.0938
vn 0.4709 -0.8810 -0.0464
vn 0.8786 0.4696 -0.0865
vn 0.6332 -0.7715 -0.0624
vn 0.7708 0.6326 -0.0759
vn 0.7708 -0.6326 -0.0759
vn 0.2790 -0.9565 -0.0846
vn 0.9161 0.2890 -0.2779
vn 0.4528 -0.8810 -0.1374
vn 0.8448 0.4696 -0.2563
vn 0.6088 -0.7715 -0.1847
vn 0.7412 0.6326 -0.2248
vn 0.7412 -0.6326 -0.2248
vn 0.6088 0.7715 -0.1847
vn 0.8448 -0.4696 -0.2563
vn 0.4528 0.8810 -0.1374
vn 0.9161 -0.2890 -0.2779
vn 0.2790 0.9565 -0.0846
vn 0.9524 -0.0975 -0.2889
vn 0.0942 -0.9951 -0.0286
vn 0.0942 0.9951 -0.0286
vn 0.9524 0.0975 -0.2889
vn 0.7786 -0.4696 -0.4162
vn 0.4173 0.8810 -0.2230
vn 0.4173 0.8810 -0.2231
vn 0.8443 -0.2890 -0.4513
vn 0.2571 0.9565 -0.1374
vn 0.8777 -0.0975 -0.4691
vn 0.0869 -0.9951 -0.0464
vn 0.0869 0.9951 -0.0464
vn 0.8777 0.0975 -0.4691
vn 0.2571 -0.9565 -0.1374
vn 0.8443 0.2890 -0.4513
vn 0.4173 -0.8810 -0.2230
vn 0.7786 0.4696 -0.4162
vn 0.5611 -0.7715 -0.2999
vn 0.6831 0.6326 -0.3651
vn 0.6831 -0.6326 -0.3651
vn 0.5611 0.7715 -0.2999
vn 0.7400 0.2890 -0.6073
vn 0.3658 -0.8810 -0.3002
vn 0.6825 0.4696 -0.5601
vn 0.4918 -0.7715 -0.4036
vn 0.5987 0.6326 -0.4913
vn 0.5987 -0.6326 -0.4913
vn 0.4918 0.7715 -0.4036
vn 0.6825 -0.4696 -0.5601
vn 0.3658 0.8810 -0.3002
vn 0.7400 -0.2890 -0.6073
vn 0.2254 0.9565 -0.1850
vn 0.7693 -0.0975 -0.6314
vn 0.0761 -0.9951 -0.0625
vn 0.0761 0.9951 -0.0625
vn 0.7693 0.0975 -0.6314
vn 0.2254 -0.9565 -0.1850
vn 0.3002 0.8810 -0.3658
vn 0.6073 -0.2890 -0.7400
vn 0.1850 0.9565 -0.2254
vn 0.6314 -0.0975 -0.7693
vn 0.0625 -0.9951 -0.0761
vn 0.0625 0.9951 -0.0761
vn 0.6314 0.0975 -0.7693
vn 0.1850 -0.9565 -0.2254
vn 0.1850 -0.9566 -0.2254
vn 0.6073 0.2890 -0.7400
vn 0.3002 -0.8810 -0.3658
vn 0.5601 0.4696 -0.6825
vn 0.4036 -0.7715 -0.4918
vn 0.4913 0.6326 -0.5987
vn 0.4913 -0.6326 -0.5987
vn 0.4036 0.7715 -0.4918
vn 0.5601 -0.4696 -0.6825
vn 0.4162 0.4696 -0.7786
vn 0.2999 -0.7715 -0.5611
vn 0.3651 0.6326 -0.6831
vn 0.3651 -0.6326 -0.6831
vn 0.2999 0.7715 -0.5611
vn 0.4162 -0.4696 -0.7786
vn 0.2230 0.8810 -0.4173
vn 0.2231 0.8810 -0.4173
vn 0.4513 -0.2890 -0.8443
vn 0.1374 0.9565 -0.2571
vn 0.4691 -0.0975 -0.8777
vn 0.0464 -0.9951 -0.0869
vn 0.0464 0.9951 -0.0869
vn 0.4691 0.0975 -0.8777
vn 0.1374 -0.9565 -0.2571
vn 0.4513 0.2890 -0.8443
vn 0.2230 -0.8810 -0.4173
vn 0.0846 0.9565 -0.2790
vn 0.2889 -0.0975 -0.9524
vn 0.0286 -0.9951 -0.0942
vn 0.0286 0.9951 -0.0942
vn 0.2889 0.0975 -0.9524
vn 0.0846 -0.9565 -0.2790
vn 0.2779 0.2890 -0.9161
vn 0.1374 -0.8810 -0.4528
vn 0.2563 0.4696 -0.8448
vn 0.1847 -0.7715 -0.6088
vn 0.2248 0.6326 -0.7412
vn 0.2248 -0.6326 -0.7412
vn 0.1847 0.7715 -0.6088
vn 0.2563 -0.4696 -0.8448
vn 0.1374 0.8810 -0.4528
vn 0.2779 -0.2890 -0.9161
vn 0.0624 -0.7715 -0.6332
vn 0.0759 0.6326 -0.7708
vn 0.0759 -0.6326 -0.7708
vn 0.0624 0.7715 -0.6332
vn 0.0865 -0.4696 -0.8786
vn 0.0464 0.8810 -0.4709
vn 0.0938 -0.2890 -0.9527
vn 0.0286 0.9565 -0.2902
vn 0.0975 -0.0975 -0.9904
vn 0.0097 -0.9951 -0.0980
vn 0.0097 0.9951 -0.0980
vn 0.0975 0.0975 -0.9904
vn 0.0976 0.0975 -0.9904
vn 0.0286 -0.9565 -0.2902
vn 0.0938 0.2890 -0.9527
vn 0.0464 -0.8810 -0.4709
vn 0.0865 0.4696 -0.8786
vn -0.0976 -0.0975 -0.9904
vn -0.0097 -0.9951 -0.0980
vn -0.0097 0.9951 -0.0980
vn -0.0976 0.0975 -0.9904
vn -0.0286 -0.9565 -0.2902
vn -0.0938 0.2890 -0.9527
vn -0.0464 -0.8810 -0.4709
vn -0.0865 0.4696 -0.8786
vn -0.0624 -0.7715 -0.6332
vn -0.0759 0.6326 -0.7708
vn -0.0759 -0.6326 -0.7708
vn -0.0624 0.7715 -0.6332
vn -0.0865 -0.4696 -0.8786
vn -0.0464 0.8810 -0.4709
vn -0.0938 -0.2890 -0.9527
vn -0.0286 0.9565 -0.2902
vn -0.2248 0.6326 -0.7412
vn -0.2248 -0.6326 -0.7412
vn -0.1847 0.7715 -0.6088
vn -0.2563 -0.4696 -0.8448
vn -0.1374 0.8810 -0.4528
vn -0.2779 -0.2890 -0.9161
vn -0.0846 0.9565 -0.2790
vn -0.2889 -0.0975 -0.9524
vn -0.0286 -0.9951 -0.0942
vn -0.0286 0.9951 -0.0942
vn -0.2889 0.0975 -0.9524
vn -0.0846 -0.9565 -0.2790
vn -0.2779 0.2890 -0.9161
vn -0.1374 -0.8810 -0.4528
vn -0.2563 0.4696 -0.8448
vn -0.1847 -0.7715 -0.6088
vn -0.0464 -0.9951 -0.0869
vn -0.0464 0.9951 -0.0869
vn -0.4691 0.0975 -0.8777
vn -0.1374 -0.9565 -0.2571
vn -0.4513 0.2890 -0.8443
vn -0.2231 -0.8810 -0.4173
vn -0.2230 -0.8810 -0.4173
vn -0.4162 0.4696 -0.7786
vn -0.2999 -0.7715 -0.5611
vn -0.3651 0.6326 -0.6831
vn -0.3651 -0.6326 -0.6831
vn -0.2999 0.7715 -0.5611
vn -0.4162 -0.4696 -0.7786
vn -0.2231 0.8810 -0.4173
vn -0.4513 -0.2890 -0.8443
vn -0.1374 0.9565 -0.2571
vn -0.4691 -0.0975 -0.8777
vn -0.4913 -0.6326 -0.5987
vn -0.4036 0.7715 -0.4918
vn -0.5601 -0.4696 -0.6825
vn -0.3002 0.8810 -0.3658
vn -0.6073 -0.2890 -0.7400
vn -0.1850 0.9565 -0.2254
vn -0.6314 -0.0975 -0.7693
vn -0.0625 -0.9951 -0.0761
vn -0.0625 0.9951 -0.0761
vn -0.6314 0.0975 -0.7693
vn -0.1850 -0.9565 -0.2254
vn -0.6073 0.2890 -0.7400
vn -0.3002 -0.8810 -0.3658
vn -0.5601 0.4696 -0.6825
vn -0.4036 -0.7715 -0.4918
vn -0.4913 0.6326 -0.5987
vn -0.7693 0.0975 -0.6314
vn -0.2254 -0.9565 -0.1850
vn -0.7400 0.2890 -0.6073
vn -0.3658 -0.8810 -0.3002
vn -0.6825 0.4696 -0.5601
vn -0.4918 -0.7715 -0.4036
vn -0.5987 0.6326 -0.4913
vn -0.5987 -0.6326 -0.4913
vn -0.4918 0.7715 -0.4036
vn -0.6825 -0.4696 -0.5601
vn -0.3658 0.8810 -0.3002
vn -0.7400 -0.2890 -0.6073
vn -0.2254 0.9565 -0.1850
vn -0.7693 -0.0975 -0.6314
vn -0.0761 -0.9951 -0.0625
vn -0.0761 0.9951 -0.0625
vn -0.5611 0.7715 -0.2999
vn -0.7786 -0.4696 -0.4162
vn -0.4173 0.8810 -0.2231
vn -0.4173 0.8810 -0.2230
vn -0.8443 -0.2890 -0.4513
vn -0.2571 0.9565 -0.1374
vn -0.8777 -0.0975 -0.4691
vn -0.0869 -0.9951 -0.0464
vn -0.0869 0.9951 -0.0464
vn -0.8777 0.0975 -0.4691
vn -0.2571 -0.9565 -0.1374
vn -0.8443 0.2890 -0.4513
vn -0.4173 -0.8810 -0.2230
vn -0.4173 -0.8810 -0.2231
vn -0.7786 0.4696 -0.4162
vn -0.5611 -0.7715 -0.2999
vn -0.6831 0.6326 -0.3651
vn -0.6831 -0.6326 -0.3651
vn -0.9161 0.2890 -0.2779
vn -0.4528 -0.8810 -0.1374
vn -0.8448 0.4696 -0.2563
vn -0.6088 -0.7715 -0.1847
vn -0.7412 0.6326 -0.2248
vn -0.7412 -0.6326 -0.2248
vn -0.6088 0.7715 -0.1847
vn -0.8448 -0.4696 -0.2563
vn -0.4528 0.8810 -0.1374
vn -0.9161 -0.2890 -0.2779
vn -0.2790 0.9565 -0.0846
vn -0.9524 -0.0975 -0.2889
vn -0.0942 -0.9951 -0.0286
vn -0.0942 0.9951 -0.0286
vn -0.9524 0.0975 -0.2889
vn -0.2790 -0.9565 -0.0846
vn -0.4709 0.8810 -0.0464
vn -0.9527 -0.2890 -0.0938
vn -0.2902 0.9565 -0.0286
vn -0.9904 -0.0975 -0.0975
vn -0.0980 -0.9951 -0.0097
vn -0.0980 0.9951 -0.0097
vn -0.9904 0.0975 -0.0975
vn -0.9904 0.0975 -0.0976
vn -0.2902 -0.9565 -0.0286
vn -0.9527 0.2890 -0.0938
vn -0.4709 -0.8810 -0.0464
vn -0.8786 0.4696 -0.0865
vn -0.6332 -0.7715 -0.0624
vn -0.7708 0.6326 -0.0759
vn -0.7708 -0.6326 -0.0759
vn -0.6332 0.7715 -0.0624
vn -0.8786 -0.4696 -0.0865
vn -0.4709 -0.8810 0.0464
vn -0.8786 0.4696 0.0865
vn -0.6332 -0.7715 0.0624
vn -0.7708 0.6326 0.0759
vn -0.7708 -0.6326 0.0759
vn -0.6332 0.7715 0.0624
vn -0.8786 -0.4696 0.0865
vn -0.4709 0.8810 0.0464
vn -0.9527 -0.2890 0.0938
vn -0.2902 0.9565 0.0286
vn -0.9904 -0.0975 0.0976
vn -0.0980 -0.9951 0.0097
vn -0.0980 0.9951 0.0097
vn -0.9904 0.0975 0.0976
vn -0.9904 0.0975 0.0975
vn -0.2902 -0.9565 0.0286
vn -0.9527 0.2890 0.0938
vn -0.9161 -0.2890 0.2779
vn -0.2790 0.9565 0.0846
vn -0.9524 -0.0975 0.2889
vn -0.0942 -0.9951 0.0286
vn -0.0942 0.9951 0.0286
vn -0.9524 0.0975 0.2889
vn -0.2790 -0.9565 0.0846
vn -0.9161 0.2890 0.2779
vn -0.4528 -0.8810 0.1374
vn -0.8448 0.4696 0.2563
vn -0.6088 -0.7715 0.1847
vn -0.7412 0.6326 0.2248
vn -0.7412 -0.6326 0.2248
vn -0.6088 0.7715 0.1847
vn -0.8448 -0.4696 0.2563
vn -0.4528 0.8810 0.1374
vn -0.7786 0.4696 0.4162
vn -0.5611 -0.7715 0.2999
vn -0.6831 0.6326 0.3651
vn -0.6831 -0.6326 0.3651
vn -0.5611 0.7715 0.2999
vn -0.7786 -0.4696 0.4162
vn -0.4173 0.8810 0.2230
vn -0.4173 0.8810 0.2231
vn -0.8443 -0.2890 0.4513
vn -0.2571 0.9565 0.1374
vn -0.8777 -0.0975 0.4691
vn -0.0869 -0.9951 0.0464
vn -0.0869 0.9951 0.0464
vn -0.8777 0.0975 0.4691
vn -0.2571 -0.9565 0.1374
vn -0.8443 0.2890 0.4513
vn -0.4173 -0.8810 0.2230
vn -0.4173 -0.8810 0.2231
vn -0.2254 0.9565 0.1850
vn -0.7693 -0.0975 0.6314
vn -0.0761 -0.9951 0.0625
vn -0.0761 0.9951 0.0625
vn -0.7693 0.0975 0.6314
vn -0.2254 -0.9565 0.1850
vn -0.7400 0.2890 0.6073
vn -0.3658 -0.8810 0.3002
vn -0.6825 0.4696 0.5601
vn -0.4918 -0.7715 0.4036
vn -0.5987 0.6326 0.4913
vn -0.5987 -0.6326 0.4913
vn -0.4918 0.7715 0.4036
vn -0.6825 -0.4696 0.5601
vn -0.3658 0.8810 0.3002
vn -0.7400 -0.2890 0.6073
vn -0.4036 -0.7715 0.4918
vn -0.4913 0.6326 0.5987
vn -0.4913 -0.6326 0.5987
vn -0.4036 0.7715 0.4918
vn -0.5601 -0.4696 0.6825
vn -0.3002 0.8810 0.3658
vn -0.6073 -0.2890 0.7400
vn -0.1850 0.9565 0.2254
vn -0.1850 0.9566 0.2254
vn -0.6314 -0.0975 0.7693
vn -0.0625 -0.9951 0.0761
vn -0.0625 0.9951 0.0761
vn -0.6314 0.0975 0.7693
vn -0.1850 -0.9565 0.2254
vn -0.6073 0.2890 0.7400
vn -0.3002 -0.8810 0.3658
vn -0.5601 0.4696 0.6825
vn -0.4691 -0.0975 0.8777
vn -0.0464 -0.9951 0.0869
vn -0.0464 0.9951 0.0869
vn -0.4691 0.0975 0.8777
vn -0.1374 -0.9565 0.2571
vn -0.4513 0.2890 0.8443
vn -0.2230 -0.8810 0.4173
vn -0.4162 0.4696 0.7786
vn -0.2999 -0.7715 0.5611
vn -0.3651 0.6326 0.6831
vn -0.3651 -0.6326 0.6831
vn -0.2999 0.7715 0.5611
vn -0.4162 -0.4696 0.7786
vn -0.2230 0.8810 0.4173
vn -0.4513 -0.2890 0.8443
vn -0.1374 0.9565 0.2571
vn -0.2248 0.6326 0.7412
vn -0.2248 -0.6326 0.7412
vn -0.1847 0.7715 0.6088
vn -0.2563 -0.4696 0.8448
vn -0.1374 0.8810 0.4528
vn -0.2779 -0.2890 0.9161
vn -0.0846 0.9565 0.2790
vn -0.2889 -0.0975 0.9524
vn -0.0286 -0.9951 0.0942
vn -0.0286 0.9951 0.0942
vn -0.2889 0.0975 0.9524
vn -0.0846 -0.9565 0.2790
vn -0.2779 0.2890 0.9161
vn -0.1374 -0.8810 0.4528
vn -0.2563 0.4696 0.8448
vn -0.1847 -0.7715 0.6088
vn -0.0097 0.9951 0.0980
vn -0.0975 0.0975 0.9904
vn -0.0286 -0.9565 0.2902
vn -0.0938 0.2890 0.9527
vn -0.0464 -0.8810 0.4709
vn -0.0865 0.4696 0.8786
vn -0.0624 -0.7715 0.6332
vn -0.0759 0.6326 0.7708
vn -0.0759 -0.6326 0.7708
vn -0.0624 0.7715 0.6332
vn -0.0865 -0.4696 0.8786
vn -0.0464 0.8810 0.4709
vn -0.0938 -0.2890 0.9527
vn -0.0286 0.9565 0.2902
vn -0.0976 -0.0975 0.9904
vn -0.0975 -0.0975 0.9904
vn -0.0097 -0.9951 0.0980
vn 0.8777 -0.0976 0.4691
vn 0.0976 -0.0975 -0.9904
vn -0.0975 0.0975 -0.9904
vn -0.9904 -0.0975 -0.0976
vn -0.9904 -0.0975 0.0975
vn -0.2231 -0.8810 0.4173
vt 0.750000 0.937500
vt 0.734375 1.000000
vt 0.718750 0.937500
vt 0.734375 0.000000
vt 0.750000 0.062500
vt 0.718750 0.062500
vt 0.750000 0.500000
vt 0.718750 0.437500
vt 0.750000 0.437500
vt 0.718750 0.875000
vt 0.750000 0.875000
vt 0.718750 0.375000
vt 0.750000 0.375000
vt 0.718750 0.812500
vt 0.750000 0.812500
vt 0.718750 0.312500
vt 0.750000 0.312500
vt 0.718750 0.750000
vt 0.750000 0.750000
vt 0.718750 0.250000
vt 0.750000 0.250000
vt 0.718750 0.687500
vt 0.750000 0.687500
vt 0.750000 0.187500
vt 0.718750 0.187500
vt 0.718750 0.625000
vt 0.750000 0.625000
vt 0.718750 0.125000
vt 0.750000 0.125000
vt 0.750000 0.562500
vt 0.718750 0.562500
vt 0.718750 0.500000
vt 0.687500 0.562500
vt 0.687500 0.125000
vt 0.687500 0.062500
vt 0.687500 0.500000
vt 0.703125 1.000000
vt 0.687500 0.937500
vt 0.703125 0.000000
vt 0.687500 0.437500
vt 0.687500 0.875000
vt 0.687500 0.375000
vt 0.687500 0.812500
vt 0.687500 0.312500
vt 0.687500 0.750000
vt 0.687500 0.250000
vt 0.687500 0.687500
vt 0.687500 0.187500
vt 0.687500 0.625000
vt 0.656250 0.375000
vt 0.656250 0.312500
vt 0.656250 0.750000
vt 0.656250 0.250000
vt 0.656250 0.687500
vt 0.656250 0.187500
vt 0.656250 0.625000
vt 0.656250 0.125000
vt 0.656250 0.562500
vt 0.656250 0.062500
vt 0.656250 0.500000
vt 0.671875 1.000000
vt 0.656250 0.937500
vt 0.671875 0.000000
vt 0.656250 0.437500
vt 0.656250 0.875000
vt 0.656250 0.812500
vt 0.625000 0.062500
vt 0.625000 0.562500
vt 0.625000 0.500000
vt 0.640625 1.000000
vt 0.625000 0.937500
vt 0.640625 0.000000
vt 0.625000 0.437500
vt 0.625000 0.875000
vt 0.625000 0.375000
vt 0.625000 0.812500
vt 0.625000 0.312500
vt 0.625000 0.750000
vt 0.625000 0.250000
vt 0.625000 0.687500
vt 0.625000 0.187500
vt 0.625000 0.625000
vt 0.625000 0.125000
vt 0.593750 0.250000
vt 0.593750 0.687500
vt 0.593750 0.187500
vt 0.593750 0.625000
vt 0.593750 0.125000
vt 0.593750 0.562500
vt 0.593750 0.062500
vt 0.593750 0.500000
vt 0.609375 1.000000
vt 0.593750 0.937500
vt 0.609375 0.000000
vt 0.593750 0.437500
vt 0.593750 0.875000
vt 0.593750 0.375000
vt 0.593750 0.812500
vt 0.593750 0.312500
vt 0.593750 0.750000
vt 0.578125 1.000000
vt 0.562500 0.937500
vt 0.578125 0.000000
vt 0.562500 0.062500
vt 0.562500 0.437500
vt 0.562500 0.875000
vt 0.562500 0.375000
vt 0.562500 0.812500
vt 0.562500 0.312500
vt 0.562500 0.750000
vt 0.562500 0.250000
vt 0.562500 0.687500
vt 0.562500 0.187500
vt 0.562500 0.625000
vt 0.562500 0.125000
vt 0.562500 0.562500
vt 0.562500 0.500000
vt 0.531250 0.750000
vt 0.531250 0.687500
vt 0.531250 0.250000
vt 0.531250 0.187500
vt 0.531250 0.625000
vt 0.531250 0.125000
vt 0.531250 0.562500
vt 0.531250 0.062500
vt 0.531250 0.500000
vt 0.546875 1.000000
vt 0.531250 0.937500
vt 0.546875 0.000000
vt 0.531250 0.437500
vt 0.531250 0.875000
vt 0.531250 0.375000
vt 0.531250 0.812500
vt 0.531250 0.312500
vt 0.500000 0.437500
vt 0.500000 0.937500
vt 0.500000 0.875000
vt 0.500000 0.375000
vt 0.500000 0.812500
vt 0.500000 0.312500
vt 0.500000 0.750000
vt 0.500000 0.250000
vt 0.500000 0.687500
vt 0.500000 0.187500
vt 0.500000 0.625000
vt 0.500000 0.125000
vt 0.500000 0.562500
vt 0.500000 0.062500
vt 0.500000 0.500000
vt 0.515625 1.000000
vt 0.515625 0.000000
vt 0.468750 0.250000
vt 0.468750 0.187500
vt 0.468750 0.625000
vt 0.468750 0.125000
vt 0.468750 0.562500
vt 0.468750 0.062500
vt 0.468750 0.500000
vt 0.484375 1.000000
vt 0.468750 0.937500
vt 0.484375 0.000000
vt 0.468750 0.437500
vt 0.468750 0.875000
vt 0.468750 0.375000
vt 0.468750 0.812500
vt 0.468750 0.312500
vt 0.468750 0.750000
vt 0.468750 0.687500
vt 0.437500 0.875000
vt 0.437500 0.437500
vt 0.437500 0.375000
vt 0.437500 0.812500
vt 0.437500 0.312500
vt 0.437500 0.750000
vt 0.437500 0.250000
vt 0.437500 0.687500
vt 0.437500 0.187500
vt 0.437500 0.625000
vt 0.437500 0.125000
vt 0.437500 0.562500
vt 0.437500 0.062500
vt 0.437500 0.500000
vt 0.453125 1.000000
vt 0.437500 0.937500
vt 0.453125 0.000000
vt 0.406250 0.625000
vt 0.406250 0.125000
vt 0.406250 0.562500
vt 0.406250 0.062500
vt 0.406250 0.500000
vt 0.421875 1.000000
vt 0.406250 0.937500
vt 0.421875 0.000000
vt 0.406250 0.437500
vt 0.406250 0.875000
vt 0.406250 0.375000
vt 0.406250 0.812500
vt 0.406250 0.312500
vt 0.406250 0.750000
vt 0.406250 0.250000
vt 0.406250 0.687500
vt 0.406250 0.187500
vt 0.375000 0.437500
vt 0.375000 0.375000
vt 0.375000 0.812500
vt 0.375000 0.312500
vt 0.375000 0.750000
vt 0.375000 0.250000
vt 0.375000 0.687500
vt 0.375000 0.187500
vt 0.375000 0.625000
vt 0.375000 0.125000
vt 0.375000 0.562500
vt 0.375000 0.062500
vt 0.375000 0.500000
vt 0.390625 1.000000
vt 0.375000 0.937500
vt 0.390625 0.000000
vt 0.375000 0.875000
vt 0.343750 0.187500
vt 0.343750 0.125000
vt 0.343750 0.562500
vt 0.343750 0.062500
vt 0.343750 0.500000
vt 0.359375 1.000000
vt 0.343750 0.937500
vt 0.359375 0.000000
vt 0.343750 0.437500
vt 0.343750 0.875000
vt 0.343750 0.375000
vt 0.343750 0.812500
vt 0.343750 0.312500
vt 0.343750 0.750000
vt 0.343750 0.250000
vt 0.343750 0.687500
vt 0.343750 0.625000
vt 0.312500 0.312500
vt 0.312500 0.750000
vt 0.312500 0.250000
vt 0.312500 0.687500
vt 0.312500 0.187500
vt 0.312500 0.625000
vt 0.312500 0.125000
vt 0.312500 0.562500
vt 0.312500 0.062500
vt 0.312500 0.500000
vt 0.328125 1.000000
vt 0.312500 0.937500
vt 0.328125 0.000000
vt 0.312500 0.437500
vt 0.312500 0.875000
vt 0.312500 0.375000
vt 0.312500 0.812500
vt 0.281250 0.062500
vt 0.281250 0.562500
vt 0.281250 0.500000
vt 0.296875 1.000000
vt 0.281250 0.937500
vt 0.296875 0.000000
vt 0.281250 0.437500
vt 0.281250 0.875000
vt 0.281250 0.375000
vt 0.281250 0.812500
vt 0.281250 0.312500
vt 0.281250 0.750000
vt 0.281250 0.250000
vt 0.281250 0.687500
vt 0.281250 0.187500
vt 0.281250 0.625000
vt 0.281250 0.125000
vt 0.250000 0.750000
vt 0.250000 0.250000
vt 0.250000 0.687500
vt 0.250000 0.187500
vt 0.250000 0.625000
vt 0.250000 0.125000
vt 0.250000 0.562500
vt 0.250000 0.062500
vt 0.250000 0.500000
vt 0.265625 1.000000
vt 0.250000 0.937500
vt 0.265625 0.000000
vt 0.250000 0.437500
vt 0.250000 0.875000
vt 0.250000 0.375000
vt 0.250000 0.812500
vt 0.250000 0.312500
vt 0.218750 0.562500
vt 0.218750 0.500000
vt 0.234375 1.000000
vt 0.218750 0.937500
vt 0.234375 0.000000
vt 0.218750 0.062500
vt 0.218750 0.437500
vt 0.218750 0.875000
vt 0.218750 0.375000
vt 0.218750 0.812500
vt 0.218750 0.312500
vt 0.218750 0.750000
vt 0.218750 0.250000
vt 0.218750 0.687500
vt 0.218750 0.187500
vt 0.218750 0.625000
vt 0.218750 0.125000
vt 0.187500 0.250000
vt 0.187500 0.750000
vt 0.187500 0.687500
vt 0.187500 0.187500
vt 0.187500 0.625000
vt 0.187500 0.125000
vt 0.187500 0.562500
vt 0.187500 0.062500
vt 0.187500 0.500000
vt 0.203125 1.000000
vt 0.187500 0.937500
vt 0.203125 0.000000
vt 0.187500 0.437500
vt 0.187500 0.875000
vt 0.187500 0.375000
vt 0.187500 0.812500
vt 0.187500 0.312500
vt 0.171875 1.000000
vt 0.156250 0.937500
vt 0.171875 0.000000
vt 0.156250 0.062500
vt 0.156250 0.437500
vt 0.156250 0.875000
vt 0.156250 0.375000
vt 0.156250 0.812500
vt 0.156250 0.312500
vt 0.156250 0.750000
vt 0.156250 0.250000
vt 0.156250 0.687500
vt 0.156250 0.187500
vt 0.156250 0.625000
vt 0.156250 0.125000
vt 0.156250 0.562500
vt 0.156250 0.500000
vt 0.125000 0.687500
vt 0.125000 0.250000
vt 0.125000 0.187500
vt 0.125000 0.625000
vt 0.125000 0.125000
vt 0.125000 0.562500
vt 0.125000 0.062500
vt 0.125000 0.500000
vt 0.140625 1.000000
vt 0.125000 0.937500
vt 0.140625 0.000000
vt 0.125000 0.437500
vt 0.125000 0.875000
vt 0.125000 0.375000
vt 0.125000 0.812500
vt 0.125000 0.312500
vt 0.125000 0.750000
vt 0.093750 0.437500
vt 0.093750 0.937500
vt 0.093750 0.875000
vt 0.093750 0.375000
vt 0.093750 0.812500
vt 0.093750 0.312500
vt 0.093750 0.750000
vt 0.093750 0.250000
vt 0.093750 0.687500
vt 0.093750 0.187500
vt 0.093750 0.625000
vt 0.093750 0.125000
vt 0.093750 0.562500
vt 0.093750 0.062500
vt 0.093750 0.500000
vt 0.109375 1.000000
vt 0.109375 0.000000
vt 0.062500 0.250000
vt 0.062500 0.187500
vt 0.062500 0.687500
vt 0.062500 0.625000
vt 0.062500 0.125000
vt 0.062500 0.562500
vt 0.062500 0.062500
vt 0.062500 0.500000
vt 0.078125 1.000000
vt 0.062500 0.937500
vt 0.078125 0.000000
vt 0.062500 0.437500
vt 0.062500 0.875000
vt 0.062500 0.375000
vt 0.062500 0.812500
vt 0.062500 0.312500
vt 0.062500 0.750000
vt 0.031250 0.437500
vt 0.031250 0.375000
vt 0.031250 0.875000
vt 0.031250 0.812500
vt 0.031250 0.312500
vt 0.031250 0.750000
vt 0.031250 0.250000
vt 0.031250 0.687500
vt 0.031250 0.187500
vt 0.031250 0.625000
vt 0.031250 0.125000
vt 0.031250 0.562500
vt 0.031250 0.062500
vt 0.031250 0.500000
vt 0.046875 1.000000
vt 0.031250 0.937500
vt 0.046875 0.000000
vt 0.000000 0.125000
vt 0.000000 0.625000
vt 0.000000 0.562500
vt 0.000000 0.062500
vt 0.000000 0.500000
vt 0.015625 1.000000
vt 0.000000 0.937500
vt 0.015625 0.000000
vt 0.000000 0.437500
vt 0.000000 0.875000
vt 0.000000 0.375000
vt 0.000000 0.812500
vt 0.000000 0.312500
vt 0.000000 0.750000
vt 0.000000 0.250000
vt 0.000000 0.687500
vt 0.000000 0.187500
vt 1.000000 0.875000
vt 0.968750 0.812500
vt 1.000000 0.812500
vt 1.000000 0.375000
vt 0.968750 0.312500
vt 1.000000 0.312500
vt 0.968750 0.750000
vt 1.000000 0.750000
vt 0.968750 0.250000
vt 1.000000 0.250000
vt 0.968750 0.687500
vt 1.000000 0.687500
vt 1.000000 0.187500
vt 0.968750 0.187500
vt 0.968750 0.625000
vt 1.000000 0.625000
vt 0.968750 0.125000
vt 1.000000 0.125000
vt 0.968750 0.562500
vt 1.000000 0.562500
vt 0.968750 0.062500
vt 1.000000 0.062500
vt 1.000000 0.500000
vt 0.968750 0.500000
vt 1.000000 0.937500
vt 0.984375 1.000000
vt 0.968750 0.937500
vt 0.984375 0.000000
vt 0.968750 0.437500
vt 1.000000 0.437500
vt 0.968750 0.875000
vt 0.968750 0.375000
vt 0.937500 0.625000
vt 0.937500 0.562500
vt 0.937500 0.062500
vt 0.937500 0.500000
vt 0.953125 1.000000
vt 0.937500 0.937500
vt 0.953125 0.000000
vt 0.937500 0.437500
vt 0.937500 0.875000
vt 0.937500 0.375000
vt 0.937500 0.812500
vt 0.937500 0.312500
vt 0.937500 0.750000
vt 0.937500 0.250000
vt 0.937500 0.687500
vt 0.937500 0.187500
vt 0.937500 0.125000
vt 0.906250 0.312500
vt 0.906250 0.750000
vt 0.906250 0.250000
vt 0.906250 0.687500
vt 0.906250 0.187500
vt 0.906250 0.625000
vt 0.906250 0.125000
vt 0.906250 0.562500
vt 0.906250 0.062500
vt 0.906250 0.500000
vt 0.921875 1.000000
vt 0.906250 0.937500
vt 0.921875 0.000000
vt 0.906250 0.437500
vt 0.906250 0.875000
vt 0.906250 0.375000
vt 0.906250 0.812500
vt 0.875000 0.062500
vt 0.875000 0.562500
vt 0.875000 0.500000
vt 0.890625 1.000000
vt 0.875000 0.937500
vt 0.890625 0.000000
vt 0.875000 0.437500
vt 0.875000 0.875000
vt 0.875000 0.375000
vt 0.875000 0.812500
vt 0.875000 0.312500
vt 0.875000 0.750000
vt 0.875000 0.250000
vt 0.875000 0.687500
vt 0.875000 0.187500
vt 0.875000 0.625000
vt 0.875000 0.125000
vt 0.843750 0.750000
vt 0.843750 0.312500
vt 0.843750 0.250000
vt 0.843750 0.687500
vt 0.843750 0.187500
vt 0.843750 0.625000
vt 0.843750 0.125000
vt 0.843750 0.562500
vt 0.843750 0.062500
vt 0.843750 0.500000
vt 0.859375 1.000000
vt 0.843750 0.937500
vt 0.859375 0.000000
vt 0.843750 0.437500
vt 0.843750 0.875000
vt 0.843750 0.375000
vt 0.843750 0.812500
vt 0.812500 0.562500
vt 0.812500 0.500000
vt 0.828125 1.000000
vt 0.812500 0.937500
vt 0.828125 0.000000
vt 0.812500 0.062500
vt 0.812500 0.437500
vt 0.812500 0.875000
vt 0.812500 0.375000
vt 0.812500 0.812500
vt 0.812500 0.312500
vt 0.812500 0.750000
vt 0.812500 0.250000
vt 0.812500 0.687500
vt 0.812500 0.187500
vt 0.812500 0.625000
vt 0.812500 0.125000
vt 0.781250 0.250000
vt 0.781250 0.687500
vt 0.781250 0.187500
vt 0.781250 0.625000
vt 0.781250 0.125000
vt 0.781250 0.562500
vt 0.781250 0.062500
vt 0.781250 0.500000
vt 0.796875 1.000000
vt 0.781250 0.937500
vt 0.796875 0.000000
vt 0.781250 0.437500
vt 0.781250 0.875000
vt 0.781250 0.375000
vt 0.781250 0.812500
vt 0.781250 0.312500
vt 0.781250 0.750000
vt 0.765625 0.000000
vt 0.765625 1.000000
s 1
usemtl skydome
f 1/1/1 326/2/1 11/3/1
f 482/4/2 481/5/2 25/6/2
f 477/7/3 19/8/3 478/9/3
f 1/1/4 12/10/4 2/11/4
f 478/9/5 20/12/5 479/13/5
f 2/11/6 13/14/6 3/15/6
f 479/13/7 21/16/7 8/17/7
f 3/15/8 14/18/8 4/19/8
f 8/17/9 22/20/9 9/21/9
f 4/19/10 15/22/10 5/23/10
f 10/24/11 22/20/11 23/25/11
f 5/23/12 16/26/12 6/27/12
f 10/24/13 24/28/13 480/29/13
f 7/30/14 16/26/14 17/31/14
f 480/29/15 25/6/15 481/5/15
f 477/7/16 17/31/16 18/32/16
f 16/26/17 32/33/17 17/31/17
f 25/6/18 39/34/18 40/35/18
f 18/32/19 32/33/19 33/36/19
f 11/3/20 326/37/20 26/38/20
f 482/39/21 25/6/21 40/35/21
f 18/32/22 34/40/22 19/8/22
f 11/3/23 27/41/23 12/10/23
f 19/8/24 35/42/24 20/12/24
f 13/14/25 27/41/25 28/43/25
f 20/12/26 36/44/26 21/16/26
f 14/18/27 28/43/27 29/45/27
f 21/16/28 37/46/28 22/20/28
f 14/18/29 30/47/29 15/22/29
f 23/25/30 37/46/30 38/48/30
f 15/22/31 31/49/31 16/26/31
f 24/28/32 38/48/32 39/34/32
f 36/44/33 50/50/33 51/51/33
f 28/43/34 44/52/34 29/45/34
f 36/44/35 52/53/35 37/46/35
f 29/45/36 45/54/36 30/47/36
f 37/46/37 53/55/37 38/48/37
f 30/47/38 46/56/38 31/49/38
f 39/34/39 53/55/39 54/57/39
f 32/33/40 46/56/40 47/58/40
f 40/35/41 54/57/41 55/59/41
f 33/36/42 47/58/42 48/60/42
f 26/38/43 326/61/43 41/62/43
f 482/63/44 40/35/44 55/59/44
f 33/36/45 49/64/45 34/40/45
f 26/38/46 42/65/46 27/41/46
f 35/42/47 49/64/47 50/50/47
f 27/41/48 43/66/48 28/43/48
f 54/57/49 70/67/49 55/59/49
f 48/60/50 62/68/50 63/69/50
f 41/62/51 326/70/51 56/71/51
f 482/72/52 55/59/52 70/67/52
f 48/60/53 64/73/53 49/64/53
f 41/62/54 57/74/54 42/65/54
f 50/50/55 64/73/55 65/75/55
f 42/65/56 58/76/56 43/66/56
f 51/51/57 65/75/57 66/77/57
f 43/66/58 59/78/58 44/52/58
f 51/51/59 67/79/59 52/53/59
f 44/52/60 60/80/60 45/54/60
f 52/53/61 68/81/61 53/55/61
f 46/56/62 60/80/62 61/82/62
f 53/55/63 69/83/63 54/57/63
f 46/56/64 62/68/64 47/58/64
f 66/77/65 82/84/65 67/79/65
f 59/78/66 75/85/66 60/80/66
f 68/81/67 82/84/67 83/86/67
f 61/82/68 75/85/68 76/87/68
f 69/83/69 83/86/69 84/88/69
f 62/68/70 76/87/70 77/89/70
f 69/83/71 85/90/71 70/67/71
f 63/69/72 77/89/72 78/91/72
f 56/71/73 326/92/73 71/93/73
f 482/94/74 70/67/74 85/90/74
f 63/69/75 79/95/75 64/73/75
f 56/71/76 72/96/76 57/74/76
f 64/73/77 80/97/77 65/75/77
f 57/74/78 73/98/78 58/76/78
f 65/75/79 81/99/79 66/77/79
f 58/76/80 74/100/80 59/78/80
f 71/93/81 326/101/81 86/102/81
f 482/103/82 85/90/82 100/104/82
f 78/91/83 94/105/83 79/95/84
f 71/93/85 87/106/85 72/96/85
f 80/97/86 94/105/86 95/107/86
f 72/96/87 88/108/87 73/98/88
f 80/97/89 96/109/89 81/99/89
f 73/98/90 89/110/90 74/100/90
f 81/99/91 97/111/91 82/84/91
f 75/85/92 89/110/92 90/112/92
f 82/84/93 98/113/93 83/86/93
f 75/85/94 91/114/94 76/87/94
f 83/86/95 99/115/95 84/88/95
f 77/89/96 91/114/96 92/116/96
f 84/88/97 100/104/97 85/90/97
f 78/91/98 92/116/98 93/117/98
f 90/112/99 104/118/99 105/119/99
f 98/113/100 112/120/100 113/121/100
f 90/112/101 106/122/101 91/114/101
f 98/113/102 114/123/102 99/115/102
f 92/116/103 106/122/103 107/124/103
f 99/115/104 115/125/104 100/104/104
f 93/117/105 107/124/105 108/126/105
f 86/102/106 326/127/106 101/128/106
f 482/129/107 100/104/107 115/125/107
f 93/117/108 109/130/108 94/105/108
f 86/102/109 102/131/109 87/106/109
f 95/107/110 109/130/110 110/132/110
f 87/106/111 103/133/111 88/108/111
f 95/107/112 111/134/112 96/109/112
f 88/108/113 104/118/113 89/110/113
f 96/109/114 112/120/114 97/111/114
f 108/126/115 124/135/115 109/130/115
f 102/131/116 116/136/116 117/137/116
f 110/132/117 124/135/117 125/138/117
f 102/131/118 118/139/118 103/133/118
f 110/132/119 126/140/119 111/134/119
f 103/133/120 119/141/120 104/118/120
f 112/120/121 126/140/121 127/142/121
f 104/118/122 120/143/122 105/119/122
f 113/121/123 127/142/123 128/144/123
f 105/119/124 121/145/124 106/122/124
f 114/123/125 128/144/125 129/146/125
f 106/122/126 122/147/126 107/124/126
f 114/123/127 130/148/127 115/125/127
f 108/126/128 122/147/128 123/149/128
f 101/128/129 326/150/129 116/136/129
f 482/151/130 115/125/130 130/148/130
f 128/144/131 142/152/131 143/153/131
f 120/143/132 136/154/132 121/145/132
f 128/144/133 144/155/133 129/146/133
f 121/145/134 137/156/134 122/147/134
f 129/146/135 145/157/135 130/148/135
f 123/149/136 137/156/136 138/158/136
f 116/136/137 326/159/137 131/160/137
f 482/161/138 130/148/138 145/157/138
f 123/149/139 139/162/139 124/135/139
f 117/137/140 131/160/140 132/163/140
f 124/135/141 140/164/141 125/138/141
f 118/139/142 132/163/142 133/165/142
f 125/138/143 141/166/143 126/140/143
f 118/139/144 134/167/144 119/141/144
f 126/140/145 142/152/145 127/142/145
f 120/143/146 134/167/146 135/168/146
f 131/160/147 147/169/147 132/163/147
f 140/164/148 154/170/148 155/171/148
f 132/163/149 148/172/149 133/165/149
f 140/164/150 156/173/150 141/166/150
f 133/165/151 149/174/151 134/167/151
f 141/166/152 157/175/152 142/152/152
f 135/168/153 149/174/153 150/176/153
f 143/153/154 157/175/154 158/177/154
f 135/168/155 151/178/155 136/154/155
f 143/153/156 159/179/156 144/155/156
f 137/156/157 151/178/157 152/180/157
f 145/157/158 159/179/158 160/181/158
f 138/158/159 152/180/159 153/182/159
f 131/160/160 326/183/160 146/184/160
f 482/185/161 145/157/161 160/181/161
f 138/158/162 154/170/162 139/162/162
f 150/176/163 166/186/163 151/178/163
f 158/177/164 174/187/165 159/179/165
f 152/180/166 166/186/166 167/188/166
f 160/181/167 174/187/167 175/189/167
f 153/182/168 167/188/168 168/190/168
f 146/184/169 326/191/169 161/192/169
f 482/193/170 160/181/170 175/189/170
f 153/182/171 169/194/171 154/170/171
f 146/184/172 162/195/172 147/169/172
f 155/171/173 169/194/173 170/196/173
f 147/169/174 163/197/174 148/172/174
f 155/171/175 171/198/175 156/173/175
f 148/172/176 164/199/176 149/174/176
f 157/175/177 171/198/177 172/200/177
f 149/174/178 165/201/178 150/176/178
f 158/177/179 172/200/179 173/202/179
f 170/196/180 184/203/180 185/204/180
f 162/195/181 178/205/181 163/197/181
f 170/196/182 186/206/182 171/198/182
f 163/197/183 179/207/183 164/199/183
f 172/200/184 186/206/184 187/208/184
f 164/199/185 180/209/185 165/201/185
f 172/200/186 188/210/186 173/202/186
f 165/201/187 181/211/187 166/186/187
f 173/202/188 189/212/188 174/187/188
f 167/188/189 181/211/189 182/213/189
f 174/187/190 190/214/190 175/189/190
f 168/190/191 182/213/191 183/215/191
f 161/192/192 326/216/192 176/217/192
f 482/218/193 175/189/193 190/214/193
f 168/190/194 184/203/194 169/194/194
f 161/192/195 177/219/195 162/195/195
f 189/212/196 203/220/196 204/221/196
f 181/211/197 197/222/197 182/213/197
f 189/212/198 205/223/198 190/214/198
f 183/215/199 197/222/199 198/224/199
f 176/217/200 326/225/200 191/226/200
f 482/227/201 190/214/201 205/223/201
f 183/215/202 199/228/202 184/203/202
f 177/219/203 191/226/204 192/229/203
f 185/204/205 199/228/205 200/230/205
f 177/219/206 193/231/206 178/205/206
f 185/204/207 201/232/207 186/206/207
f 178/205/208 194/233/208 179/207/208
f 186/206/209 202/234/209 187/208/209
f 180/209/210 194/233/210 195/235/210
f 187/208/211 203/220/211 188/210/211
f 180/209/212 196/236/212 181/211/212
f 200/230/213 216/237/213 201/232/213
f 193/231/214 209/238/214 194/233/214
f 201/232/215 217/239/215 202/234/215
f 195/235/216 209/238/216 210/240/216
f 203/220/217 217/239/217 218/241/217
f 195/235/218 211/242/218 196/236/218
f 203/220/219 219/243/220 204/221/220
f 197/222/221 211/242/221 212/244/221
f 204/221/222 220/245/222 205/223/222
f 198/224/223 212/244/223 213/246/223
f 191/226/224 326/247/224 206/248/224
f 482/249/225 205/223/225 220/245/225
f 198/224/226 214/250/226 199/228/226
f 191/226/227 207/251/227 192/229/227
f 199/228/228 215/252/228 200/230/228
f 192/229/229 208/253/229 193/231/229
f 219/243/230 235/254/230 220/245/230
f 213/246/231 227/255/231 228/256/231
f 206/248/232 326/257/232 221/258/232
f 482/259/233 220/245/233 235/254/233
f 213/246/234 229/260/234 214/250/234
f 206/248/235 222/261/235 207/251/235
f 214/250/236 230/262/236 215/252/236
f 208/253/237 222/261/237 223/263/237
f 215/252/238 231/264/238 216/237/238
f 208/253/239 224/265/239 209/238/239
f 216/237/240 232/266/240 217/239/240
f 209/238/241 225/267/241 210/240/241
f 218/241/242 232/266/242 233/268/242
f 211/242/243 225/267/243 226/269/243
f 218/241/244 234/270/244 219/243/244
f 212/244/245 226/269/245 227/255/245
f 223/263/246 239/271/246 224/265/246
f 231/264/247 247/272/247 232/266/247
f 225/267/248 239/271/248 240/273/248
f 233/268/249 247/272/249 248/274/249
f 225/267/250 241/275/250 226/269/250
f 234/270/251 248/274/251 249/276/251
f 227/255/252 241/275/252 242/277/252
f 235/254/253 249/276/253 250/278/253
f 228/256/254 242/277/254 243/279/254
f 221/258/255 326/280/255 236/281/255
f 482/282/256 235/254/256 250/278/256
f 228/256/257 244/283/257 229/260/258
f 221/258/259 237/284/259 222/261/259
f 230/262/260 244/283/260 245/285/260
f 222/261/261 238/286/261 223/263/261
f 230/262/262 246/287/262 231/264/262
f 243/279/263 257/288/263 258/289/263
f 236/281/264 326/290/264 251/291/264
f 482/292/265 250/278/265 265/293/265
f 243/279/266 259/294/266 244/283/266
f 237/284/267 251/291/267 252/295/267
f 244/283/268 260/296/268 245/285/268
f 237/284/269 253/297/269 238/286/269
f 245/285/270 261/298/270 246/287/270
f 238/286/271 254/299/271 239/271/271
f 246/287/272 262/300/272 247/272/272
f 240/273/273 254/299/273 255/301/273
f 248/274/274 262/300/274 263/302/274
f 240/273/275 256/303/275 241/275/275
f 248/274/276 264/304/276 249/276/276
f 242/277/277 256/303/277 257/288/277
f 249/276/278 265/293/278 250/278/278
f 261/298/279 277/305/279 262/300/279
f 255/301/280 269/306/280 270/307/280
f 263/302/281 277/305/281 278/308/281
f 255/301/282 271/309/282 256/303/282
f 263/302/283 279/310/283 264/304/283
f 257/288/284 271/309/284 272/311/284
f 265/293/285 279/310/285 280/312/285
f 258/289/286 272/311/286 273/313/286
f 251/291/287 326/314/287 266/315/287
f 482/316/288 265/293/288 280/312/288
f 258/289/289 274/317/289 259/294/289
f 251/291/290 267/318/290 252/295/290
f 260/296/291 274/317/291 275/319/291
f 252/295/292 268/320/292 253/297/292
f 260/296/293 276/321/293 261/298/293
f 253/297/294 269/306/294 254/299/294
f 266/315/295 326/322/295 281/323/295
f 482/324/296 280/312/296 295/325/296
f 273/313/297 289/326/297 274/317/297
f 267/318/298 281/323/298 282/327/298
f 274/317/299 290/328/299 275/319/299
f 267/318/300 283/329/301 268/320/301
f 275/319/302 291/330/302 276/321/302
f 268/320/303 284/331/303 269/306/303
f 276/321/304 292/332/304 277/305/304
f 270/307/305 284/331/305 285/333/305
f 278/308/306 292/332/306 293/334/306
f 270/307/307 286/335/307 271/309/307
f 278/308/308 294/336/308 279/310/308
f 272/311/309 286/335/309 287/337/309
f 279/310/310 295/325/310 280/312/310
f 273/313/311 287/337/311 288/338/311
f 284/331/312 300/339/312 285/333/312
f 293/334/313 307/340/313 308/341/313
f 285/333/314 301/342/314 286/335/314
f 294/336/315 308/341/315 309/343/315
f 287/337/316 301/342/316 302/344/316
f 295/325/317 309/343/317 310/345/317
f 288/338/318 302/344/318 303/346/318
f 281/323/319 326/347/319 296/348/319
f 482/349/320 295/325/320 310/345/320
f 288/338/321 304/350/321 289/326/321
f 281/323/322 297/351/322 282/327/322
f 290/328/323 304/350/323 305/352/323
f 282/327/324 298/353/324 283/329/324
f 290/328/325 306/354/325 291/330/325
f 283/329/326 299/355/326 284/331/326
f 291/330/327 307/340/327 292/332/327
f 303/346/328 319/356/328 304/350/328
f 297/351/329 311/357/329 312/358/329
f 305/352/330 319/356/330 320/359/330
f 297/351/331 313/360/331 298/353/331
f 305/352/332 321/361/332 306/354/332
f 298/353/333 314/362/333 299/355/333
f 306/354/334 322/363/334 307/340/334
f 299/355/335 315/364/335 300/339/335
f 308/341/336 322/363/336 323/365/336
f 301/342/337 315/364/337 316/366/337
f 308/341/338 324/367/338 309/343/338
f 302/344/339 316/366/339 317/368/339
f 309/343/340 325/369/340 310/345/340
f 303/346/341 317/368/341 318/370/341
f 296/348/342 326/371/342 311/357/342
f 482/372/343 310/345/343 325/369/343
f 323/365/344 338/373/344 339/374/344
f 316/366/345 331/375/345 332/376/345
f 324/367/346 339/374/347 340/377/346
f 317/368/348 332/376/348 333/378/348
f 325/369/349 340/377/349 341/379/349
f 318/370/350 333/378/350 334/380/350
f 311/357/351 326/381/351 327/382/351
f 482/383/352 325/369/352 341/379/352
f 318/370/353 335/384/353 319/356/353
f 311/357/354 328/385/354 312/358/354
f 320/359/355 335/384/355 336/386/355
f 312/358/356 329/387/357 313/360/357
f 320/359/358 337/388/358 321/361/358
f 313/360/359 330/389/359 314/362/359
f 321/361/360 338/373/360 322/363/360
f 315/364/361 330/389/361 331/375/361
f 336/386/362 350/390/362 351/391/362
f 329/387/363 343/392/363 344/393/363
f 336/386/364 352/394/364 337/388/364
f 330/389/365 344/393/365 345/395/365
f 337/388/366 353/396/366 338/373/366
f 331/375/367 345/395/367 346/397/367
f 338/373/368 354/398/368 339/374/368
f 331/375/369 347/399/369 332/376/369
f 339/374/370 355/400/370 340/377/370
f 333/378/371 347/399/371 348/401/371
f 341/379/372 355/400/372 356/402/372
f 334/380/373 348/401/373 349/403/373
f 327/382/374 326/404/374 342/405/374
f 482/406/375 341/379/375 356/402/375
f 334/380/376 350/390/376 335/384/376
f 327/382/377 343/392/377 328/385/377
f 354/398/378 370/407/378 355/400/378
f 348/401/379 362/408/379 363/409/379
f 355/400/380 371/410/380 356/402/380
f 349/403/381 363/409/381 364/411/381
f 342/405/382 326/412/382 357/413/382
f 482/414/383 356/402/383 371/410/383
f 349/403/384 365/415/384 350/390/385
f 342/405/386 358/416/386 343/392/386
f 350/390/387 366/417/387 351/391/387
f 343/392/388 359/418/388 344/393/388
f 351/391/389 367/419/389 352/394/389
f 344/393/390 360/420/390 345/395/390
f 353/396/391 367/419/391 368/421/391
f 346/397/392 360/420/392 361/422/392
f 354/398/393 368/421/393 369/423/393
f 347/399/394 361/422/394 362/408/394
f 358/424/395 374/425/395 359/426/395
f 366/427/396 382/428/396 367/429/396
f 359/426/397 375/430/397 360/431/397
f 367/429/398 383/432/398 368/433/398
f 360/431/399 376/434/399 361/435/399
f 369/436/400 383/432/400 384/437/400
f 361/435/401 377/438/401 362/439/401
f 369/436/402 385/440/402 370/441/402
f 362/439/403 378/442/403 363/443/403
f 370/441/404 386/444/404 371/445/404
f 364/446/405 378/442/405 379/447/405
f 357/448/406 326/449/406 372/450/406
f 482/451/407 371/445/407 386/444/407
f 364/446/408 380/452/408 365/453/409
f 357/448/410 373/454/410 358/424/410
f 365/453/411 381/455/411 366/427/411
f 378/442/412 392/456/412 393/457/412
f 385/440/413 401/458/413 386/444/413
f 379/447/414 393/457/414 394/459/414
f 372/450/415 326/460/415 387/461/415
f 482/462/416 386/444/416 401/458/416
f 379/447/417 395/463/417 380/452/417
f 372/450/418 388/464/418 373/454/418
f 381/455/419 395/463/419 396/465/419
f 373/454/420 389/466/420 374/425/420
f 381/455/421 397/467/421 382/428/421
f 374/425/422 390/468/422 375/430/422
f 382/428/423 398/469/423 383/432/423
f 376/434/424 390/468/424 391/470/424
f 384/437/425 398/469/425 399/471/425
f 376/434/426 392/456/426 377/438/426
f 384/437/427 400/472/427 385/440/427
f 396/465/428 412/473/428 397/467/428
f 389/466/429 405/474/429 390/468/429
f 398/469/430 412/473/430 413/475/430
f 390/468/431 406/476/431 391/470/431
f 399/471/432 413/475/432 414/477/432
f 392/456/433 406/476/433 407/478/433
f 400/472/434 414/477/435 415/479/434
f 393/457/436 407/478/436 408/480/436
f 400/472/437 416/481/437 401/458/437
f 394/459/438 408/480/438 409/482/438
f 387/461/439 326/483/439 402/484/439
f 482/485/440 401/458/440 416/481/440
f 394/459/441 410/486/441 395/463/441
f 387/461/442 403/487/442 388/464/442
f 396/465/443 410/486/443 411/488/443
f 388/464/444 404/489/445 389/466/445
f 415/479/446 431/490/446 416/481/446
f 409/482/447 423/491/447 424/492/447
f 402/484/448 326/493/448 417/494/448
f 482/495/449 416/481/449 431/490/449
f 409/482/450 425/496/450 410/486/450
f 403/487/451 417/494/451 418/497/451
f 410/486/452 426/498/452 411/488/452
f 404/489/453 418/497/453 419/499/453
f 411/488/454 427/500/454 412/473/454
f 404/489/455 420/501/455 405/474/455
f 412/473/456 428/502/456 413/475/456
f 406/476/457 420/501/457 421/503/457
f 414/477/458 428/502/458 429/504/458
f 407/478/459 421/503/459 422/505/459
f 414/477/460 430/506/460 415/479/460
f 408/480/461 422/505/461 423/491/461
f 419/499/462 435/507/462 420/501/462
f 428/502/463 442/508/463 443/509/463
f 420/501/464 436/510/464 421/503/464
f 429/504/465 443/509/465 444/511/465
f 422/505/466 436/510/466 437/512/466
f 429/504/467 445/513/467 430/506/467
f 423/491/468 437/512/468 438/514/468
f 430/506/469 446/515/469 431/490/470
f 424/492/471 438/514/471 439/516/471
f 417/494/472 326/517/472 432/518/472
f 482/519/473 431/490/473 446/515/473
f 424/492/474 440/520/474 425/496/474
f 417/494/475 433/521/475 418/497/475
f 425/496/476 441/522/476 426/498/476
f 418/497/477 434/523/477 419/499/477
f 426/498/478 442/508/478 427/500/478
f 439/516/479 453/524/479 454/525/479
f 432/518/480 326/526/480 447/527/480
f 482/528/481 446/515/481 461/529/481
f 439/516/482 455/530/482 440/520/482
f 432/518/483 448/531/483 433/521/483
f 440/520/484 456/532/484 441/522/484
f 434/523/485 448/531/485 449/533/485
f 441/522/486 457/534/486 442/508/486
f 434/523/487 450/535/487 435/507/487
f 442/508/488 458/536/488 443/509/488
f 435/507/489 451/537/489 436/510/489
f 444/511/490 458/536/490 459/538/490
f 436/510/491 452/539/491 437/512/491
f 444/511/492 460/540/492 445/513/492
f 438/514/493 452/539/493 453/524/493
f 445/513/494 461/529/494 446/515/494
f 457/534/495 473/541/495 458/536/495
f 450/535/496 466/542/496 451/537/496
f 459/538/497 473/541/497 474/543/497
f 452/539/498 466/542/498 467/544/498
f 459/538/499 475/545/499 460/540/499
f 453/524/500 467/544/500 468/546/500
f 461/529/501 475/545/501 476/547/501
f 454/525/502 468/546/502 469/548/502
f 447/527/503 326/549/503 462/550/503
f 482/551/504 461/529/504 476/547/504
f 454/525/505 470/552/505 455/530/505
f 448/531/506 462/550/506 463/553/506
f 455/530/507 471/554/507 456/532/507
f 448/531/508 464/555/508 449/533/508
f 456/532/509 472/556/509 457/534/509
f 449/533/510 465/557/510 450/535/510
f 482/558/511 476/547/511 481/5/511
f 469/548/512 478/9/512 470/552/512
f 463/553/513 1/1/513 2/11/513
f 471/554/514 478/9/514 479/13/514
f 464/555/515 2/11/515 3/15/515
f 471/554/516 8/17/516 472/556/516
f 465/557/517 3/15/517 4/19/517
f 472/556/518 9/21/518 473/541/518
f 466/542/519 4/19/519 5/23/519
f 473/541/520 10/24/520 474/543/520
f 467/544/521 5/23/521 6/27/521
f 474/543/522 480/29/522 475/545/522
f 468/546/523 6/27/523 7/30/523
f 476/547/524 480/29/524 481/5/524
f 469/548/525 7/30/525 477/7/526
f 462/550/527 326/559/527 1/1/527
f 477/7/3 18/32/3 19/8/3
f 1/1/4 11/3/4 12/10/4
f 478/9/5 19/8/5 20/12/5
f 2/11/6 12/10/6 13/14/6
f 479/13/7 20/12/7 21/16/7
f 3/15/8 13/14/8 14/18/8
f 8/17/9 21/16/9 22/20/9
f 4/19/10 14/18/10 15/22/10
f 10/24/11 9/21/11 22/20/11
f 5/23/12 15/22/12 16/26/12
f 10/24/13 23/25/13 24/28/13
f 7/30/14 6/27/14 16/26/14
f 480/29/15 24/28/15 25/6/15
f 477/7/16 7/30/16 17/31/16
f 16/26/17 31/49/17 32/33/17
f 25/6/18 24/28/18 39/34/18
f 18/32/19 17/31/19 32/33/19
f 18/32/22 33/36/22 34/40/22
f 11/3/23 26/38/23 27/41/23
f 19/8/24 34/40/24 35/42/24
f 13/14/25 12/10/25 27/41/25
f 20/12/26 35/42/26 36/44/26
f 14/18/27 13/14/27 28/43/27
f 21/16/28 36/44/28 37/46/28
f 14/18/29 29/45/29 30/47/29
f 23/25/30 22/20/30 37/46/30
f 15/22/31 30/47/31 31/49/31
f 24/28/32 23/25/32 38/48/32
f 36/44/33 35/42/33 50/50/33
f 28/43/34 43/66/34 44/52/34
f 36/44/35 51/51/35 52/53/35
f 29/45/36 44/52/36 45/54/36
f 37/46/37 52/53/37 53/55/37
f 30/47/38 45/54/38 46/56/38
f 39/34/39 38/48/39 53/55/39
f 32/33/40 31/49/40 46/56/40
f 40/35/41 39/34/41 54/57/41
f 33/36/42 32/33/42 47/58/42
f 33/36/45 48/60/45 49/64/45
f 26/38/46 41/62/46 42/65/46
f 35/42/47 34/40/47 49/64/47
f 27/41/48 42/65/48 43/66/48
f 54/57/49 69/83/49 70/67/49
f 48/60/50 47/58/50 62/68/50
f 48/60/53 63/69/53 64/73/53
f 41/62/54 56/71/54 57/74/54
f 50/50/55 49/64/55 64/73/55
f 42/65/56 57/74/56 58/76/56
f 51/51/57 50/50/57 65/75/57
f 43/66/58 58/76/58 59/78/58
f 51/51/59 66/77/59 67/79/59
f 44/52/60 59/78/60 60/80/60
f 52/53/61 67/79/61 68/81/61
f 46/56/62 45/54/62 60/80/62
f 53/55/63 68/81/63 69/83/63
f 46/56/64 61/82/64 62/68/64
f 66/77/65 81/99/65 82/84/65
f 59/78/66 74/100/66 75/85/66
f 68/81/67 67/79/67 82/84/67
f 61/82/68 60/80/68 75/85/68
f 69/83/69 68/81/69 83/86/69
f 62/68/70 61/82/70 76/87/70
f 69/83/71 84/88/71 85/90/71
f 63/69/72 62/68/72 77/89/72
f 63/69/75 78/91/75 79/95/75
f 56/71/76 71/93/76 72/96/76
f 64/73/77 79/95/77 80/97/77
f 57/74/78 72/96/78 73/98/78
f 65/75/79 80/97/79 81/99/79
f 58/76/80 73/98/80 74/100/80
f 78/91/83 93/117/83 94/105/83
f 71/93/85 86/102/85 87/106/85
f 80/97/86 79/95/86 94/105/86
f 72/96/87 87/106/87 88/108/87
f 80/97/89 95/107/89 96/109/89
f 73/98/90 88/108/90 89/110/90
f 81/99/91 96/109/91 97/111/91
f 75/85/92 74/100/92 89/110/92
f 82/84/93 97/111/93 98/113/93
f 75/85/94 90/112/94 91/114/94
f 83/86/95 98/113/95 99/115/95
f 77/89/96 76/87/96 91/114/96
f 84/88/97 99/115/97 100/104/97
f 78/91/98 77/89/528 92/116/98
f 90/112/99 89/110/99 104/118/99
f 98/113/100 97/111/100 112/120/100
f 90/112/101 105/119/101 106/122/101
f 98/113/102 113/121/102 114/123/102
f 92/116/103 91/114/103 106/122/103
f 99/115/104 114/123/104 115/125/104
f 93/117/105 92/116/105 107/124/105
f 93/117/108 108/126/108 109/130/108
f 86/102/109 101/128/109 102/131/109
f 95/107/110 94/105/110 109/130/110
f 87/106/111 102/131/111 103/133/111
f 95/107/112 110/132/112 111/134/112
f 88/108/113 103/133/113 104/118/113
f 96/109/114 111/134/114 112/120/114
f 108/126/115 123/149/115 124/135/115
f 102/131/116 101/128/116 116/136/116
f 110/132/117 109/130/117 124/135/117
f 102/131/118 117/137/118 118/139/118
f 110/132/119 125/138/119 126/140/119
f 103/133/120 118/139/120 119/141/120
f 112/120/121 111/134/121 126/140/121
f 104/118/122 119/141/122 120/143/122
f 113/121/123 112/120/123 127/142/123
f 105/119/124 120/143/124 121/145/124
f 114/123/125 113/121/125 128/144/125
f 106/122/126 121/145/126 122/147/126
f 114/123/127 129/146/127 130/148/127
f 108/126/128 107/124/128 122/147/128
f 128/144/131 127/142/131 142/152/131
f 120/143/132 135/168/132 136/154/132
f 128/144/133 143/153/133 144/155/133
f 121/145/134 136/154/134 137/156/134
f 129/146/135 144/155/135 145/157/135
f 123/149/136 122/147/136 137/156/136
f 123/149/139 138/158/139 139/162/139
f 117/137/140 116/136/140 131/160/140
f 124/135/141 139/162/141 140/164/141
f 118/139/142 117/137/142 132/163/142
f 125/138/143 140/164/143 141/166/143
f 118/139/144 133/165/144 134/167/144
f 126/140/145 141/166/145 142/152/145
f 120/143/146 119/141/146 134/167/146
f 131/160/147 146/184/147 147/169/147
f 140/164/148 139/162/148 154/170/148
f 132/163/149 147/169/149 148/172/149
f 140/164/150 155/171/150 156/173/150
f 133/165/151 148/172/151 149/174/151
f 141/166/152 156/173/152 157/175/152
f 135/168/153 134/167/153 149/174/153
f 143/153/154 142/152/154 157/175/154
f 135/168/155 150/176/155 151/178/155
f 143/153/156 158/177/156 159/179/156
f 137/156/157 136/154/157 151/178/157
f 145/157/158 144/155/158 159/179/158
f 138/158/159 137/156/159 152/180/159
f 138/158/162 153/182/162 154/170/162
f 150/176/163 165/201/163 166/186/163
f 158/177/164 173/202/164 174/187/165
f 152/180/166 151/178/166 166/186/166
f 160/181/167 159/179/167 174/187/167
f 153/182/168 152/180/168 167/188/168
f 153/182/171 168/190/171 169/194/171
f 146/184/172 161/192/172 162/195/172
f 155/171/173 154/170/173 169/194/173
f 147/169/174 162/195/174 163/197/174
f 155/171/175 170/196/175 171/198/175
f 148/172/176 163/197/176 164/199/176
f 157/175/177 156/173/177 171/198/177
f 149/174/178 164/199/178 165/201/178
f 158/177/179 157/175/179 172/200/179
f 170/196/180 169/194/180 184/203/180
f 162/195/181 177/219/181 178/205/181
f 170/196/182 185/204/182 186/206/182
f 163/197/183 178/205/183 179/207/183
f 172/200/184 171/198/184 186/206/184
f 164/199/185 179/207/185 180/209/185
f 172/200/186 187/208/186 188/210/186
f 165/201/187 180/209/187 181/211/187
f 173/202/188 188/210/188 189/212/188
f 167/188/189 166/186/189 181/211/189
f 174/187/190 189/212/190 190/214/190
f 168/190/191 167/188/191 182/213/191
f 168/190/194 183/215/194 184/203/194
f 161/192/195 176/217/195 177/219/195
f 189/212/196 188/210/196 203/220/196
f 181/211/197 196/236/197 197/222/197
f 189/212/198 204/221/198 205/223/198
f 183/215/199 182/213/199 197/222/199
f 183/215/202 198/224/202 199/228/202
f 177/219/203 176/217/204 191/226/204
f 185/204/205 184/203/205 199/228/205
f 177/219/206 192/229/206 193/231/206
f 185/204/207 200/230/207 201/232/207
f 178/205/208 193/231/208 194/233/208
f 186/206/209 201/232/209 202/234/209
f 180/209/210 179/207/210 194/233/210
f 187/208/211 202/234/211 203/220/211
f 180/209/212 195/235/212 196/236/212
f 200/230/213 215/252/213 216/237/213
f 193/231/214 208/253/214 209/238/214
f 201/232/215 216/237/215 217/239/215
f 195/235/216 194/233/216 209/238/216
f 203/220/217 202/234/217 217/239/217
f 195/235/218 210/240/218 211/242/218
f 203/220/219 218/241/219 219/243/220
f 197/222/221 196/236/221 211/242/221
f 204/221/222 219/243/222 220/245/222
f 198/224/223 197/222/223 212/244/223
f 198/224/226 213/246/226 214/250/226
f 191/226/227 206/248/227 207/251/227
f 199/228/228 214/250/228 215/252/228
f 192/229/229 207/251/229 208/253/229
f 219/243/230 234/270/230 235/254/230
f 213/246/231 212/244/231 227/255/231
f 213/246/234 228/256/234 229/260/234
f 206/248/235 221/258/235 222/261/235
f 214/250/236 229/260/236 230/262/236
f 208/253/237 207/251/237 222/261/237
f 215/252/238 230/262/238 231/264/238
f 208/253/239 223/263/239 224/265/239
f 216/237/240 231/264/240 232/266/240
f 209/238/241 224/265/241 225/267/241
f 218/241/242 217/239/242 232/266/242
f 211/242/243 210/240/243 225/267/243
f 218/241/244 233/268/244 234/270/244
f 212/244/245 211/242/245 226/269/245
f 223/263/246 238/286/246 239/271/246
f 231/264/247 246/287/247 247/272/247
f 225/267/248 224/265/248 239/271/248
f 233/268/249 232/266/249 247/272/249
f 225/267/250 240/273/250 241/275/250
f 234/270/251 233/268/251 248/274/251
f 227/255/252 226/269/252 241/275/252
f 235/254/253 234/270/253 249/276/253
f 228/256/254 227/255/529 242/277/254
f 228/256/257 243/279/257 244/283/257
f 221/258/259 236/281/259 237/284/259
f 230/262/260 229/260/260 244/283/260
f 222/261/261 237/284/261 238/286/261
f 230/262/262 245/285/262 246/287/262
f 243/279/263 242/277/263 257/288/263
f 243/279/266 258/289/530 259/294/266
f 237/284/267 236/281/267 251/291/267
f 244/283/268 259/294/268 260/296/268
f 237/284/269 252/295/269 253/297/269
f 245/285/270 260/296/270 261/298/270
f 238/286/271 253/297/271 254/299/271
f 246/287/272 261/298/272 262/300/272
f 240/273/273 239/271/273 254/299/273
f 248/274/274 247/272/274 262/300/274
f 240/273/275 255/301/275 256/303/275
f 248/274/276 263/302/276 264/304/276
f 242/277/277 241/275/277 256/303/277
f 249/276/278 264/304/278 265/293/278
f 261/298/279 276/321/279 277/305/279
f 255/301/280 254/299/280 269/306/280
f 263/302/281 262/300/281 277/305/281
f 255/301/282 270/307/282 271/309/282
f 263/302/283 278/308/283 279/310/283
f 257/288/284 256/303/284 271/309/284
f 265/293/285 264/304/285 279/310/285
f 258/289/286 257/288/286 272/311/286
f 258/289/289 273/313/289 274/317/289
f 251/291/290 266/315/290 267/318/290
f 260/296/291 259/294/291 274/317/291
f 252/295/292 267/318/292 268/320/292
f 260/296/293 275/319/293 276/321/293
f 253/297/294 268/320/294 269/306/294
f 273/313/297 288/338/297 289/326/297
f 267/318/298 266/315/298 281/323/298
f 274/317/299 289/326/299 290/328/299
f 267/318/300 282/327/300 283/329/301
f 275/319/302 290/328/302 291/330/302
f 268/320/303 283/329/303 284/331/303
f 276/321/304 291/330/304 292/332/304
f 270/307/305 269/306/305 284/331/305
f 278/308/306 277/305/306 292/332/306
f 270/307/307 285/333/307 286/335/307
f 278/308/308 293/334/308 294/336/308
f 272/311/309 271/309/309 286/335/309
f 279/310/310 294/336/310 295/325/310
f 273/313/311 272/311/311 287/337/311
f 284/331/312 299/355/312 300/339/312
f 293/334/313 292/332/313 307/340/313
f 285/333/314 300/339/314 301/342/314
f 294/336/315 293/334/315 308/341/315
f 287/337/316 286/335/316 301/342/316
f 295/325/317 294/336/317 309/343/317
f 288/338/318 287/337/318 302/344/318
f 288/338/321 303/346/321 304/350/321
f 281/323/322 296/348/322 297/351/322
f 290/328/323 289/326/323 304/350/323
f 282/327/324 297/351/324 298/353/324
f 290/328/325 305/352/325 306/354/325
f 283/329/326 298/353/326 299/355/326
f 291/330/327 306/354/327 307/340/327
f 303/346/328 318/370/328 319/356/328
f 297/351/329 296/348/329 311/357/329
f 305/352/330 304/350/330 319/356/330
f 297/351/331 312/358/331 313/360/331
f 305/352/332 320/359/332 321/361/332
f 298/353/333 313/360/333 314/362/333
f 306/354/334 321/361/334 322/363/334
f 299/355/335 314/362/335 315/364/335
f 308/341/336 307/340/336 322/363/336
f 301/342/337 300/339/337 315/364/337
f 308/341/338 323/365/338 324/367/338
f 302/344/339 301/342/339 316/366/339
f 309/343/340 324/367/340 325/369/340
f 303/346/341 302/344/341 317/368/341
f 323/365/344 322/363/344 338/373/344
f 316/366/345 315/364/345 331/375/345
f 324/367/346 323/365/347 339/374/347
f 317/368/348 316/366/348 332/376/348
f 325/369/349 324/367/349 340/377/349
f 318/370/350 317/368/350 333/378/350
f 318/370/353 334/380/353 335/384/353
f 311/357/354 327/382/354 328/385/354
f 320/359/355 319/356/355 335/384/355
f 312/358/356 328/385/356 329/387/357
f 320/359/358 336/386/358 337/388/358
f 313/360/359 329/387/359 330/389/359
f 321/361/360 337/388/360 338/373/360
f 315/364/361 314/362/361 330/389/361
f 336/386/362 335/384/362 350/390/362
f 329/387/363 328/385/363 343/392/363
f 336/386/364 351/391/364 352/394/364
f 330/389/365 329/387/365 344/393/365
f 337/388/366 352/394/366 353/396/366
f 331/375/367 330/389/367 345/395/367
f 338/373/368 353/396/368 354/398/368
f 331/375/369 346/397/369 347/399/369
f 339/374/370 354/398/370 355/400/370
f 333/378/371 332/376/371 347/399/371
f 341/379/372 340/377/372 355/400/372
f 334/380/373 333/378/373 348/401/373
f 334/380/376 349/403/376 350/390/376
f 327/382/377 342/405/377 343/392/377
f 354/398/378 369/423/378 370/407/378
f 348/401/379 347/399/379 362/408/379
f 355/400/380 370/407/380 371/410/380
f 349/403/381 348/401/531 363/409/381
f 349/403/384 364/411/384 365/415/384
f 342/405/386 357/413/386 358/416/386
f 350/390/387 365/415/387 366/417/387
f 343/392/388 358/416/388 359/418/388
f 351/391/389 366/417/389 367/419/389
f 344/393/390 359/418/390 360/420/390
f 353/396/391 352/394/391 367/419/391
f 346/397/392 345/395/392 360/420/392
f 354/398/393 353/396/393 368/421/393
f 347/399/394 346/397/394 361/422/394
f 358/424/395 373/454/395 374/425/395
f 366/427/396 381/455/396 382/428/396
f 359/426/397 374/425/397 375/430/397
f 367/429/398 382/428/398 383/432/398
f 360/431/399 375/430/399 376/434/399
f 369/436/400 368/433/400 383/432/400
f 361/435/401 376/434/401 377/438/401
f 369/436/402 384/437/402 385/440/402
f 362/439/403 377/438/403 378/442/403
f 370/441/404 385/440/404 386/444/404
f 364/446/405 363/443/532 378/442/405
f 364/446/408 379/447/408 380/452/408
f 357/448/410 372/450/410 373/454/410
f 365/453/411 380/452/411 381/455/411
f 378/442/412 377/438/412 392/456/412
f 385/440/413 400/472/413 401/458/413
f 379/447/414 378/442/414 393/457/414
f 379/447/417 394/459/417 395/463/417
f 372/450/418 387/461/418 388/464/418
f 381/455/419 380/452/419 395/463/419
f 373/454/420 388/464/420 389/466/420
f 381/455/421 396/465/421 397/467/421
f 374/425/422 389/466/422 390/468/422
f 382/428/423 397/467/423 398/469/423
f 376/434/424 375/430/424 390/468/424
f 384/437/425 383/432/425 398/469/425
f 376/434/426 391/470/426 392/456/426
f 384/437/427 399/471/427 400/472/427
f 396/465/428 411/488/428 412/473/428
f 389/466/429 404/489/429 405/474/429
f 398/469/430 397/467/430 412/473/430
f 390/468/431 405/474/431 406/476/431
f 399/471/432 398/469/432 413/475/432
f 392/456/433 391/470/433 406/476/433
f 400/472/434 399/471/435 414/477/435
f 393/457/436 392/456/436 407/478/436
f 400/472/437 415/479/437 416/481/437
f 394/459/438 393/457/438 408/480/438
f 394/459/441 409/482/441 410/486/441
f 387/461/442 402/484/442 403/487/442
f 396/465/443 395/463/443 410/486/443
f 388/464/444 403/487/444 404/489/445
f 415/479/446 430/506/446 431/490/446
f 409/482/447 408/480/447 423/491/447
f 409/482/450 424/492/450 425/496/450
f 403/487/451 402/484/451 417/494/451
f 410/486/452 425/496/452 426/498/452
f 404/489/453 403/487/453 418/497/453
f 411/488/454 426/498/454 427/500/454
f 404/489/455 419/499/455 420/501/455
f 412/473/456 427/500/456 428/502/456
f 406/476/457 405/474/457 420/501/457
f 414/477/458 413/475/458 428/502/458
f 407/478/459 406/476/459 421/503/459
f 414/477/460 429/504/460 430/506/460
f 408/480/461 407/478/461 422/505/461
f 419/499/462 434/523/462 435/507/462
f 428/502/463 427/500/463 442/508/463
f 420/501/464 435/507/464 436/510/464
f 429/504/465 428/502/465 443/509/465
f 422/505/466 421/503/466 436/510/466
f 429/504/467 444/511/467 445/513/467
f 423/491/468 422/505/468 437/512/468
f 430/506/469 445/513/469 446/515/469
f 424/492/471 423/491/471 438/514/471
f 424/492/474 439/516/474 440/520/474
f 417/494/475 432/518/475 433/521/475
f 425/496/476 440/520/476 441/522/476
f 418/497/477 433/521/477 434/523/477
f 426/498/478 441/522/478 442/508/478
f 439/516/479 438/514/479 453/524/479
f 439/516/482 454/525/482 455/530/482
f 432/518/483 447/527/483 448/531/483
f 440/520/484 455/530/484 456/532/484
f 434/523/485 433/521/533 448/531/485
f 441/522/486 456/532/486 457/534/486
f 434/523/487 449/533/487 450/535/487
f 442/508/488 457/534/488 458/536/488
f 435/507/489 450/535/489 451/537/489
f 444/511/490 443/509/490 458/536/490
f 436/510/491 451/537/491 452/539/491
f 444/511/492 459/538/492 460/540/492
f 438/514/493 437/512/493 452/539/493
f 445/513/494 460/540/494 461/529/494
f 457/534/495 472/556/495 473/541/495
f 450/535/496 465/557/496 466/542/496
f 459/538/497 458/536/497 473/541/497
f 452/539/498 451/537/498 466/542/498
f 459/538/499 474/543/499 475/545/499
f 453/524/500 452/539/500 467/544/500
f 461/529/501 460/540/501 475/545/501
f 454/525/502 453/524/502 468/546/502
f 454/525/505 469/548/505 470/552/505
f 448/531/506 447/527/506 462/550/506
f 455/530/507 470/552/507 471/554/507
f 448/531/508 463/553/508 464/555/508
f 456/532/509 471/554/509 472/556/509
f 449/533/510 464/555/510 465/557/510
f 469/548/512 477/7/512 478/9/512
f 463/553/513 462/550/513 1/1/513
f 471/554/514 470/552/514 478/9/514
f 464/555/515 463/553/515 2/11/515
f 471/554/516 479/13/516 8/17/516
f 465/557/517 464/555/517 3/15/517
f 472/556/518 8/17/518 9/21/518
f 466/542/519 465/557/519 4/19/519
f 473/541/520 9/21/520 10/24/520
f 467/544/521 466/542/521 5/23/521
f 474/543/522 10/24/522 480/29/522
f 468/546/523 467/544/523 6/27/523
f 476/547/524 475/545/524 480/29/524
f 469/548/525 468/546/525 7/30/525
