# Blender 4.4.1
# www.blender.org
mtllib leftShin.mtl
o leftShin
v -0.161150 -1.511796 -0.365640
v 0.157748 -1.511796 -0.365640
v 0.235817 -1.511795 0.344216
v -0.239219 -1.511795 0.637315
v -0.227046 -1.416329 0.864879
v -0.227046 -1.511795 0.864879
v 0.223645 -1.511795 0.765107
v 0.223645 -1.416329 0.765107
v 0.235817 -1.511795 0.148378
v 0.235817 -1.511796 -0.243297
v -0.239219 -1.511796 -0.243297
v -0.206822 -1.460592 0.148378
v 0.172430 0.551459 -0.395790
v 0.172430 0.551459 0.200978
v -0.175832 0.551459 0.200978
v -0.175832 0.551459 -0.395790
v -0.355038 0.551459 -0.136796
v -0.355038 0.551459 0.057020
v 0.351636 0.551459 0.057020
v 0.351636 0.551459 -0.136796
v 0.170575 1.020375 -0.334318
v 0.172992 1.106222 -0.330920
v -0.173976 1.020442 -0.334309
v -0.176388 1.106189 -0.330907
v 0.170581 1.018651 0.223561
v 0.173017 1.105924 0.231551
v -0.173984 1.018556 0.223557
v -0.176428 1.105977 0.231567
v -0.351282 1.019295 -0.177415
v -0.356202 1.105996 -0.185216
v -0.351282 1.019264 -0.017684
v -0.357896 1.105225 -0.025227
v 0.347884 1.018846 0.084888
v 0.352861 1.106130 0.091172
v 0.347882 1.019062 -0.177395
v 0.352845 1.106124 -0.185229
v -0.096560 -1.167366 -0.256743
v -0.091960 -1.079815 -0.249145
v -0.092254 -1.125943 -0.249529
v 0.088558 -1.079815 -0.249145
v 0.093165 -1.167398 -0.256753
v 0.088854 -1.125953 -0.249532
v 0.095983 -1.158166 0.034737
v 0.088582 -1.079340 0.026556
v 0.089686 -1.123109 0.026741
v -0.091984 -1.079341 0.026556
v -0.097917 -1.154849 0.035003
v -0.092658 -1.122138 0.026818
v 0.182859 -1.171497 -0.023887
v 0.181517 -1.079145 -0.042212
v 0.179744 -1.126958 -0.038108
v 0.181523 -1.079082 -0.176983
v 0.182909 -1.171822 -0.185459
v 0.179761 -1.127034 -0.179978
v -0.186287 -1.171666 -0.185432
v -0.184925 -1.079083 -0.176983
v -0.183155 -1.126989 -0.179970
v -0.184919 -1.079145 -0.042212
v -0.183165 -1.171715 -0.020456
v -0.182239 -1.127021 -0.037104
vn 0.6221 -0.1148 0.7745
vn -0.0000 -1.0000 -0.0000
vn 0.6129 0.2243 -0.7576
vn 0.0166 0.9436 0.3306
vn 0.5470 0.4443 0.7095
vn -0.9599 0.2732 -0.0633
vn 0.2161 -0.0000 0.9764
vn -0.0668 -0.9919 -0.1083
vn -0.6129 0.2243 -0.7577
vn 0.8188 -0.0930 -0.5665
vn -0.6221 -0.1148 0.7745
vn -0.0000 -0.1063 0.9943
vn 0.9946 -0.1038 -0.0000
vn -0.8188 -0.0930 -0.5665
vn -0.9946 -0.1038 -0.0000
vn 0.9425 0.3309 -0.0478
vn -0.0000 -0.9916 0.1296
vn -0.9884 0.1506 0.0187
vn -0.0000 -0.0895 -0.9960
vn 0.9881 0.1538 -0.0000
vn -0.5471 0.4553 0.7024
vn -0.0000 -0.0483 0.9988
vn 1.0000 0.0080 -0.0000
vn -0.8016 0.1006 0.5894
vn 0.6613 -0.0596 -0.7477
vn -0.0000 0.1300 -0.9915
vn -1.0000 0.0080 -0.0000
vn 0.6157 -0.0356 0.7872
vn -0.6613 -0.0596 -0.7478
vn 0.6135 -0.0910 0.7845
vn 0.6131 -0.0895 0.7849
vn 0.6129 -0.0890 0.7851
vn 0.9984 -0.0569 -0.0001
vn -0.6295 0.0131 -0.7769
vn -0.9983 -0.0576 -0.0108
vn -0.8166 -0.0122 0.5771
vn -0.0000 -0.0912 0.9958
vn 0.6587 -0.1046 -0.7451
vn -0.0000 0.0396 -0.9992
vn -0.0000 0.1716 -0.9852
vn -0.0000 0.0083 -1.0000
vn -0.0000 0.0084 -1.0000
vn 0.6028 0.1385 -0.7857
vn 0.6128 0.0268 -0.7898
vn 0.0017 0.2425 0.9702
vn 0.0003 0.0047 1.0000
vn 0.0001 0.0056 1.0000
vn -0.0000 0.0061 1.0000
vn -0.5651 0.2982 0.7692
vn -0.5939 0.0524 0.8028
vn 0.5666 0.2803 0.7749
vn 0.5676 0.2848 0.7725
vn 0.5662 0.2786 0.7757
vn 0.5848 0.0182 0.8110
vn 0.9975 0.0700 0.0001
vn 0.9976 0.0699 0.0002
vn 0.9976 0.0698 0.0002
vn 0.9993 -0.0368 0.0001
vn 0.9993 -0.0370 0.0001
vn -0.6158 0.1969 -0.7629
vn -0.6077 0.0105 -0.7941
vn -0.9976 0.0692 0.0064
vn -0.9993 -0.0369 -0.0000
vn -0.0000 0.3015 -0.9535
vn 0.5913 -0.1103 0.7988
vn 0.8010 0.3118 -0.5111
vn 0.0685 0.9484 0.3095
vn 0.9299 0.3677 -0.0000
vn -0.9986 -0.0000 0.0534
vn -0.1149 -0.9934 -0.0000
vn -0.8010 0.3118 -0.5111
vn 0.6128 -0.0445 -0.7890
vn -0.5913 -0.1103 0.7988
vn -0.6128 -0.0445 -0.7890
vn 0.9996 -0.0000 0.0289
vn -0.9906 0.1199 0.0663
vn -0.9449 0.3260 -0.0285
vn -0.6259 -0.0352 0.7791
vn 0.8199 0.0776 -0.5673
vn 0.6257 -0.0414 0.7789
vn -0.8199 0.0776 -0.5673
vn 0.6136 -0.0915 0.7843
vn -0.6587 -0.1044 -0.7451
vn -0.9971 -0.0767 -0.0000
vn -0.8035 -0.0766 0.5903
vn 0.6294 0.0130 -0.7770
vn 0.6158 0.1970 -0.7629
vn 0.6077 0.0106 -0.7941
vn 0.0052 0.2233 0.9747
vn 0.0004 0.0042 1.0000
vn -0.5617 0.2847 0.7768
vn -0.5813 0.0141 0.8136
vn 0.5679 0.2861 0.7717
vn 0.5941 0.0469 0.8030
vn 0.9975 0.0701 0.0001
vn 0.9993 -0.0367 -0.0000
vn -0.6029 0.1383 -0.7858
vn -0.6128 0.0266 -0.7898
vn -0.9994 0.0278 0.0189
vn -0.9985 -0.0552 0.0064
vn -0.0007 1.0000 -0.0000
vn -0.0002 1.0000 0.0004
vn -0.0006 1.0000 0.0017
vn 0.0029 1.0000 0.0048
vn -0.0007 1.0000 0.0015
vn 0.0002 1.0000 -0.0030
vn -0.0012 1.0000 -0.0000
vn -0.0001 1.0000 0.0008
vt 0.375000 0.750000
vt 0.375000 0.687500
vt 0.312500 0.750000
vt 0.375000 0.562500
vt 0.375000 0.500000
vt 0.310742 0.750000
vt 0.377719 0.750000
vt 0.375000 0.745463
vt 0.312500 0.687500
vt 0.312500 0.500000
vt 0.312500 0.562500
vt 0.312500 0.742863
vt 0.375000 0.687527
vt 0.312500 0.688198
vt 0.375000 0.562020
vt 0.312500 0.690530
vt 0.375000 0.690085
vt 0.312500 0.562022
s 1
usemtl マテリアル
f 44/1/1 19/2/1 14/1/1
f 7/1/2 4/3/2 3/1/2
f 10/4/3 41/5/3 53/4/3
f 47/6/4 8/1/4 43/7/4
f 43/8/5 9/2/5 49/2/5
f 4/3/6 5/3/6 47/3/6
f 5/3/7 7/1/7 8/1/7
f 12/9/8 3/1/8 4/3/8
f 37/10/9 11/11/9 55/11/9
f 20/4/10 40/5/10 13/5/10
f 18/9/11 46/3/11 15/3/11
f 15/3/12 44/1/12 14/1/12
f 50/2/13 20/4/13 19/2/13
f 38/10/14 17/11/14 16/10/14
f 17/11/15 58/9/15 18/9/15
f 8/1/16 3/1/16 43/1/16
f 10/4/17 12/9/17 11/11/17
f 2/5/2 11/11/2 1/10/2
f 11/11/18 59/9/18 55/11/18
f 40/5/19 16/10/19 13/5/19
f 49/2/20 10/4/20 53/4/20
f 12/9/21 47/12/21 59/9/21
f 27/3/22 14/1/22 25/1/22
f 33/2/23 20/4/23 35/4/23
f 18/9/24 27/3/24 31/9/24
f 20/4/25 21/5/25 35/4/25
f 21/5/26 16/10/26 23/10/26
f 17/11/27 31/9/27 29/11/27
f 14/1/28 33/2/28 25/1/28
f 23/10/29 17/11/29 29/11/29
f 25/1/30 34/13/31 26/1/32
f 35/4/33 34/13/33 33/2/33
f 23/10/34 30/11/34 24/10/34
f 29/11/35 32/14/35 30/11/35
f 31/9/36 28/3/36 32/14/36
f 27/3/37 26/1/37 28/3/37
f 21/5/38 36/4/38 35/4/38
f 23/10/39 22/5/39 21/5/39
f 37/10/40 42/5/40 41/5/40
f 39/10/41 40/5/42 42/5/42
f 53/4/43 42/5/43 54/15/43
f 54/15/44 40/5/44 52/4/44
f 47/6/45 45/1/45 48/3/45
f 48/3/46 44/1/47 46/3/48
f 59/9/49 48/3/49 60/16/49
f 60/16/50 46/3/50 58/9/50
f 49/2/51 45/1/52 43/8/53
f 51/17/54 44/1/54 45/1/54
f 53/4/55 51/17/56 49/2/57
f 54/15/58 50/2/59 51/17/59
f 55/11/60 39/10/60 37/10/60
f 57/18/61 38/10/61 39/10/61
f 55/11/62 60/16/62 57/18/62
f 57/18/63 58/9/63 56/11/63
f 41/5/64 1/10/64 37/10/64
f 44/1/65 50/2/65 19/2/65
f 7/1/2 6/3/2 4/3/2
f 10/4/66 2/5/66 41/5/66
f 47/6/67 5/3/67 8/1/67
f 43/8/68 3/1/68 9/2/68
f 4/3/69 6/3/69 5/3/69
f 5/3/7 6/3/7 7/1/7
f 12/9/70 9/2/70 3/1/70
f 37/10/71 1/10/71 11/11/71
f 20/4/72 52/4/72 40/5/72
f 18/9/73 58/9/73 46/3/73
f 15/3/12 46/3/12 44/1/12
f 50/2/13 52/4/13 20/4/13
f 38/10/74 56/11/74 17/11/74
f 17/11/15 56/11/15 58/9/15
f 8/1/75 7/1/75 3/1/75
f 10/4/70 9/2/70 12/9/70
f 2/5/2 10/4/2 11/11/2
f 11/11/76 12/9/76 59/9/76
f 40/5/19 38/10/19 16/10/19
f 49/2/20 9/2/20 10/4/20
f 12/9/77 4/3/77 47/12/77
f 27/3/22 15/3/22 14/1/22
f 33/2/23 19/2/23 20/4/23
f 18/9/78 15/3/78 27/3/78
f 20/4/79 13/5/79 21/5/79
f 21/5/26 13/5/26 16/10/26
f 17/11/27 18/9/27 31/9/27
f 14/1/80 19/2/80 33/2/80
f 23/10/81 16/10/81 17/11/81
f 25/1/30 33/2/82 34/13/31
f 35/4/33 36/4/33 34/13/33
f 23/10/83 29/11/83 30/11/83
f 29/11/84 31/9/84 32/14/84
f 31/9/85 27/3/85 28/3/85
f 27/3/37 25/1/37 26/1/37
f 21/5/86 22/5/86 36/4/86
f 23/10/39 24/10/39 22/5/39
f 37/10/40 39/10/40 42/5/40
f 39/10/41 38/10/41 40/5/42
f 53/4/87 41/5/87 42/5/87
f 54/15/88 42/5/88 40/5/88
f 47/6/89 43/7/89 45/1/89
f 48/3/46 45/1/90 44/1/47
f 59/9/91 47/12/91 48/3/91
f 60/16/92 48/3/92 46/3/92
f 49/2/51 51/17/93 45/1/52
f 51/17/94 50/2/94 44/1/94
f 53/4/55 54/15/95 51/17/56
f 54/15/58 52/4/96 50/2/59
f 55/11/97 57/18/97 39/10/97
f 57/18/98 56/11/98 38/10/98
f 55/11/99 59/9/99 60/16/99
f 57/18/100 60/16/100 58/9/100
f 41/5/64 2/5/64 1/10/64
f 26/1/101 36/4/102 24/10/103
f 24/10/103 30/11/104 32/14/105
f 32/14/105 28/3/106 26/1/101
f 26/1/101 34/13/107 36/4/102
f 36/4/102 22/5/108 24/10/103
f 24/10/103 32/14/105 26/1/101
