# Blender 4.4.1
# www.blender.org
mtllib audienceChairSide.mtl
o audience_chere_side
v -4.000000 -0.200000 0.400000
v -4.000000 0.200000 0.400000
v -4.000000 -0.200000 -0.400000
v -4.000000 0.200000 -0.400000
v 4.000000 -0.200000 0.400000
v 4.000000 0.200000 0.400000
v 4.000000 -0.200000 -0.400000
v 4.000000 0.200000 -0.400000
v -4.000000 0.130884 0.356743
v -4.000000 0.912365 0.527880
v -4.000000 0.152276 0.259058
v -4.000000 0.933757 0.430194
v 4.000000 0.130884 0.356743
v 4.000000 0.912365 0.527880
v 4.000000 0.152276 0.259058
v 4.000000 0.933757 0.430194
v 3.980000 -0.008359 0.400000
v 3.980000 0.391641 0.400000
v 3.980000 -0.008359 -0.400000
v 3.980000 0.391641 -0.400000
v 4.140000 -0.008359 0.400000
v 4.140000 0.391641 0.400000
v 4.140000 -0.008359 -0.400000
v 4.140000 0.391641 -0.400000
v -4.164128 -0.008359 0.400000
v -4.164128 0.391641 0.400000
v -4.164128 -0.008359 -0.400000
v -4.164128 0.391641 -0.400000
v -4.004128 -0.008359 0.400000
v -4.004128 0.391641 0.400000
v -4.004128 -0.008359 -0.400000
v -4.004128 0.391641 -0.400000
vn -1.0000 -0.0000 -0.0000
vn -0.0000 -0.0000 -1.0000
vn 1.0000 -0.0000 -0.0000
vn -0.0000 -0.0000 1.0000
vn -0.0000 -1.0000 -0.0000
vn -0.0000 1.0000 -0.0000
vn -0.0000 0.2139 -0.9769
vn -0.0000 -0.2139 0.9769
vn -0.0000 -0.9769 -0.2139
vn -0.0000 0.9769 0.2139
vt 0.625000 0.000000
vt 0.375000 0.250000
vt 0.375000 0.000000
vt 0.625000 0.250000
vt 0.375000 0.500000
vt 0.625000 0.500000
vt 0.375000 0.750000
vt 0.625000 0.750000
vt 0.375000 1.000000
vt 0.125000 0.750000
vt 0.125000 0.500000
vt 0.875000 0.500000
vt 0.625000 1.000000
vt 0.875000 0.750000
s 0
usemtl マテリアル.011
f 2/1/1 3/2/1 1/3/1
f 4/4/2 7/5/2 3/2/2
f 8/6/3 5/7/3 7/5/3
f 6/8/4 1/9/4 5/7/4
f 7/5/5 1/10/5 3/11/5
f 4/12/6 6/8/6 8/6/6
f 10/1/1 11/2/1 9/3/1
f 12/4/7 15/5/7 11/2/7
f 15/5/3 14/8/3 13/7/3
f 14/8/8 9/9/8 13/7/8
f 15/5/9 9/10/9 11/11/9
f 12/12/10 14/8/10 16/6/10
f 18/1/1 19/2/1 17/3/1
f 20/4/2 23/5/2 19/2/2
f 24/6/3 21/7/3 23/5/3
f 22/8/4 17/9/4 21/7/4
f 23/5/5 17/10/5 19/11/5
f 20/12/6 22/8/6 24/6/6
f 26/1/1 27/2/1 25/3/1
f 28/4/2 31/5/2 27/2/2
f 32/6/3 29/7/3 31/5/3
f 30/8/4 25/9/4 29/7/4
f 31/5/5 25/10/5 27/11/5
f 28/12/6 30/8/6 32/6/6
f 2/1/1 4/4/1 3/2/1
f 4/4/2 8/6/2 7/5/2
f 8/6/3 6/8/3 5/7/3
f 6/8/4 2/13/4 1/9/4
f 7/5/5 5/7/5 1/10/5
f 4/12/6 2/14/6 6/8/6
f 10/1/1 12/4/1 11/2/1
f 12/4/7 16/6/7 15/5/7
f 15/5/3 16/6/3 14/8/3
f 14/8/8 10/13/8 9/9/8
f 15/5/9 13/7/9 9/10/9
f 12/12/10 10/14/10 14/8/10
f 18/1/1 20/4/1 19/2/1
f 20/4/2 24/6/2 23/5/2
f 24/6/3 22/8/3 21/7/3
f 22/8/4 18/13/4 17/9/4
f 23/5/5 21/7/5 17/10/5
f 20/12/6 18/14/6 22/8/6
f 26/1/1 28/4/1 27/2/1
f 28/4/2 32/6/2 31/5/2
f 32/6/3 30/8/3 29/7/3
f 30/8/4 26/13/4 25/9/4
f 31/5/5 29/7/5 25/10/5
f 28/12/6 26/14/6 30/8/6
