# Blender 4.4.1
# www.blender.org
mtllib audienceChairMid.mtl
o audience_chere_mid
v -5.000000 0.100000 0.391393
v -5.000000 0.500000 0.391393
v -5.000000 0.100000 -0.408607
v -5.000000 0.500000 -0.408607
v 5.000000 0.100000 0.391393
v 5.000000 0.500000 0.391393
v 5.000000 0.100000 -0.408607
v 5.000000 0.500000 -0.408607
v -5.000000 0.430884 0.348136
v -5.000000 1.212365 0.519272
v -5.000000 0.452276 0.250451
v -5.000000 1.233757 0.421587
v 5.000000 0.430884 0.348136
v 5.000000 1.212365 0.519272
v 5.000000 0.452276 0.250451
v 5.000000 1.233757 0.421587
v 4.975000 0.291641 0.391393
v 4.975000 0.691641 0.391393
v 4.975000 0.291641 -0.408607
v 4.975000 0.691641 -0.408607
v 5.175000 0.291641 0.391393
v 5.175000 0.691641 0.391393
v 5.175000 0.291641 -0.408607
v 5.175000 0.691641 -0.408607
v -5.205160 0.291641 0.391393
v -5.205160 0.691641 0.391393
v -5.205160 0.291641 -0.408607
v -5.205160 0.691641 -0.408607
v -5.005160 0.291641 0.391393
v -5.005160 0.691641 0.391393
v -5.005160 0.291641 -0.408607
v -5.005160 0.691641 -0.408607
vn -1.0000 -0.0000 -0.0000
vn -0.0000 -0.0000 -1.0000
vn 1.0000 -0.0000 -0.0000
vn -0.0000 -0.0000 1.0000
vn -0.0000 -1.0000 -0.0000
vn -0.0000 1.0000 -0.0000
vn -0.0000 0.2139 -0.9769
vn -0.0000 -0.2139 0.9769
vn -0.0000 -0.9769 -0.2139
vn -0.0000 0.9769 0.2139
vt 0.335233 0.007638
vt 0.171436 0.171436
vt 0.171436 0.007638
vt 0.335233 0.171436
vt 0.171436 0.335233
vt 0.335233 0.335233
vt 0.171436 0.499031
vt 0.335233 0.499031
vt 0.171436 0.662828
vt 0.007638 0.499031
vt 0.007638 0.335233
vt 0.499031 0.335233
vt 0.992362 0.198213
vt 0.725837 0.028297
vt 0.732908 0.007638
vt 0.985291 0.218871
vt 0.628871 0.160309
vt 0.870727 0.363810
vt 0.611273 0.173235
vt 0.514308 0.305247
vt 0.514307 0.041223
vt 0.531905 0.028297
vt 0.985291 0.482896
vt 0.888325 0.350884
vt 0.681381 0.511098
vt 0.517583 0.674896
vt 0.517583 0.511098
vt 0.681381 0.674896
vt 0.517583 0.678172
vt 0.681381 0.678172
vt 0.517583 0.841969
vt 0.681381 0.841969
vt 0.517583 0.845245
vt 0.514307 0.841969
vt 0.514307 0.678172
vt 0.684657 0.678172
vt 0.867007 0.511098
vt 0.703209 0.674896
vt 0.703209 0.511098
vt 0.867007 0.674896
vt 0.703209 0.678172
vt 0.867007 0.678172
vt 0.703209 0.841969
vt 0.867007 0.841969
vt 0.703209 0.845245
vt 0.699933 0.841969
vt 0.699933 0.678172
vt 0.870283 0.678172
vt 0.335233 0.662828
vt 0.499031 0.499031
vt 0.773762 0.495822
vt 0.967693 0.495822
vt 0.681381 0.845245
vt 0.684657 0.841969
vt 0.867007 0.845245
vt 0.870283 0.841969
s 0
usemtl マテリアル.010
f 2/1/1 3/2/1 1/3/1
f 4/4/2 7/5/2 3/2/2
f 8/6/3 5/7/3 7/5/3
f 6/8/4 1/9/4 5/7/4
f 7/5/5 1/10/5 3/11/5
f 4/12/6 6/8/6 8/6/6
f 10/13/1 11/14/1 9/15/1
f 12/16/7 15/17/7 11/14/7
f 15/17/3 14/18/3 13/19/3
f 14/18/8 9/20/8 13/19/8
f 15/17/9 9/21/9 11/22/9
f 12/23/10 14/18/10 16/24/10
f 18/25/1 19/26/1 17/27/1
f 20/28/2 23/29/2 19/26/2
f 24/30/3 21/31/3 23/29/3
f 22/32/4 17/33/4 21/31/4
f 23/29/5 17/34/5 19/35/5
f 20/36/6 22/32/6 24/30/6
f 26/37/1 27/38/1 25/39/1
f 28/40/2 31/41/2 27/38/2
f 32/42/3 29/43/3 31/41/3
f 30/44/4 25/45/4 29/43/4
f 31/41/5 25/46/5 27/47/5
f 28/48/6 30/44/6 32/42/6
f 2/1/1 4/4/1 3/2/1
f 4/4/2 8/6/2 7/5/2
f 8/6/3 6/8/3 5/7/3
f 6/8/4 2/49/4 1/9/4
f 7/5/5 5/7/5 1/10/5
f 4/12/6 2/50/6 6/8/6
f 10/13/1 12/16/1 11/14/1
f 12/16/7 16/24/7 15/17/7
f 15/17/3 16/24/3 14/18/3
f 14/18/8 10/51/8 9/20/8
f 15/17/9 13/19/9 9/21/9
f 12/23/10 10/52/10 14/18/10
f 18/25/1 20/28/1 19/26/1
f 20/28/2 24/30/2 23/29/2
f 24/30/3 22/32/3 21/31/3
f 22/32/4 18/53/4 17/33/4
f 23/29/5 21/31/5 17/34/5
f 20/36/6 18/54/6 22/32/6
f 26/37/1 28/40/1 27/38/1
f 28/40/2 32/42/2 31/41/2
f 32/42/3 30/44/3 29/43/3
f 30/44/4 26/55/4 25/45/4
f 31/41/5 29/43/5 25/46/5
f 28/48/6 26/56/6 30/44/6
