# Blender 4.4.1
# www.blender.org
mtllib rightThighs.mtl
o rightThigh
v -0.234252 0.749972 0.344216
v -0.234252 0.749972 -0.439134
v 0.230284 0.749972 -0.439134
v 0.230284 0.749972 0.344216
v -0.473289 0.749972 -0.243296
v -0.473290 0.749972 0.148378
v 0.502650 0.658942 -0.243296
v 0.502650 0.658942 0.148378
v -0.241706 -0.388441 -0.408435
v -0.468146 -0.388441 -0.227289
v -0.468146 -0.388441 0.135005
v 0.424788 -0.388441 0.119297
v 0.424788 -0.388441 -0.227289
v 0.198348 -0.388441 -0.408435
v 0.198348 -0.388441 0.316152
v -0.241706 -0.388441 0.316152
v 0.159828 -0.732053 -0.339861
v 0.153161 -0.819474 -0.331341
v -0.203168 -0.732225 -0.339827
v -0.196514 -0.819534 -0.331332
v 0.159698 -0.733215 0.245229
v 0.153125 -0.820329 0.231638
v -0.203081 -0.732997 0.245274
v -0.196491 -0.820252 0.231652
v -0.390075 -0.731658 -0.193568
v -0.376486 -0.819760 -0.185225
v -0.390014 -0.731924 0.099149
v -0.376469 -0.819892 0.091195
v 0.362931 -0.729306 0.096193
v 0.350863 -0.819052 0.090334
v 0.346861 -0.731019 -0.193631
v 0.333170 -0.819538 -0.185246
vn -0.0000 -0.2015 0.9795
vn 0.6396 -0.2230 0.7357
vn -0.6026 -0.2180 0.7677
vn -0.6082 -0.2245 0.7614
vn -0.6087 -0.2248 0.7609
vn 0.9751 -0.2218 -0.0000
vn -0.6090 -0.2197 -0.7621
vn -0.6034 -0.2134 -0.7684
vn -0.6093 -0.2203 -0.7617
vn -0.9751 -0.2218 -0.0000
vn 0.6034 -0.2134 -0.7684
vn 0.6090 -0.2197 -0.7621
vn 0.6093 -0.2203 -0.7617
vn -0.0000 -0.0270 -0.9996
vn 0.5749 -0.0382 -0.8173
vn 0.0397 0.8447 0.5338
vn -0.0000 -0.0246 0.9997
vn -0.0009 0.9755 0.2199
vn -0.6268 -0.0127 0.7791
vn -0.6316 -0.0142 0.7752
vn -0.6337 -0.0149 0.7735
vn -1.0000 -0.0045 -0.0000
vn -0.6316 -0.0160 -0.7751
vn -0.6268 -0.0145 -0.7791
vn -0.6337 -0.0167 -0.7734
vn 0.9972 -0.0741 -0.0000
vn 0.5754 -0.0363 0.8171
vn 0.5851 -0.1679 0.7934
vn 0.5852 -0.1661 0.7937
vn 0.5857 -0.1611 0.7944
vn 0.9896 -0.1289 -0.0633
vn -0.6118 -0.1227 -0.7814
vn -0.9883 -0.1524 0.0001
vn -0.9883 -0.1522 -0.0000
vn -0.6073 -0.1645 0.7773
vn -0.6077 -0.1664 0.7766
vn -0.6071 -0.1638 0.7775
vn -0.0000 -0.1542 0.9880
vn 0.6211 -0.1686 -0.7654
vn -0.0000 -0.0970 -0.9953
vn -0.0000 -0.0969 -0.9953
vn -0.0000 -0.1957 -0.9807
vn 0.5857 -0.1601 0.7945
vn -0.6019 -0.2171 0.7685
vn 0.9832 -0.1748 -0.0535
vn -0.6026 -0.2126 -0.7692
vn 0.6026 -0.2126 -0.7692
vn 0.6236 -0.0583 -0.7796
vn -0.6246 -0.0120 0.7808
vn -0.6246 -0.0138 -0.7808
vn 0.6545 -0.0696 0.7529
vn 0.5770 -0.1302 0.8063
vn 0.9860 -0.1576 -0.0537
vn -0.6212 -0.1683 -0.7654
vn -0.9884 -0.1522 -0.0000
vn -0.6078 -0.1671 0.7763
vn -0.0000 -0.1541 0.9880
vn 0.6117 -0.1228 -0.7815
vn -0.0000 -0.0968 -0.9953
vn 0.0015 -1.0000 -0.0008
vn 0.0014 -1.0000 -0.0013
vn 0.0001 -1.0000 -0.0013
vn 0.1216 0.9920 0.0334
vn -0.0015 1.0000 0.0071
vn 0.0009 -1.0000 -0.0005
vn 0.0003 -1.0000 -0.0007
vn 0.0002 -1.0000 -0.0007
vn 0.0074 -1.0000 0.0013
vn -0.0002 -1.0000 -0.0023
vn 0.1584 0.9872 -0.0202
vn 0.3170 0.9484 -0.0000
vn -0.0000 1.0000 -0.0000
vt 0.125000 0.750000
vt 0.187500 0.750000
vt 0.187500 0.687500
vt 0.125000 0.687500
vt 0.187500 0.562500
vt 0.125000 0.500000
vt 0.125000 0.562500
vt 0.187500 0.500000
vt 0.125000 0.687525
s 1
usemtl マテリアル
f 23/1/1 15/2/1 16/1/1
f 21/2/2 12/3/2 15/2/2
f 11/4/3 23/1/4 16/1/5
f 12/3/6 31/5/6 13/5/6
f 19/6/7 10/7/8 9/6/9
f 10/7/10 27/4/10 11/4/10
f 13/5/11 17/8/12 14/8/13
f 14/8/14 2/6/14 3/8/14
f 7/5/15 14/8/15 3/8/15
f 1/1/16 15/2/17 4/2/18
f 6/4/19 16/1/20 1/1/21
f 10/7/22 6/4/22 5/7/22
f 9/6/23 5/7/24 2/6/25
f 12/3/26 7/5/26 8/3/26
f 15/2/27 8/3/27 4/2/27
f 22/2/28 29/3/29 21/2/30
f 32/5/31 29/3/31 30/3/31
f 20/6/32 25/7/32 19/6/32
f 26/7/33 27/4/34 25/7/33
f 24/1/35 27/4/36 28/9/37
f 24/1/38 21/2/38 23/1/38
f 18/8/39 31/5/39 32/5/39
f 18/8/40 19/6/41 17/8/40
f 17/8/42 9/6/42 14/8/42
f 23/1/1 21/2/1 15/2/1
f 21/2/30 29/3/29 12/3/43
f 11/4/3 27/4/44 23/1/4
f 12/3/45 29/3/45 31/5/45
f 19/6/7 25/7/46 10/7/8
f 10/7/10 25/7/10 27/4/10
f 13/5/11 31/5/47 17/8/12
f 14/8/14 9/6/14 2/6/14
f 7/5/48 13/5/48 14/8/48
f 1/1/16 16/1/17 15/2/17
f 6/4/19 11/4/49 16/1/20
f 10/7/22 11/4/22 6/4/22
f 9/6/23 10/7/50 5/7/24
f 12/3/26 13/5/26 7/5/26
f 15/2/51 12/3/51 8/3/51
f 22/2/52 30/3/52 29/3/52
f 32/5/53 31/5/53 29/3/53
f 20/6/54 26/7/54 25/7/54
f 26/7/33 28/9/55 27/4/34
f 24/1/35 23/1/56 27/4/36
f 24/1/38 22/2/57 21/2/38
f 18/8/58 17/8/58 31/5/58
f 18/8/40 20/6/59 19/6/41
f 17/8/42 19/6/42 9/6/42
f 32/5/60 22/2/61 28/9/62
f 3/8/63 5/7/64 1/1/16
f 28/9/62 26/7/65 20/6/66
f 20/6/66 18/8/67 32/5/60
f 32/5/60 30/3/68 22/2/61
f 22/2/61 24/1/69 28/9/62
f 28/9/62 20/6/66 32/5/60
f 1/1/16 4/2/18 8/3/70
f 8/3/70 7/5/71 3/8/63
f 3/8/63 2/6/72 5/7/64
f 5/7/64 6/4/72 1/1/16
f 1/1/16 8/3/70 3/8/63
