# Blender 4.4.1
# www.blender.org
mtllib chest.mtl
o chest
v -1.117697 -0.108760 0.145086
v -1.117697 -0.108760 -0.311280
v 1.151613 -0.108760 0.145086
v 1.151613 -0.108760 -0.311280
v 0.016958 -0.137575 -0.462499
v 0.016958 -0.440441 0.467194
v -0.569298 -0.440441 0.467194
v -0.569298 -0.137575 -0.462499
v 0.603215 -0.137575 -0.462499
v 0.603215 -0.440441 0.467194
v -1.117697 -0.381804 0.145087
v -1.117697 -0.381804 -0.311280
v 1.151613 -0.381804 -0.311280
v 1.151613 -0.381804 0.145087
v 0.016958 -0.710364 0.467194
v 0.016958 -0.710364 -0.462498
v -0.569298 -0.710364 -0.462498
v -0.569298 -0.710364 0.467194
v 0.603215 -0.710364 0.467194
v 0.603215 -0.710364 -0.462498
v -1.117697 0.007646 0.051374
v -1.117697 0.007646 -0.229295
v 1.151613 0.007646 -0.229295
v 1.151613 0.007646 0.051374
v 0.016958 -0.004441 -0.282666
v 0.016958 -0.004441 0.109009
v -0.286887 -0.004441 -0.282666
v -0.286887 -0.004441 0.109009
v 0.320804 -0.004441 -0.282666
v 0.320804 -0.004441 0.109009
v 1.189471 -0.498211 -0.229294
v 1.189471 -0.498211 0.051375
v -1.155555 -0.498211 0.051375
v -1.155555 -0.498211 -0.229294
v -0.880056 -1.140089 -0.320372
v 0.913973 -1.140089 -0.320372
v 1.001687 -1.148111 0.268381
v 0.016958 -1.271996 0.429434
v 0.016958 -1.236866 -0.395982
v -0.475358 -1.236866 -0.395982
v -0.475358 -1.251744 0.429434
v 0.509275 -1.251744 0.429434
v 0.509275 -1.236866 -0.395982
v -0.967770 -1.148111 0.268381
v -0.986699 -1.141504 0.123606
v -0.986699 -1.141504 -0.212566
v 1.020616 -1.141504 -0.212566
v 1.020616 -1.141504 0.123606
vn 0.2658 -0.0000 -0.9640
vn -0.5065 -0.0000 0.8623
vn -0.0491 0.6528 0.7559
vn -0.0000 0.6348 0.7727
vn -0.0000 -0.0000 1.0000
vn -0.0000 -0.0000 -1.0000
vn -0.2658 -0.0000 -0.9640
vn 0.5065 -0.0000 0.8623
vn 0.0449 0.6265 0.7782
vn -0.0000 -0.1253 -0.9921
vn 0.3318 -0.1228 0.9353
vn -0.0000 -0.0684 0.9977
vn -0.0014 -0.0684 0.9977
vn -0.0000 -0.0671 0.9977
vn -0.2182 -0.1605 -0.9626
vn 0.0014 -0.0684 0.9977
vn -0.3318 -0.1228 0.9353
vn 0.9778 -0.1720 0.1200
vn 0.2182 -0.1605 -0.9626
vn -0.6952 -0.2004 -0.6903
vn -0.9672 -0.2539 -0.0000
vn -0.9778 -0.1720 0.1200
vn 0.9672 -0.2539 -0.0000
vn 0.6952 -0.2004 -0.6903
vn -0.0145 0.9999 -0.0000
vn 0.0441 0.5753 -0.8168
vn -0.0000 0.8037 -0.5950
vn 0.0145 0.9999 -0.0000
vn -0.0914 0.8636 -0.4959
vn -0.0449 0.6265 0.7782
vn 0.0491 0.6528 0.7559
vn 0.4855 0.0455 0.8730
vn -0.0000 -0.0696 0.9976
vn -0.3127 -0.0867 -0.9459
vn -0.4855 0.0455 0.8730
vn 0.8314 -0.1584 0.5326
vn 0.3127 -0.0867 -0.9459
vn -0.7281 -0.2204 -0.6491
vn -0.8314 -0.1584 0.5326
vn 0.7281 -0.2204 -0.6491
vn 0.0914 0.8636 -0.4959
vn -0.0441 0.5753 -0.8168
vn -0.9990 0.0383 -0.0221
vn -0.9934 0.0943 -0.0648
vn -0.9952 0.0818 0.0539
vn 0.9952 0.0818 0.0539
vn 0.9934 0.0943 -0.0648
vn 0.9990 0.0383 -0.0221
vn -0.0509 -0.9986 0.0151
vn 0.0509 -0.9986 0.0151
vn 0.0505 -0.9898 -0.1333
vn -0.0000 1.0000 -0.0000
vn -0.9272 -0.0000 0.3746
vn -0.9966 0.0598 0.0572
vn -1.0000 -0.0000 -0.0000
vn -0.9510 0.3093 -0.0000
vn 1.0000 -0.0000 -0.0000
vn 0.9966 0.0598 0.0572
vn 0.9272 -0.0000 0.3746
vn 0.9510 0.3093 -0.0000
vn -0.0505 -0.9898 -0.1333
vn -0.2001 -0.9796 -0.0185
vn -0.1733 -0.9842 -0.0349
vn 0.0133 -0.9999 -0.0000
vn -0.0000 -0.6157 0.7880
vn -0.0133 -0.9999 -0.0000
vn 0.1733 -0.9842 -0.0349
vn 0.2001 -0.9796 -0.0185
vt 0.625000 0.437500
vt 0.562500 0.500000
vt 0.562500 0.437500
vt 0.625000 0.937500
vt 0.562500 1.000000
vt 0.562500 0.937500
vt 0.812500 0.687500
vt 0.875000 0.750000
vt 0.812500 0.750000
vt 0.687500 0.687500
vt 0.750000 0.750000
vt 0.687500 0.750000
vt 0.625000 0.812500
vt 0.562500 0.875000
vt 0.562500 0.812500
vt 0.625000 0.312500
vt 0.562500 0.375000
vt 0.562500 0.312500
vt 0.562500 0.250000
vt 0.750000 0.687500
vt 0.625000 0.875000
vt 0.562500 0.750000
vt 0.625000 0.750000
vt 0.625000 0.687500
vt 0.625000 0.375000
vt 0.531250 0.437500
vt 0.531250 0.375000
vt 0.531250 0.750000
vt 0.531250 0.812500
vt 0.531250 0.937500
vt 0.531250 0.875000
vt 0.531250 0.250000
vt 0.531250 0.312500
vt 0.531250 1.000000
vt 0.531250 0.687500
vt 0.531250 0.500000
vt 0.562500 0.187500
vt 0.531250 0.187500
vt 0.562500 0.062500
vt 0.531250 0.062500
vt 0.562500 0.000000
vt 0.531250 0.000000
vt 0.531250 0.562500
vt 0.562500 0.687500
vt 0.562500 0.562500
vt 0.687500 0.562500
vt 0.625000 0.562500
vt 0.625000 0.500000
vt 0.750000 0.500000
vt 0.812500 0.562500
vt 0.750000 0.562500
vt 0.687500 0.500000
vt 0.875000 0.687500
vt 0.875000 0.500000
vt 0.812500 0.500000
vt 0.625000 1.000000
vt 0.625000 0.250000
vt 0.875000 0.562500
s 1
usemtl マテリアル
f 9/1/1 13/2/1 20/3/1
f 7/4/2 11/5/2 18/6/2
f 28/7/3 1/8/3 7/9/3
f 30/10/4 6/11/4 10/12/4
f 10/13/5 15/14/5 19/15/5
f 8/16/6 16/17/6 17/18/6
f 12/19/7 8/16/7 17/18/7
f 28/7/4 6/11/4 26/20/4
f 6/21/5 18/6/5 15/14/5
f 14/22/8 10/13/8 19/15/8
f 30/10/9 3/23/9 24/24/9
f 5/25/6 20/3/6 16/17/6
f 16/17/10 43/26/10 39/27/10
f 37/28/11 19/15/11 42/29/11
f 15/14/12 41/30/13 38/31/14
f 35/32/15 17/18/15 40/33/15
f 40/33/10 16/17/10 39/27/10
f 42/29/16 15/14/12 38/31/14
f 18/6/17 44/34/17 41/30/17
f 48/35/18 14/22/18 37/28/18
f 20/3/19 36/36/19 43/26/19
f 34/37/20 35/32/20 46/38/20
f 33/39/21 46/38/21 45/40/21
f 11/41/22 45/40/22 44/42/22
f 47/43/23 32/44/23 48/35/23
f 36/36/24 31/45/24 47/43/24
f 29/46/25 24/24/25 23/47/25
f 4/48/26 29/46/26 23/47/26
f 5/49/27 27/50/27 25/51/27
f 5/49/27 29/46/27 9/52/27
f 27/50/28 21/53/28 28/7/28
f 2/54/29 27/50/29 8/55/29
f 9/1/1 4/48/1 13/2/1
f 7/4/2 1/56/2 11/5/2
f 28/7/30 21/53/30 1/8/30
f 30/10/4 26/20/4 6/11/4
f 10/13/5 6/21/5 15/14/5
f 8/16/6 5/25/6 16/17/6
f 12/19/7 2/57/7 8/16/7
f 28/7/4 7/9/4 6/11/4
f 6/21/5 7/4/5 18/6/5
f 14/22/8 3/23/8 10/13/8
f 30/10/31 10/12/31 3/23/31
f 5/25/6 9/1/6 20/3/6
f 16/17/10 20/3/10 43/26/10
f 37/28/32 14/22/32 19/15/32
f 15/14/12 18/6/33 41/30/13
f 35/32/34 12/19/34 17/18/34
f 40/33/10 17/18/10 16/17/10
f 42/29/16 19/15/33 15/14/12
f 18/6/35 11/5/35 44/34/35
f 48/35/36 32/44/36 14/22/36
f 20/3/37 13/2/37 36/36/37
f 34/37/38 12/19/38 35/32/38
f 33/39/21 34/37/21 46/38/21
f 11/41/39 33/39/39 45/40/39
f 47/43/23 31/45/23 32/44/23
f 36/36/40 13/2/40 31/45/40
f 29/46/25 30/10/25 24/24/25
f 4/48/41 9/52/41 29/46/41
f 5/49/27 8/55/27 27/50/27
f 5/49/27 25/51/27 29/46/27
f 27/50/28 22/58/28 21/53/28
f 2/54/42 22/58/42 27/50/42
f 22/58/43 12/19/44 33/39/45
f 32/44/46 13/2/47 23/47/48
f 35/32/49 36/36/50 42/29/51
f 25/51/52 26/20/52 29/46/52
f 33/39/45 11/41/53 1/8/54
f 1/8/54 21/53/55 22/58/43
f 22/58/43 2/57/55 12/19/44
f 12/19/44 34/37/56 33/39/45
f 33/39/45 1/8/54 22/58/43
f 23/47/48 24/24/57 3/23/58
f 3/23/58 14/22/59 32/44/46
f 32/44/46 31/45/60 13/2/47
f 13/2/47 4/48/57 23/47/48
f 23/47/48 3/23/58 32/44/46
f 41/30/61 44/42/62 45/40/63
f 45/40/63 46/38/64 35/32/49
f 35/32/49 40/33/65 39/27/65
f 39/27/65 43/26/65 36/36/50
f 36/36/50 47/43/66 48/35/67
f 48/35/67 37/28/68 42/29/51
f 42/29/51 38/31/6 41/30/61
f 41/30/61 45/40/63 35/32/49
f 35/32/49 39/27/65 36/36/50
f 36/36/50 48/35/67 42/29/51
f 42/29/51 41/30/61 35/32/49
f 25/51/52 27/50/52 28/7/52
f 26/20/52 30/10/52 29/46/52
f 25/51/52 28/7/52 26/20/52
