# Blender 4.4.1
# www.blender.org
mtllib studio.mtl
o 球
v 0.000034 980.785217 -195.090561
v 0.000066 923.879456 -382.683624
v 0.000098 831.469421 -555.570435
v 0.000124 707.106628 -707.106995
v 0.000146 555.570068 -831.469788
v 0.000162 382.683228 -923.879456
v 0.000172 195.090118 -980.785217
v 0.000146 -555.570374 -831.469482
v 0.000124 -707.106995 -707.106628
v 0.000098 -831.469849 -555.570007
v -38.060223 980.785217 -191.341934
v -74.657799 923.879456 -375.330505
v -108.386307 831.469421 -544.895264
v -137.949585 707.106628 -693.520081
v -162.211533 555.570068 -815.493286
v -180.239807 382.683228 -906.127502
v -191.341537 195.090118 -961.939819
v -195.090149 -0.000266 -980.785217
v -191.341537 -195.090561 -961.939697
v -180.239838 -382.683594 -906.127441
v -162.211548 -555.570374 -815.493103
v -137.949585 -707.106995 -693.519714
v -108.386292 -831.469849 -544.894897
v -74.657799 -923.879456 -375.330139
v -38.060223 -980.785278 -191.341476
v -74.657837 980.785217 -180.240173
v -146.446594 923.879456 -353.553680
v -212.607468 831.469421 -513.280090
v -270.597961 707.106628 -653.281677
v -318.189545 555.570068 -768.177795
v -353.553314 382.683228 -853.553528
v -375.330139 195.090164 -906.127502
v -382.683289 -0.000254 -923.879578
v -375.330139 -195.090515 -906.127380
v -353.553314 -382.683594 -853.553406
v -318.189606 -555.570374 -768.177673
v -270.597961 -707.106995 -653.281433
v -212.607452 -831.469849 -513.279724
v -146.446594 -923.879456 -353.553253
v -74.657829 -980.785278 -180.239731
v -108.386383 980.785217 -162.211868
v -212.607513 923.879456 -318.189911
v -308.658264 831.469421 -461.939941
v -392.847412 707.106628 -587.937927
v -461.939606 555.570068 -691.341736
v -513.279846 382.683228 -768.177856
v -544.894958 195.090164 -815.493225
v -555.570129 -0.000233 -831.469604
v -544.894958 -195.090515 -815.493225
v -513.279907 -382.683594 -768.177734
v -461.939728 -555.570374 -691.341553
v -392.847412 -707.106995 -587.937683
v -308.658234 -831.469849 -461.939575
v -212.607529 -923.879456 -318.189484
v -108.386368 -980.785278 -162.211441
v -137.949707 980.785217 -137.949921
v -270.598083 923.879456 -270.598267
v -392.847473 831.469604 -392.847656
v -499.999939 707.106628 -500.000214
v -587.937561 555.570068 -587.937988
v -653.281372 382.683228 -653.281494
v -693.519775 195.090210 -693.519958
v -707.106689 -0.000203 -707.106750
v -693.519775 -195.090469 -693.519958
v -653.281433 -382.683594 -653.281494
v -587.937744 -555.570374 -587.937622
v -499.999939 -707.106995 -499.999908
v -392.847473 -831.469666 -392.847290
v -270.598083 -923.879456 -270.597870
v -137.949692 -980.785278 -137.949448
v -162.211700 980.785217 -108.386597
v -318.189697 923.879456 -212.607742
v -461.939758 831.469604 -308.658417
v -587.937622 707.106812 -392.847656
v -691.341492 555.570068 -461.939850
v -768.177612 382.683319 -513.280151
v -815.492981 195.090210 -544.895081
v -831.469482 -0.000170 -555.570129
v -815.492981 -195.090469 -544.895081
v -768.177734 -382.683502 -513.280029
v -691.341553 -555.570374 -461.939667
v -587.937622 -707.106812 -392.847351
v -461.939697 -831.469666 -308.658051
v -318.189697 -923.879456 -212.607346
v -162.211700 -980.785278 -108.386124
v -180.240005 980.785217 -74.658043
v -353.553497 923.879456 -146.446838
v -513.279968 831.469604 -212.607697
v -653.281494 707.106812 -270.598297
v -768.177612 555.570251 -318.189789
v -853.553223 382.683319 -353.553558
v -906.127197 195.090256 -375.330353
v -923.879272 -0.000131 -382.683411
v -906.127197 -195.090424 -375.330292
v -853.553345 -382.683502 -353.553345
v -768.177734 -555.570190 -318.189545
v -653.281494 -707.106812 -270.597931
v -513.279968 -831.469666 -212.607330
v -353.553528 -923.879456 -146.446396
v -180.239990 -980.785278 -74.657570
v -191.341766 980.785217 -38.060429
v -375.330383 923.879456 -74.658005
v -544.895081 831.469604 -108.386536
v -693.519897 707.106812 -137.949905
v -815.493042 555.570251 -162.211838
v -906.127319 382.683411 -180.240173
v -961.939636 195.090302 -191.341812
v -980.785034 -0.000089 -195.090302
v -961.939636 -195.090378 -191.341751
v -906.127563 -382.683411 -180.239899
v -815.493042 -555.570190 -162.211563
v -693.519897 -707.106812 -137.949600
v -544.895081 -831.469666 -108.386169
v -375.330444 -923.879456 -74.657616
v -191.341736 -980.785278 -38.059975
v -195.090363 980.785217 -0.000187
v -382.683533 923.879456 -0.000155
v -555.570129 831.469604 -0.000172
v -707.106689 707.106812 -0.000237
v -831.469421 555.570251 -0.000181
v -923.879395 382.683411 -0.000232
v -980.785156 195.090347 -0.000124
v -999.999695 -0.000044 -0.000008
v -980.785156 -195.090332 -0.000036
v -923.879517 -382.683411 0.000076
v -831.469482 -555.570190 0.000086
v -707.106689 -707.106812 0.000083
v -555.570129 -831.469666 0.000204
v -382.683563 -923.879456 0.000241
v -195.090347 -980.785278 0.000264
v -191.341766 980.785217 38.060055
v -375.330353 923.879456 74.657700
v -544.894958 831.469604 108.386192
v -693.519836 707.106812 137.949463
v -815.492920 555.570251 162.211472
v -906.127258 382.683411 180.239700
v -961.939575 195.090393 191.341583
v -980.784912 0.000001 195.090240
v -961.939575 -195.090286 191.341644
v -906.127441 -382.683411 180.240051
v -815.493042 -555.570190 162.211746
v -693.519836 -707.106812 137.949768
v -544.894958 -831.469666 108.386559
v -375.330444 -923.879456 74.658104
v -191.341736 -980.785278 38.060501
v -180.239990 980.785217 74.657654
v -353.553467 923.879456 146.446472
v -513.279785 831.469604 212.607315
v -653.281372 707.106812 270.597748
v -768.177490 555.570251 318.189392
v -853.553345 382.683502 353.553131
v -906.127380 195.090439 375.330139
v -923.879211 0.000043 382.683258
v -906.127380 -195.090240 375.330200
v -853.553528 -382.683319 353.553497
v -768.177551 -555.570190 318.189636
v -653.281372 -707.106812 270.598114
v -513.279785 -831.469666 212.607681
v -353.553497 -923.879456 146.446930
v -180.239990 -980.785278 74.658112
v -162.211731 980.785217 108.386200
v -318.189789 923.879456 212.607437
v -461.939697 831.469604 308.658051
v -587.937805 707.106812 392.847229
v -691.341614 555.570435 461.939484
v -768.177673 382.683502 513.279663
v -815.493042 195.090485 544.894958
v -831.469238 0.000082 555.570068
v -815.493042 -195.090195 544.894958
v -768.177856 -382.683319 513.279968
v -691.341675 -555.570007 461.939697
v -587.937805 -707.106812 392.847534
v -461.939697 -831.469666 308.658417
v -318.189789 -923.879456 212.607864
v -162.211716 -980.785278 108.386658
v -137.949738 980.785217 137.949524
v -270.598145 923.879456 270.597992
v -392.847382 831.469604 392.847229
v -500.000031 707.106995 499.999756
v -587.937683 555.570435 587.937378
v -653.281433 382.683594 653.281250
v -693.519897 195.090485 693.519714
v -707.106384 0.000115 707.106506
v -693.519897 -195.090195 693.519714
v -653.281494 -382.683228 653.281555
v -587.937683 -555.570007 587.937744
v -500.000031 -707.106628 500.000061
v -392.847382 -831.469666 392.847595
v -270.598175 -923.879456 270.598419
v -137.949722 -980.785278 137.949966
v -108.386421 980.785217 162.211548
v -212.607620 923.879456 318.189545
v -308.658234 831.469788 461.939484
v -392.847565 707.106995 587.937561
v -461.939697 555.570435 691.341370
v -513.279968 382.683594 768.177490
v -544.895020 195.090530 815.492920
v -555.569824 0.000145 831.469238
v -544.895020 -195.090149 815.492920
v -513.279968 -382.683228 768.177795
v -461.939758 -555.570007 691.341614
v -392.847565 -707.106628 587.937805
v -308.658234 -831.469482 461.939850
v -212.607635 -923.879456 318.189972
v -108.386406 -980.785278 162.211945
v -74.657867 980.785217 180.239822
v -146.446686 923.879456 353.553284
v -212.607513 831.469788 513.279724
v -270.598175 707.106995 653.281311
v -318.189636 555.570435 768.177307
v -353.553436 382.683594 853.553101
v -375.330231 195.090530 906.127136
v -382.683167 0.000166 923.879028
v -375.330231 -195.090149 906.127258
v -353.553406 -382.683228 853.553406
v -318.189636 -555.570007 768.177612
v -270.598175 -707.106628 653.281555
v -212.607513 -831.469482 513.280090
v -146.446716 -923.879456 353.553711
v -74.657860 -980.785278 180.240219
v -38.060265 980.785217 191.341568
v -74.657883 923.879456 375.330261
v -108.386383 831.469788 544.894897
v -137.949844 707.106995 693.519714
v -162.211746 555.570435 815.492676
v -180.240082 382.683594 906.127136
v -191.341751 195.090576 961.939331
v -195.090134 0.000178 980.784790
v -191.341751 -195.090103 961.939453
v -180.239990 -382.683228 906.127441
v -162.211746 -555.570007 815.492981
v -137.949844 -707.106628 693.520081
v -108.386383 -831.469482 544.895264
v -74.657913 -923.879456 375.330627
v -38.060261 -980.785278 191.342010
v -0.000036 980.785217 195.090179
v -0.000038 923.879456 382.683380
v -0.000033 831.469788 555.569946
v -0.000171 707.106995 707.106506
v -0.000133 555.570435 831.469055
v -0.000179 382.683594 923.879333
v -0.000100 195.090576 980.784973
v 0.000092 0.000181 999.999390
v -0.000100 -195.090103 980.784973
v -0.000045 -382.683228 923.879456
v -0.000103 -555.570007 831.469543
v -0.000171 -707.106628 707.106873
v -0.000033 -831.469482 555.570312
v -0.000068 -923.879456 382.683746
v -0.000032 -980.785278 195.090622
v 38.060200 980.785217 191.341568
v 74.657814 923.879456 375.330200
v 108.386307 831.469788 544.894775
v 137.949493 707.106995 693.519653
v 162.211456 555.570435 815.492737
v 180.239731 382.683594 906.127258
v 191.341522 195.090576 961.939392
v 195.090286 0.000178 980.784607
v 191.341522 -195.090103 961.939514
v 180.239899 -382.683228 906.127502
v 162.211487 -555.570007 815.493042
v 137.949493 -707.106628 693.520020
v 108.386307 -831.469482 544.895142
v 74.657776 -923.879456 375.330566
v 38.060196 -980.785278 191.342010
v 74.657799 980.785217 180.239838
v 146.446594 923.879456 353.553284
v 212.607422 831.469788 513.279602
v 270.597809 707.106995 653.281311
v 318.189331 555.570435 768.177368
v 353.553101 382.683594 853.553162
v 375.329987 195.090530 906.127075
v 382.683228 0.000166 923.878906
v 375.329987 -195.090149 906.127197
v 353.553314 -382.683228 853.553467
v 318.189392 -555.570007 768.177673
v 270.597809 -707.106628 653.281555
v 212.607422 -831.469482 513.279968
v 146.446564 -923.879456 353.553711
v 74.657791 -980.785278 180.240234
v 108.386337 980.785217 162.211548
v 212.607513 923.879456 318.189545
v 308.658142 831.469788 461.939453
v 392.847198 707.106995 587.937622
v 461.939392 555.570435 691.341431
v 513.279663 382.683594 768.177551
v 544.894836 195.090530 815.492920
v 555.569946 0.000145 831.468933
v 544.894836 -195.090149 815.492920
v 513.279846 -382.683228 768.177734
v 461.939423 -555.570007 691.341736
v 392.847198 -707.106628 587.937866
v 308.658142 -831.469482 461.939819
v 212.607498 -923.879456 318.189972
v 108.386322 -980.785278 162.211960
v 137.949646 980.785217 137.949554
v 270.598022 923.879456 270.597900
v 392.847260 831.469604 392.847168
v 499.999756 707.106995 499.999878
v 587.937378 555.570435 587.937500
v 653.281128 382.683594 653.281311
v 693.519531 195.090485 693.519714
v 707.106323 0.000115 707.106140
v 693.519531 -195.090195 693.519714
v 653.281372 -382.683228 653.281433
v 587.937439 -555.570007 587.937866
v 499.999756 -707.106628 500.000183
v 392.847260 -831.469666 392.847534
v 270.597992 -923.879456 270.598328
v 137.949631 -980.785278 137.949997
v 162.211609 980.785217 108.386246
v 318.189606 923.879456 212.607391
v 461.939484 831.469604 308.657990
v 587.937439 707.106812 392.847382
v 691.341187 555.570435 461.939667
v 768.177368 382.683502 513.279968
v 815.492676 195.090485 544.894958
v 831.468994 0.000082 555.569580
v 815.492676 -195.090195 544.894958
v 768.177612 -382.683319 513.280029
v 691.341309 -555.570007 461.939850
v 587.937439 -707.106812 392.847687
v 461.939484 -831.469666 308.658356
v 318.189575 -923.879456 212.607819
v 162.211609 -980.785278 108.386688
v 0.000081 1000.000000 -0.000104
v 180.239929 980.785217 74.657707
v 353.553345 923.879456 146.446487
v 513.279663 831.469604 212.607330
v 653.281250 707.106812 270.597992
v 768.177368 555.570251 318.189606
v 853.552979 382.683502 353.553345
v 906.126892 195.090439 375.330170
v 923.878723 0.000043 382.682922
v 906.126892 -195.090240 375.330231
v 853.553223 -382.683319 353.553436
v 768.177429 -555.570190 318.189850
v 653.281250 -707.106812 270.598358
v 513.279663 -831.469666 212.607697
v 353.553314 -923.879456 146.446945
v 180.239899 -980.785278 74.658150
v 191.341690 980.785217 38.060112
v 375.330200 923.879456 74.657730
v 544.894836 831.469604 108.386223
v 693.519775 707.106812 137.949692
v 815.492798 555.570251 162.211655
v 906.127197 382.683411 180.239960
v 961.939209 195.090393 191.341690
v 980.784424 0.000001 195.089935
v 961.939209 -195.090286 191.341751
v 906.127258 -382.683411 180.240051
v 815.492798 -555.570190 162.211899
v 693.519775 -707.106812 137.949997
v 544.894836 -831.469666 108.386589
v 375.330170 -923.879456 74.658150
v 191.341644 -980.785278 38.060551
v 195.090271 980.785217 -0.000116
v 382.683350 923.879456 -0.000096
v 555.569885 831.469604 -0.000097
v 707.106567 707.106812 0.000054
v 831.469177 555.570251 0.000066
v 923.879272 382.683411 0.000077
v 980.784790 195.090347 0.000054
v 999.999084 -0.000044 -0.000212
v 980.784790 -195.090332 0.000142
v 923.879333 -382.683411 0.000131
v 831.469177 -555.570190 0.000303
v 707.106567 -707.106812 0.000374
v 555.569885 -831.469666 0.000279
v 382.683289 -923.879456 0.000337
v 195.090256 -980.785278 0.000325
v 191.341675 980.785217 -38.060341
v 375.330170 923.879456 -74.657913
v 544.894775 831.469604 -108.386406
v 693.519653 707.106812 -137.949600
v 815.492676 555.570251 -162.211533
v 906.127075 382.683411 -180.239822
v 961.939209 195.090302 -191.341568
v 980.784241 -0.000089 -195.090332
v 961.939209 -195.090378 -191.341507
v 906.127258 -382.683411 -180.239792
v 815.492676 -555.570190 -162.211319
v 693.519653 -707.106812 -137.949295
v 544.894775 -831.469666 -108.386040
v 375.330139 -923.879456 -74.657486
v 191.341629 -980.785278 -38.059895
v 180.239899 980.785217 -74.657944
v 353.553223 923.879456 -146.446686
v 513.279602 831.469604 -212.607483
v 653.281250 707.106812 -270.597931
v 768.177368 555.570251 -318.189423
v 853.553223 382.683319 -353.553192
v 906.127075 195.090256 -375.330048
v 923.878601 -0.000131 -382.683228
v 906.127075 -195.090424 -375.329987
v 853.553223 -382.683502 -353.553223
v 768.177368 -555.570190 -318.189178
v 653.281250 -707.106812 -270.597565
v 513.279602 -831.469666 -212.607117
v 353.553223 -923.879456 -146.446213
v 180.239868 -980.785278 -74.657478
v 162.211639 980.785217 -108.386475
v 318.189514 923.879456 -212.607590
v 461.939453 831.469604 -308.658203
v 587.937683 707.106812 -392.847321
v 691.341431 555.570068 -461.939423
v 768.177551 382.683319 -513.279602
v 815.492737 195.090210 -544.894775
v 831.468628 -0.000170 -555.569885
v 815.492737 -195.090469 -544.894775
v 768.177551 -382.683502 -513.279663
v 691.341431 -555.570374 -461.939240
v 587.937683 -707.106812 -392.847015
v 461.939453 -831.469666 -308.657837
v 318.189514 -923.879456 -212.607132
v 162.211624 -980.785278 -108.386002
v 137.949646 980.785217 -137.949783
v 270.597931 923.879456 -270.598083
v 392.847168 831.469604 -392.847290
v 499.999878 707.106628 -499.999786
v 587.937622 555.570068 -587.937500
v 653.281372 382.683228 -653.281250
v 693.519531 195.090210 -693.519470
v 707.105835 -0.000203 -707.106201
v 693.519531 -195.090469 -693.519470
v 653.281372 -382.683594 -653.281189
v 587.937622 -555.570374 -587.937134
v 499.999878 -707.106995 -499.999481
v 392.847168 -831.469666 -392.846924
v 270.597931 -923.879456 -270.597626
v 137.949631 -980.785278 -137.949295
v 108.386337 980.785217 -162.211746
v 212.607422 923.879456 -318.189636
v 308.657959 831.469421 -461.939514
v 392.847412 707.106628 -587.937561
v 461.939575 555.570068 -691.341309
v 513.279846 382.683228 -768.177429
v 544.894836 195.090164 -815.492676
v 555.569336 -0.000233 -831.468872
v 544.894836 -195.090515 -815.492676
v 513.279846 -382.683594 -768.177429
v 461.939575 -555.570374 -691.341064
v 392.847412 -707.106995 -587.937317
v 308.657959 -831.469849 -461.939148
v 212.607422 -923.879456 -318.189209
v 108.386330 -980.785278 -162.211288
v 74.657799 980.785217 -180.240005
v 146.446533 923.879456 -353.553375
v 212.607300 831.469421 -513.279663
v 270.598022 707.106628 -653.281250
v 318.189545 555.570068 -768.177246
v 353.553284 382.683228 -853.553101
v 375.330078 195.090164 -906.127014
v 382.682709 -0.000254 -923.878540
v 375.330078 -195.090515 -906.126892
v 353.553284 -382.683594 -853.553040
v 318.189545 -555.570374 -768.177002
v 270.598022 -707.106995 -653.281006
v 212.607300 -831.469849 -513.279297
v 146.446548 -923.879456 -353.552917
v 74.657799 -980.785278 -180.239548
v 38.060207 980.785217 -191.341782
v 74.657768 923.879456 -375.330231
v 108.386238 831.469421 -544.894714
v 137.949722 707.106628 -693.519775
v 162.211685 555.570068 -815.492615
v 180.239929 382.683228 -906.127014
v 191.341583 195.090118 -961.939209
v 195.089752 -0.000266 -980.784180
v 191.341583 -195.090561 -961.939087
v 180.239868 -382.683594 -906.127075
v 162.211685 -555.570374 -815.492371
v 137.949722 -707.106995 -693.519409
v 108.386238 -831.469849 -544.894348
v 74.657791 -923.879456 -375.329865
v 38.060215 -980.785278 -191.341293
v -0.000365 -0.000269 -999.998779
v -0.000054 -195.090561 -980.784668
v -0.000034 -382.683594 -923.879272
v -0.000003 -923.879456 -382.682953
v 0.000006 -980.785278 -195.089890
v -0.000000 -1000.000000 0.000312
vn 0.0097 -0.9951 0.0980
vn 0.0097 0.9951 0.0980
vn 0.0975 0.0975 0.9904
vn 0.0286 -0.9565 0.2902
vn 0.0938 0.2890 0.9527
vn 0.0464 -0.8810 0.4709
vn 0.0865 0.4696 0.8786
vn 0.0624 -0.7715 0.6332
vn 0.0759 0.6326 0.7708
vn 0.0759 -0.6326 0.7708
vn 0.0624 0.7715 0.6332
vn 0.0865 -0.4696 0.8786
vn 0.0464 0.8810 0.4709
vn 0.0938 -0.2890 0.9527
vn 0.0286 0.9565 0.2902
vn 0.0975 -0.0975 0.9904
vn 0.2779 -0.2890 0.9161
vn 0.0846 0.9565 0.2790
vn 0.2889 -0.0975 0.9524
vn 0.0286 -0.9951 0.0942
vn 0.0286 0.9951 0.0942
vn 0.2889 0.0975 0.9524
vn 0.0846 -0.9565 0.2790
vn 0.2779 0.2890 0.9161
vn 0.1374 -0.8810 0.4528
vn 0.2563 0.4696 0.8448
vn 0.1847 -0.7715 0.6088
vn 0.2248 0.6326 0.7412
vn 0.2248 -0.6326 0.7412
vn 0.1847 0.7715 0.6088
vn 0.2563 -0.4696 0.8448
vn 0.1374 0.8810 0.4528
vn 0.4162 0.4696 0.7786
vn 0.2999 -0.7715 0.5611
vn 0.3651 0.6326 0.6831
vn 0.3651 -0.6326 0.6831
vn 0.2999 0.7715 0.5611
vn 0.4162 -0.4696 0.7786
vn 0.2230 0.8810 0.4173
vn 0.4513 -0.2890 0.8443
vn 0.1374 0.9565 0.2571
vn 0.4691 -0.0975 0.8777
vn 0.0464 -0.9951 0.0869
vn 0.0464 0.9951 0.0869
vn 0.4691 0.0975 0.8777
vn 0.4691 0.0976 0.8777
vn 0.1374 -0.9565 0.2571
vn 0.4513 0.2890 0.8443
vn 0.2231 -0.8810 0.4173
vn 0.2230 -0.8810 0.4173
vn 0.1850 0.9565 0.2254
vn 0.6314 -0.0975 0.7693
vn 0.0625 -0.9951 0.0761
vn 0.0625 0.9951 0.0761
vn 0.6314 0.0975 0.7693
vn 0.1850 -0.9565 0.2254
vn 0.6073 0.2890 0.7400
vn 0.3002 -0.8810 0.3658
vn 0.5601 0.4696 0.6825
vn 0.4036 -0.7715 0.4918
vn 0.4913 0.6326 0.5987
vn 0.4913 -0.6326 0.5987
vn 0.4036 0.7715 0.4918
vn 0.5601 -0.4696 0.6825
vn 0.3002 0.8810 0.3658
vn 0.6073 -0.2890 0.7400
vn 0.5987 0.6326 0.4913
vn 0.5987 -0.6326 0.4913
vn 0.4918 0.7715 0.4036
vn 0.6825 -0.4696 0.5601
vn 0.3658 0.8810 0.3002
vn 0.7400 -0.2890 0.6073
vn 0.2254 0.9565 0.1850
vn 0.7693 -0.0975 0.6314
vn 0.0761 -0.9951 0.0625
vn 0.0761 0.9951 0.0625
vn 0.7693 0.0975 0.6314
vn 0.7693 0.0976 0.6314
vn 0.2254 -0.9565 0.1850
vn 0.7400 0.2890 0.6073
vn 0.3658 -0.8810 0.3002
vn 0.6825 0.4696 0.5601
vn 0.4918 -0.7715 0.4036
vn 0.0869 -0.9951 0.0464
vn 0.0869 0.9951 0.0464
vn 0.8777 0.0975 0.4691
vn 0.2571 -0.9565 0.1374
vn 0.8443 0.2890 0.4513
vn 0.4173 -0.8810 0.2231
vn 0.4173 -0.8810 0.2230
vn 0.7786 0.4696 0.4162
vn 0.5611 -0.7715 0.2999
vn 0.6831 0.6326 0.3651
vn 0.6831 -0.6326 0.3651
vn 0.5611 0.7715 0.2999
vn 0.7786 -0.4696 0.4162
vn 0.4173 0.8810 0.2231
vn 0.4173 0.8810 0.2230
vn 0.8443 -0.2890 0.4513
vn 0.2571 0.9565 0.1374
vn 0.8777 -0.0975 0.4691
vn 0.7412 -0.6326 0.2248
vn 0.6088 0.7715 0.1847
vn 0.8448 -0.4696 0.2563
vn 0.4528 0.8810 0.1374
vn 0.9161 -0.2890 0.2779
vn 0.2790 0.9565 0.0846
vn 0.9524 -0.0975 0.2889
vn 0.0942 -0.9951 0.0286
vn 0.0942 0.9951 0.0286
vn 0.9524 0.0975 0.2889
vn 0.2790 -0.9565 0.0846
vn 0.9161 0.2890 0.2779
vn 0.4528 -0.8810 0.1374
vn 0.8448 0.4696 0.2563
vn 0.6088 -0.7715 0.1847
vn 0.7412 0.6326 0.2248
vn 0.9904 0.0975 0.0975
vn 0.2902 -0.9565 0.0286
vn 0.9527 0.2890 0.0938
vn 0.4709 -0.8810 0.0464
vn 0.8786 0.4696 0.0865
vn 0.6332 -0.7715 0.0624
vn 0.7708 0.6326 0.0759
vn 0.7708 -0.6326 0.0759
vn 0.6332 0.7715 0.0624
vn 0.8786 -0.4696 0.0865
vn 0.4709 0.8810 0.0464
vn 0.9527 -0.2890 0.0938
vn 0.2902 0.9565 0.0286
vn 0.9904 -0.0975 0.0975
vn 0.0980 -0.9951 0.0097
vn 0.0980 0.9951 0.0097
vn 0.6332 0.7715 -0.0624
vn 0.8786 -0.4696 -0.0865
vn 0.4709 0.8810 -0.0464
vn 0.9527 -0.2890 -0.0938
vn 0.2902 0.9565 -0.0286
vn 0.9904 -0.0975 -0.0975
vn 0.0980 -0.9951 -0.0097
vn 0.0980 0.9951 -0.0097
vn 0.9904 0.0975 -0.0975
vn 0.2902 -0.9565 -0.0286
vn 0.9527 0.2890 -0.0938
vn 0.4709 -0.8810 -0.0464
vn 0.8786 0.4696 -0.0865
vn 0.6332 -0.7715 -0.0624
vn 0.7708 0.6326 -0.0759
vn 0.7708 -0.6326 -0.0759
vn 0.2790 -0.9565 -0.0846
vn 0.9161 0.2890 -0.2779
vn 0.4528 -0.8810 -0.1374
vn 0.8448 0.4696 -0.2563
vn 0.6088 -0.7715 -0.1847
vn 0.7412 0.6326 -0.2248
vn 0.7412 -0.6326 -0.2248
vn 0.6088 0.7715 -0.1847
vn 0.8448 -0.4696 -0.2563
vn 0.4528 0.8810 -0.1374
vn 0.9161 -0.2890 -0.2779
vn 0.2790 0.9565 -0.0846
vn 0.9524 -0.0975 -0.2889
vn 0.0942 -0.9951 -0.0286
vn 0.0942 0.9951 -0.0286
vn 0.9524 0.0975 -0.2889
vn 0.7786 -0.4696 -0.4162
vn 0.4173 0.8810 -0.2230
vn 0.4173 0.8810 -0.2231
vn 0.8443 -0.2890 -0.4513
vn 0.2571 0.9565 -0.1374
vn 0.8777 -0.0975 -0.4691
vn 0.0869 -0.9951 -0.0464
vn 0.0869 0.9951 -0.0464
vn 0.8777 0.0975 -0.4691
vn 0.2571 -0.9565 -0.1374
vn 0.8443 0.2890 -0.4513
vn 0.4173 -0.8810 -0.2230
vn 0.7786 0.4696 -0.4162
vn 0.5611 -0.7715 -0.2999
vn 0.6831 0.6326 -0.3651
vn 0.6831 -0.6326 -0.3651
vn 0.5611 0.7715 -0.2999
vn 0.7400 0.2890 -0.6073
vn 0.3658 -0.8810 -0.3002
vn 0.6825 0.4696 -0.5601
vn 0.4918 -0.7715 -0.4036
vn 0.5987 0.6326 -0.4913
vn 0.5987 -0.6326 -0.4913
vn 0.4918 0.7715 -0.4036
vn 0.6825 -0.4696 -0.5601
vn 0.3658 0.8810 -0.3002
vn 0.7400 -0.2890 -0.6073
vn 0.2254 0.9565 -0.1850
vn 0.7693 -0.0975 -0.6314
vn 0.0761 -0.9951 -0.0625
vn 0.0761 0.9951 -0.0625
vn 0.7693 0.0975 -0.6314
vn 0.2254 -0.9565 -0.1850
vn 0.3002 0.8810 -0.3658
vn 0.6073 -0.2890 -0.7400
vn 0.1850 0.9565 -0.2254
vn 0.6314 -0.0975 -0.7693
vn 0.0625 -0.9951 -0.0761
vn 0.0625 0.9951 -0.0761
vn 0.6314 0.0975 -0.7693
vn 0.1850 -0.9565 -0.2254
vn 0.6073 0.2890 -0.7400
vn 0.3002 -0.8810 -0.3658
vn 0.5601 0.4696 -0.6825
vn 0.4036 -0.7715 -0.4918
vn 0.4913 0.6326 -0.5987
vn 0.4913 -0.6326 -0.5987
vn 0.4036 0.7715 -0.4918
vn 0.5601 -0.4696 -0.6825
vn 0.4162 0.4696 -0.7786
vn 0.2999 -0.7715 -0.5611
vn 0.3651 0.6326 -0.6831
vn 0.3651 -0.6326 -0.6831
vn 0.2999 0.7715 -0.5611
vn 0.4162 -0.4696 -0.7786
vn 0.2231 0.8810 -0.4173
vn 0.2230 0.8810 -0.4173
vn 0.4513 -0.2890 -0.8443
vn 0.1374 0.9565 -0.2571
vn 0.4691 -0.0975 -0.8777
vn 0.0464 -0.9951 -0.0869
vn 0.0464 0.9951 -0.0869
vn 0.4691 0.0975 -0.8777
vn 0.1374 -0.9565 -0.2571
vn 0.4513 0.2890 -0.8443
vn 0.2230 -0.8810 -0.4173
vn 0.0846 0.9565 -0.2790
vn 0.2889 -0.0975 -0.9524
vn 0.0286 -0.9951 -0.0942
vn 0.0286 0.9951 -0.0942
vn 0.2889 0.0975 -0.9524
vn 0.0846 -0.9565 -0.2790
vn 0.2779 0.2890 -0.9161
vn 0.1374 -0.8810 -0.4528
vn 0.2563 0.4696 -0.8448
vn 0.1847 -0.7715 -0.6088
vn 0.2248 0.6326 -0.7412
vn 0.2248 -0.6326 -0.7412
vn 0.1847 0.7715 -0.6088
vn 0.2563 -0.4696 -0.8448
vn 0.1374 0.8810 -0.4528
vn 0.2779 -0.2890 -0.9161
vn 0.0624 -0.7715 -0.6332
vn 0.0759 0.6326 -0.7708
vn 0.0759 -0.6326 -0.7708
vn 0.0624 0.7715 -0.6332
vn 0.0865 -0.4696 -0.8786
vn 0.0464 0.8810 -0.4709
vn 0.0938 -0.2890 -0.9527
vn 0.0286 0.9565 -0.2902
vn 0.0975 -0.0975 -0.9904
vn 0.0097 -0.9951 -0.0980
vn 0.0097 0.9951 -0.0980
vn 0.0975 0.0975 -0.9904
vn 0.0976 0.0975 -0.9904
vn 0.0286 -0.9565 -0.2902
vn 0.0938 0.2890 -0.9527
vn 0.0464 -0.8810 -0.4709
vn 0.0865 0.4696 -0.8786
vn -0.0976 -0.0975 -0.9904
vn -0.0097 -0.9951 -0.0980
vn -0.0097 0.9951 -0.0980
vn -0.0976 0.0975 -0.9904
vn -0.0286 -0.9565 -0.2902
vn -0.0938 0.2890 -0.9527
vn -0.0464 -0.8810 -0.4709
vn -0.0865 0.4696 -0.8786
vn -0.0624 -0.7715 -0.6332
vn -0.0759 0.6326 -0.7708
vn -0.0759 -0.6326 -0.7708
vn -0.0624 0.7715 -0.6332
vn -0.0865 -0.4696 -0.8786
vn -0.0464 0.8810 -0.4709
vn -0.0938 -0.2890 -0.9527
vn -0.0286 0.9565 -0.2902
vn -0.2248 0.6326 -0.7412
vn -0.2248 -0.6326 -0.7412
vn -0.1847 0.7715 -0.6088
vn -0.2563 -0.4696 -0.8448
vn -0.1374 0.8810 -0.4528
vn -0.2779 -0.2890 -0.9161
vn -0.0846 0.9565 -0.2790
vn -0.2889 -0.0975 -0.9524
vn -0.0286 -0.9951 -0.0942
vn -0.0286 0.9951 -0.0942
vn -0.2889 0.0975 -0.9524
vn -0.0846 -0.9565 -0.2790
vn -0.2779 0.2890 -0.9161
vn -0.1374 -0.8810 -0.4528
vn -0.2563 0.4696 -0.8448
vn -0.1847 -0.7715 -0.6088
vn -0.0464 -0.9951 -0.0869
vn -0.0464 0.9951 -0.0869
vn -0.4691 0.0975 -0.8777
vn -0.1374 -0.9565 -0.2571
vn -0.4513 0.2890 -0.8443
vn -0.2230 -0.8810 -0.4173
vn -0.4162 0.4696 -0.7786
vn -0.2999 -0.7715 -0.5611
vn -0.3651 0.6326 -0.6831
vn -0.3651 -0.6326 -0.6831
vn -0.2999 0.7715 -0.5611
vn -0.4162 -0.4696 -0.7786
vn -0.2230 0.8810 -0.4173
vn -0.2231 0.8810 -0.4173
vn -0.4513 -0.2890 -0.8443
vn -0.1374 0.9565 -0.2571
vn -0.4691 -0.0975 -0.8777
vn -0.4913 -0.6326 -0.5987
vn -0.4036 0.7715 -0.4918
vn -0.5601 -0.4696 -0.6825
vn -0.3002 0.8810 -0.3658
vn -0.6073 -0.2890 -0.7400
vn -0.1850 0.9565 -0.2254
vn -0.6314 -0.0975 -0.7693
vn -0.0625 -0.9951 -0.0761
vn -0.0625 0.9951 -0.0761
vn -0.6314 0.0975 -0.7693
vn -0.1850 -0.9565 -0.2254
vn -0.6073 0.2890 -0.7400
vn -0.3002 -0.8810 -0.3658
vn -0.5601 0.4696 -0.6825
vn -0.4036 -0.7715 -0.4918
vn -0.4913 0.6326 -0.5987
vn -0.7693 0.0975 -0.6314
vn -0.2254 -0.9565 -0.1850
vn -0.7400 0.2890 -0.6073
vn -0.3658 -0.8810 -0.3002
vn -0.6825 0.4696 -0.5601
vn -0.4918 -0.7715 -0.4036
vn -0.5987 0.6326 -0.4913
vn -0.5987 -0.6326 -0.4913
vn -0.4918 0.7715 -0.4036
vn -0.6825 -0.4696 -0.5601
vn -0.3658 0.8810 -0.3002
vn -0.7400 -0.2890 -0.6073
vn -0.2254 0.9565 -0.1850
vn -0.7693 -0.0975 -0.6314
vn -0.0761 -0.9951 -0.0625
vn -0.0761 0.9951 -0.0625
vn -0.5611 0.7715 -0.2999
vn -0.7786 -0.4696 -0.4162
vn -0.4173 0.8810 -0.2230
vn -0.8443 -0.2890 -0.4513
vn -0.2571 0.9565 -0.1374
vn -0.8777 -0.0975 -0.4691
vn -0.0869 -0.9951 -0.0464
vn -0.0869 0.9951 -0.0464
vn -0.8777 0.0975 -0.4691
vn -0.2571 -0.9565 -0.1374
vn -0.8443 0.2890 -0.4513
vn -0.4173 -0.8810 -0.2230
vn -0.7786 0.4696 -0.4162
vn -0.5611 -0.7715 -0.2999
vn -0.6831 0.6326 -0.3651
vn -0.6831 -0.6326 -0.3651
vn -0.9161 0.2890 -0.2779
vn -0.4528 -0.8810 -0.1374
vn -0.8448 0.4696 -0.2563
vn -0.6088 -0.7715 -0.1847
vn -0.7412 0.6326 -0.2248
vn -0.7412 -0.6326 -0.2248
vn -0.6088 0.7715 -0.1847
vn -0.8448 -0.4696 -0.2563
vn -0.4528 0.8810 -0.1374
vn -0.9161 -0.2890 -0.2779
vn -0.2790 0.9565 -0.0846
vn -0.9524 -0.0975 -0.2889
vn -0.0942 -0.9951 -0.0286
vn -0.0942 0.9951 -0.0286
vn -0.9524 0.0975 -0.2889
vn -0.2790 -0.9565 -0.0846
vn -0.4709 0.8810 -0.0464
vn -0.9527 -0.2890 -0.0938
vn -0.2902 0.9565 -0.0286
vn -0.9904 -0.0975 -0.0975
vn -0.0980 -0.9951 -0.0097
vn -0.0980 0.9951 -0.0097
vn -0.9904 0.0975 -0.0975
vn -0.9904 0.0975 -0.0976
vn -0.2902 -0.9565 -0.0286
vn -0.9527 0.2890 -0.0938
vn -0.4709 -0.8810 -0.0464
vn -0.8786 0.4696 -0.0865
vn -0.6332 -0.7715 -0.0624
vn -0.7708 0.6326 -0.0759
vn -0.7708 -0.6326 -0.0759
vn -0.6332 0.7715 -0.0624
vn -0.8786 -0.4696 -0.0865
vn -0.4709 -0.8810 0.0464
vn -0.8786 0.4696 0.0865
vn -0.6332 -0.7715 0.0624
vn -0.7708 0.6326 0.0759
vn -0.7708 -0.6326 0.0759
vn -0.6332 0.7715 0.0624
vn -0.8786 -0.4696 0.0865
vn -0.4709 0.8810 0.0464
vn -0.9527 -0.2890 0.0938
vn -0.2902 0.9565 0.0286
vn -0.9904 -0.0975 0.0976
vn -0.0980 -0.9951 0.0097
vn -0.0980 0.9951 0.0097
vn -0.9904 0.0975 0.0976
vn -0.9904 0.0975 0.0975
vn -0.2902 -0.9565 0.0286
vn -0.9527 0.2890 0.0938
vn -0.9161 -0.2890 0.2779
vn -0.2790 0.9565 0.0846
vn -0.9524 -0.0975 0.2889
vn -0.0942 -0.9951 0.0286
vn -0.0942 0.9951 0.0286
vn -0.9524 0.0975 0.2889
vn -0.2790 -0.9565 0.0846
vn -0.9161 0.2890 0.2779
vn -0.4528 -0.8810 0.1374
vn -0.8448 0.4696 0.2563
vn -0.6088 -0.7715 0.1847
vn -0.7412 0.6326 0.2248
vn -0.7412 -0.6326 0.2248
vn -0.6088 0.7715 0.1847
vn -0.8448 -0.4696 0.2563
vn -0.4528 0.8810 0.1374
vn -0.7786 0.4696 0.4162
vn -0.5611 -0.7715 0.2999
vn -0.6831 0.6326 0.3651
vn -0.6831 -0.6326 0.3651
vn -0.5611 0.7715 0.2999
vn -0.7786 -0.4696 0.4162
vn -0.4173 0.8810 0.2230
vn -0.8443 -0.2890 0.4513
vn -0.2571 0.9565 0.1374
vn -0.8777 -0.0975 0.4691
vn -0.0869 -0.9951 0.0464
vn -0.0869 0.9951 0.0464
vn -0.8777 0.0975 0.4691
vn -0.2571 -0.9565 0.1374
vn -0.8443 0.2890 0.4513
vn -0.4173 -0.8810 0.2230
vn -0.4173 -0.8810 0.2231
vn -0.2254 0.9565 0.1850
vn -0.7693 -0.0975 0.6314
vn -0.0761 -0.9951 0.0625
vn -0.0761 0.9951 0.0625
vn -0.7693 0.0975 0.6314
vn -0.2254 -0.9565 0.1850
vn -0.7400 0.2890 0.6073
vn -0.3658 -0.8810 0.3002
vn -0.6825 0.4696 0.5601
vn -0.4918 -0.7715 0.4036
vn -0.5987 0.6326 0.4913
vn -0.5987 -0.6326 0.4913
vn -0.4918 0.7715 0.4036
vn -0.6825 -0.4696 0.5601
vn -0.3658 0.8810 0.3002
vn -0.7400 -0.2890 0.6073
vn -0.4036 -0.7715 0.4918
vn -0.4913 0.6326 0.5987
vn -0.4913 -0.6326 0.5987
vn -0.4036 0.7715 0.4918
vn -0.5601 -0.4696 0.6825
vn -0.3002 0.8810 0.3658
vn -0.6073 -0.2890 0.7400
vn -0.1850 0.9565 0.2254
vn -0.6314 -0.0975 0.7693
vn -0.0625 -0.9951 0.0761
vn -0.0625 0.9951 0.0761
vn -0.6314 0.0975 0.7693
vn -0.1850 -0.9565 0.2254
vn -0.6073 0.2890 0.7400
vn -0.3002 -0.8810 0.3658
vn -0.5601 0.4696 0.6825
vn -0.4691 -0.0975 0.8777
vn -0.0464 -0.9951 0.0869
vn -0.0464 0.9951 0.0869
vn -0.4691 0.0975 0.8777
vn -0.1374 -0.9565 0.2571
vn -0.4513 0.2890 0.8443
vn -0.2231 -0.8810 0.4173
vn -0.2230 -0.8810 0.4173
vn -0.4162 0.4696 0.7786
vn -0.2999 -0.7715 0.5611
vn -0.3651 0.6326 0.6831
vn -0.3651 -0.6326 0.6831
vn -0.2999 0.7715 0.5611
vn -0.4162 -0.4696 0.7786
vn -0.2230 0.8810 0.4173
vn -0.4513 -0.2890 0.8443
vn -0.1374 0.9565 0.2571
vn -0.1374 0.9566 0.2571
vn -0.2248 0.6326 0.7412
vn -0.2248 -0.6326 0.7412
vn -0.1847 0.7715 0.6088
vn -0.2563 -0.4696 0.8448
vn -0.1374 0.8810 0.4528
vn -0.2779 -0.2890 0.9161
vn -0.0846 0.9565 0.2790
vn -0.2889 -0.0975 0.9524
vn -0.0286 -0.9951 0.0942
vn -0.0286 0.9951 0.0942
vn -0.2889 0.0975 0.9524
vn -0.0846 -0.9565 0.2790
vn -0.2779 0.2890 0.9161
vn -0.1374 -0.8810 0.4528
vn -0.2563 0.4696 0.8448
vn -0.1847 -0.7715 0.6088
vn -0.0097 0.9951 0.0980
vn -0.0975 0.0975 0.9904
vn -0.0286 -0.9565 0.2902
vn -0.0938 0.2890 0.9527
vn -0.0464 -0.8810 0.4709
vn -0.0865 0.4696 0.8786
vn -0.0624 -0.7715 0.6332
vn -0.0759 0.6326 0.7708
vn -0.0759 -0.6326 0.7708
vn -0.0624 0.7715 0.6332
vn -0.0865 -0.4696 0.8786
vn -0.0464 0.8810 0.4709
vn -0.0938 -0.2890 0.9527
vn -0.0286 0.9565 0.2902
vn -0.0976 -0.0975 0.9904
vn -0.0975 -0.0975 0.9904
vn -0.0097 -0.9951 0.0980
vn 0.2889 0.0976 0.9524
vn 0.7693 -0.0976 0.6314
vn 0.8777 -0.0976 0.4691
vn 0.0976 -0.0975 -0.9904
vn -0.9904 -0.0975 -0.0976
vn -0.2571 -0.9566 0.1374
vt 0.750000 0.937500
vt 0.734375 1.000000
vt 0.718750 0.937500
vt 0.734375 0.000000
vt 0.750000 0.062500
vt 0.718750 0.062500
vt 0.750000 0.500000
vt 0.718750 0.437500
vt 0.750000 0.437500
vt 0.718750 0.875000
vt 0.750000 0.875000
vt 0.718750 0.375000
vt 0.750000 0.375000
vt 0.718750 0.812500
vt 0.750000 0.812500
vt 0.718750 0.312500
vt 0.750000 0.312500
vt 0.718750 0.750000
vt 0.750000 0.750000
vt 0.718750 0.250000
vt 0.750000 0.250000
vt 0.718750 0.687500
vt 0.750000 0.687500
vt 0.750000 0.187500
vt 0.718750 0.187500
vt 0.718750 0.625000
vt 0.750000 0.625000
vt 0.718750 0.125000
vt 0.750000 0.125000
vt 0.750000 0.562500
vt 0.718750 0.562500
vt 0.718750 0.500000
vt 0.687500 0.562500
vt 0.687500 0.125000
vt 0.687500 0.062500
vt 0.687500 0.500000
vt 0.703125 1.000000
vt 0.687500 0.937500
vt 0.703125 0.000000
vt 0.687500 0.437500
vt 0.687500 0.875000
vt 0.687500 0.375000
vt 0.687500 0.812500
vt 0.687500 0.312500
vt 0.687500 0.750000
vt 0.687500 0.250000
vt 0.687500 0.687500
vt 0.687500 0.187500
vt 0.687500 0.625000
vt 0.656250 0.375000
vt 0.656250 0.312500
vt 0.656250 0.750000
vt 0.656250 0.250000
vt 0.656250 0.687500
vt 0.656250 0.187500
vt 0.656250 0.625000
vt 0.656250 0.125000
vt 0.656250 0.562500
vt 0.656250 0.062500
vt 0.656250 0.500000
vt 0.671875 1.000000
vt 0.656250 0.937500
vt 0.671875 0.000000
vt 0.656250 0.437500
vt 0.656250 0.875000
vt 0.656250 0.812500
vt 0.625000 0.062500
vt 0.625000 0.562500
vt 0.625000 0.500000
vt 0.640625 1.000000
vt 0.625000 0.937500
vt 0.640625 0.000000
vt 0.625000 0.437500
vt 0.625000 0.875000
vt 0.625000 0.375000
vt 0.625000 0.812500
vt 0.625000 0.312500
vt 0.625000 0.750000
vt 0.625000 0.250000
vt 0.625000 0.687500
vt 0.625000 0.187500
vt 0.625000 0.625000
vt 0.625000 0.125000
vt 0.593750 0.250000
vt 0.593750 0.687500
vt 0.593750 0.187500
vt 0.593750 0.625000
vt 0.593750 0.125000
vt 0.593750 0.562500
vt 0.593750 0.062500
vt 0.593750 0.500000
vt 0.609375 1.000000
vt 0.593750 0.937500
vt 0.609375 0.000000
vt 0.593750 0.437500
vt 0.593750 0.875000
vt 0.593750 0.375000
vt 0.593750 0.812500
vt 0.593750 0.312500
vt 0.593750 0.750000
vt 0.578125 1.000000
vt 0.562500 0.937500
vt 0.578125 0.000000
vt 0.562500 0.062500
vt 0.562500 0.437500
vt 0.562500 0.875000
vt 0.562500 0.375000
vt 0.562500 0.812500
vt 0.562500 0.312500
vt 0.562500 0.750000
vt 0.562500 0.250000
vt 0.562500 0.687500
vt 0.562500 0.187500
vt 0.562500 0.625000
vt 0.562500 0.125000
vt 0.562500 0.562500
vt 0.562500 0.500000
vt 0.531250 0.750000
vt 0.531250 0.687500
vt 0.531250 0.250000
vt 0.531250 0.187500
vt 0.531250 0.625000
vt 0.531250 0.125000
vt 0.531250 0.562500
vt 0.531250 0.062500
vt 0.531250 0.500000
vt 0.546875 1.000000
vt 0.531250 0.937500
vt 0.546875 0.000000
vt 0.531250 0.437500
vt 0.531250 0.875000
vt 0.531250 0.375000
vt 0.531250 0.812500
vt 0.531250 0.312500
vt 0.500000 0.437500
vt 0.500000 0.937500
vt 0.500000 0.875000
vt 0.500000 0.375000
vt 0.500000 0.812500
vt 0.500000 0.312500
vt 0.500000 0.750000
vt 0.500000 0.250000
vt 0.500000 0.687500
vt 0.500000 0.187500
vt 0.500000 0.625000
vt 0.500000 0.125000
vt 0.500000 0.562500
vt 0.500000 0.062500
vt 0.500000 0.500000
vt 0.515625 1.000000
vt 0.515625 0.000000
vt 0.468750 0.250000
vt 0.468750 0.187500
vt 0.468750 0.625000
vt 0.468750 0.125000
vt 0.468750 0.562500
vt 0.468750 0.062500
vt 0.468750 0.500000
vt 0.484375 1.000000
vt 0.468750 0.937500
vt 0.484375 0.000000
vt 0.468750 0.437500
vt 0.468750 0.875000
vt 0.468750 0.375000
vt 0.468750 0.812500
vt 0.468750 0.312500
vt 0.468750 0.750000
vt 0.468750 0.687500
vt 0.437500 0.875000
vt 0.437500 0.437500
vt 0.437500 0.375000
vt 0.437500 0.812500
vt 0.437500 0.312500
vt 0.437500 0.750000
vt 0.437500 0.250000
vt 0.437500 0.687500
vt 0.437500 0.187500
vt 0.437500 0.625000
vt 0.437500 0.125000
vt 0.437500 0.562500
vt 0.437500 0.062500
vt 0.437500 0.500000
vt 0.453125 1.000000
vt 0.437500 0.937500
vt 0.453125 0.000000
vt 0.406250 0.625000
vt 0.406250 0.125000
vt 0.406250 0.562500
vt 0.406250 0.062500
vt 0.406250 0.500000
vt 0.421875 1.000000
vt 0.406250 0.937500
vt 0.421875 0.000000
vt 0.406250 0.437500
vt 0.406250 0.875000
vt 0.406250 0.375000
vt 0.406250 0.812500
vt 0.406250 0.312500
vt 0.406250 0.750000
vt 0.406250 0.250000
vt 0.406250 0.687500
vt 0.406250 0.187500
vt 0.375000 0.437500
vt 0.375000 0.375000
vt 0.375000 0.812500
vt 0.375000 0.312500
vt 0.375000 0.750000
vt 0.375000 0.250000
vt 0.375000 0.687500
vt 0.375000 0.187500
vt 0.375000 0.625000
vt 0.375000 0.125000
vt 0.375000 0.562500
vt 0.375000 0.062500
vt 0.375000 0.500000
vt 0.390625 1.000000
vt 0.375000 0.937500
vt 0.390625 0.000000
vt 0.375000 0.875000
vt 0.343750 0.187500
vt 0.343750 0.125000
vt 0.343750 0.562500
vt 0.343750 0.062500
vt 0.343750 0.500000
vt 0.359375 1.000000
vt 0.343750 0.937500
vt 0.359375 0.000000
vt 0.343750 0.437500
vt 0.343750 0.875000
vt 0.343750 0.375000
vt 0.343750 0.812500
vt 0.343750 0.312500
vt 0.343750 0.750000
vt 0.343750 0.250000
vt 0.343750 0.687500
vt 0.343750 0.625000
vt 0.312500 0.312500
vt 0.312500 0.750000
vt 0.312500 0.250000
vt 0.312500 0.687500
vt 0.312500 0.187500
vt 0.312500 0.625000
vt 0.312500 0.125000
vt 0.312500 0.562500
vt 0.312500 0.062500
vt 0.312500 0.500000
vt 0.328125 1.000000
vt 0.312500 0.937500
vt 0.328125 0.000000
vt 0.312500 0.437500
vt 0.312500 0.875000
vt 0.312500 0.375000
vt 0.312500 0.812500
vt 0.281250 0.062500
vt 0.281250 0.562500
vt 0.281250 0.500000
vt 0.296875 1.000000
vt 0.281250 0.937500
vt 0.296875 0.000000
vt 0.281250 0.437500
vt 0.281250 0.875000
vt 0.281250 0.375000
vt 0.281250 0.812500
vt 0.281250 0.312500
vt 0.281250 0.750000
vt 0.281250 0.250000
vt 0.281250 0.687500
vt 0.281250 0.187500
vt 0.281250 0.625000
vt 0.281250 0.125000
vt 0.250000 0.750000
vt 0.250000 0.250000
vt 0.250000 0.687500
vt 0.250000 0.187500
vt 0.250000 0.625000
vt 0.250000 0.125000
vt 0.250000 0.562500
vt 0.250000 0.062500
vt 0.250000 0.500000
vt 0.265625 1.000000
vt 0.250000 0.937500
vt 0.265625 0.000000
vt 0.250000 0.437500
vt 0.250000 0.875000
vt 0.250000 0.375000
vt 0.250000 0.812500
vt 0.250000 0.312500
vt 0.218750 0.562500
vt 0.218750 0.500000
vt 0.234375 1.000000
vt 0.218750 0.937500
vt 0.234375 0.000000
vt 0.218750 0.062500
vt 0.218750 0.437500
vt 0.218750 0.875000
vt 0.218750 0.375000
vt 0.218750 0.812500
vt 0.218750 0.312500
vt 0.218750 0.750000
vt 0.218750 0.250000
vt 0.218750 0.687500
vt 0.218750 0.187500
vt 0.218750 0.625000
vt 0.218750 0.125000
vt 0.187500 0.250000
vt 0.187500 0.750000
vt 0.187500 0.687500
vt 0.187500 0.187500
vt 0.187500 0.625000
vt 0.187500 0.125000
vt 0.187500 0.562500
vt 0.187500 0.062500
vt 0.187500 0.500000
vt 0.203125 1.000000
vt 0.187500 0.937500
vt 0.203125 0.000000
vt 0.187500 0.437500
vt 0.187500 0.875000
vt 0.187500 0.375000
vt 0.187500 0.812500
vt 0.187500 0.312500
vt 0.171875 1.000000
vt 0.156250 0.937500
vt 0.171875 0.000000
vt 0.156250 0.062500
vt 0.156250 0.437500
vt 0.156250 0.875000
vt 0.156250 0.375000
vt 0.156250 0.812500
vt 0.156250 0.312500
vt 0.156250 0.750000
vt 0.156250 0.250000
vt 0.156250 0.687500
vt 0.156250 0.187500
vt 0.156250 0.625000
vt 0.156250 0.125000
vt 0.156250 0.562500
vt 0.156250 0.500000
vt 0.125000 0.687500
vt 0.125000 0.250000
vt 0.125000 0.187500
vt 0.125000 0.625000
vt 0.125000 0.125000
vt 0.125000 0.562500
vt 0.125000 0.062500
vt 0.125000 0.500000
vt 0.140625 1.000000
vt 0.125000 0.937500
vt 0.140625 0.000000
vt 0.125000 0.437500
vt 0.125000 0.875000
vt 0.125000 0.375000
vt 0.125000 0.812500
vt 0.125000 0.312500
vt 0.125000 0.750000
vt 0.093750 0.437500
vt 0.093750 0.937500
vt 0.093750 0.875000
vt 0.093750 0.375000
vt 0.093750 0.812500
vt 0.093750 0.312500
vt 0.093750 0.750000
vt 0.093750 0.250000
vt 0.093750 0.687500
vt 0.093750 0.187500
vt 0.093750 0.625000
vt 0.093750 0.125000
vt 0.093750 0.562500
vt 0.093750 0.062500
vt 0.093750 0.500000
vt 0.109375 1.000000
vt 0.109375 0.000000
vt 0.062500 0.250000
vt 0.062500 0.187500
vt 0.062500 0.687500
vt 0.062500 0.625000
vt 0.062500 0.125000
vt 0.062500 0.562500
vt 0.062500 0.062500
vt 0.062500 0.500000
vt 0.078125 1.000000
vt 0.062500 0.937500
vt 0.078125 0.000000
vt 0.062500 0.437500
vt 0.062500 0.875000
vt 0.062500 0.375000
vt 0.062500 0.812500
vt 0.062500 0.312500
vt 0.062500 0.750000
vt 0.031250 0.437500
vt 0.031250 0.375000
vt 0.031250 0.875000
vt 0.031250 0.812500
vt 0.031250 0.312500
vt 0.031250 0.750000
vt 0.031250 0.250000
vt 0.031250 0.687500
vt 0.031250 0.187500
vt 0.031250 0.625000
vt 0.031250 0.125000
vt 0.031250 0.562500
vt 0.031250 0.062500
vt 0.031250 0.500000
vt 0.046875 1.000000
vt 0.031250 0.937500
vt 0.046875 0.000000
vt 0.000000 0.125000
vt 0.000000 0.625000
vt 0.000000 0.562500
vt 0.000000 0.062500
vt 0.000000 0.500000
vt 0.015625 1.000000
vt 0.000000 0.937500
vt 0.015625 0.000000
vt 0.000000 0.437500
vt 0.000000 0.875000
vt 0.000000 0.375000
vt 0.000000 0.812500
vt 0.000000 0.312500
vt 0.000000 0.750000
vt 0.000000 0.250000
vt 0.000000 0.687500
vt 0.000000 0.187500
vt 1.000000 0.875000
vt 0.968750 0.812500
vt 1.000000 0.812500
vt 1.000000 0.375000
vt 0.968750 0.312500
vt 1.000000 0.312500
vt 0.968750 0.750000
vt 1.000000 0.750000
vt 0.968750 0.250000
vt 1.000000 0.250000
vt 0.968750 0.687500
vt 1.000000 0.687500
vt 1.000000 0.187500
vt 0.968750 0.187500
vt 0.968750 0.625000
vt 1.000000 0.625000
vt 0.968750 0.125000
vt 1.000000 0.125000
vt 0.968750 0.562500
vt 1.000000 0.562500
vt 0.968750 0.062500
vt 1.000000 0.062500
vt 1.000000 0.500000
vt 0.968750 0.500000
vt 1.000000 0.937500
vt 0.984375 1.000000
vt 0.968750 0.937500
vt 0.984375 0.000000
vt 0.968750 0.437500
vt 1.000000 0.437500
vt 0.968750 0.875000
vt 0.968750 0.375000
vt 0.937500 0.625000
vt 0.937500 0.562500
vt 0.937500 0.062500
vt 0.937500 0.500000
vt 0.953125 1.000000
vt 0.937500 0.937500
vt 0.953125 0.000000
vt 0.937500 0.437500
vt 0.937500 0.875000
vt 0.937500 0.375000
vt 0.937500 0.812500
vt 0.937500 0.312500
vt 0.937500 0.750000
vt 0.937500 0.250000
vt 0.937500 0.687500
vt 0.937500 0.187500
vt 0.937500 0.125000
vt 0.906250 0.312500
vt 0.906250 0.750000
vt 0.906250 0.250000
vt 0.906250 0.687500
vt 0.906250 0.187500
vt 0.906250 0.625000
vt 0.906250 0.125000
vt 0.906250 0.562500
vt 0.906250 0.062500
vt 0.906250 0.500000
vt 0.921875 1.000000
vt 0.906250 0.937500
vt 0.921875 0.000000
vt 0.906250 0.437500
vt 0.906250 0.875000
vt 0.906250 0.375000
vt 0.906250 0.812500
vt 0.875000 0.062500
vt 0.875000 0.562500
vt 0.875000 0.500000
vt 0.890625 1.000000
vt 0.875000 0.937500
vt 0.890625 0.000000
vt 0.875000 0.437500
vt 0.875000 0.875000
vt 0.875000 0.375000
vt 0.875000 0.812500
vt 0.875000 0.312500
vt 0.875000 0.750000
vt 0.875000 0.250000
vt 0.875000 0.687500
vt 0.875000 0.187500
vt 0.875000 0.625000
vt 0.875000 0.125000
vt 0.843750 0.750000
vt 0.843750 0.312500
vt 0.843750 0.250000
vt 0.843750 0.687500
vt 0.843750 0.187500
vt 0.843750 0.625000
vt 0.843750 0.125000
vt 0.843750 0.562500
vt 0.843750 0.062500
vt 0.843750 0.500000
vt 0.859375 1.000000
vt 0.843750 0.937500
vt 0.859375 0.000000
vt 0.843750 0.437500
vt 0.843750 0.875000
vt 0.843750 0.375000
vt 0.843750 0.812500
vt 0.812500 0.562500
vt 0.812500 0.500000
vt 0.828125 1.000000
vt 0.812500 0.937500
vt 0.828125 0.000000
vt 0.812500 0.062500
vt 0.812500 0.437500
vt 0.812500 0.875000
vt 0.812500 0.375000
vt 0.812500 0.812500
vt 0.812500 0.312500
vt 0.812500 0.750000
vt 0.812500 0.250000
vt 0.812500 0.687500
vt 0.812500 0.187500
vt 0.812500 0.625000
vt 0.812500 0.125000
vt 0.781250 0.250000
vt 0.781250 0.687500
vt 0.781250 0.187500
vt 0.781250 0.625000
vt 0.781250 0.125000
vt 0.781250 0.562500
vt 0.781250 0.062500
vt 0.781250 0.500000
vt 0.796875 1.000000
vt 0.781250 0.937500
vt 0.796875 0.000000
vt 0.781250 0.437500
vt 0.781250 0.875000
vt 0.781250 0.375000
vt 0.781250 0.812500
vt 0.781250 0.312500
vt 0.781250 0.750000
vt 0.765625 0.000000
vt 0.765625 1.000000
s 1
usemtl skydome
f 1/1/1 326/2/1 11/3/1
f 482/4/2 481/5/2 25/6/2
f 477/7/3 19/8/3 478/9/3
f 1/1/4 12/10/4 2/11/4
f 478/9/5 20/12/5 479/13/5
f 2/11/6 13/14/6 3/15/6
f 479/13/7 21/16/7 8/17/7
f 3/15/8 14/18/8 4/19/8
f 8/17/9 22/20/9 9/21/9
f 4/19/10 15/22/10 5/23/10
f 10/24/11 22/20/11 23/25/11
f 5/23/12 16/26/12 6/27/12
f 10/24/13 24/28/13 480/29/13
f 7/30/14 16/26/14 17/31/14
f 480/29/15 25/6/15 481/5/15
f 477/7/16 17/31/16 18/32/16
f 16/26/17 32/33/17 17/31/17
f 25/6/18 39/34/18 40/35/18
f 18/32/19 32/33/19 33/36/19
f 11/3/20 326/37/20 26/38/20
f 482/39/21 25/6/21 40/35/21
f 18/32/22 34/40/22 19/8/22
f 11/3/23 27/41/23 12/10/23
f 19/8/24 35/42/24 20/12/24
f 13/14/25 27/41/25 28/43/25
f 20/12/26 36/44/26 21/16/26
f 14/18/27 28/43/27 29/45/27
f 21/16/28 37/46/28 22/20/28
f 14/18/29 30/47/29 15/22/29
f 23/25/30 37/46/30 38/48/30
f 15/22/31 31/49/31 16/26/31
f 24/28/32 38/48/32 39/34/32
f 36/44/33 50/50/33 51/51/33
f 28/43/34 44/52/34 29/45/34
f 36/44/35 52/53/35 37/46/35
f 29/45/36 45/54/36 30/47/36
f 37/46/37 53/55/37 38/48/37
f 30/47/38 46/56/38 31/49/38
f 39/34/39 53/55/39 54/57/39
f 32/33/40 46/56/40 47/58/40
f 40/35/41 54/57/41 55/59/41
f 33/36/42 47/58/42 48/60/42
f 26/38/43 326/61/43 41/62/43
f 482/63/44 40/35/44 55/59/44
f 33/36/45 49/64/45 34/40/46
f 26/38/47 42/65/47 27/41/47
f 35/42/48 49/64/48 50/50/48
f 27/41/49 43/66/50 28/43/50
f 54/57/51 70/67/51 55/59/51
f 48/60/52 62/68/52 63/69/52
f 41/62/53 326/70/53 56/71/53
f 482/72/54 55/59/54 70/67/54
f 48/60/55 64/73/55 49/64/55
f 41/62/56 57/74/56 42/65/56
f 50/50/57 64/73/57 65/75/57
f 42/65/58 58/76/58 43/66/58
f 51/51/59 65/75/59 66/77/59
f 43/66/60 59/78/60 44/52/60
f 51/51/61 67/79/61 52/53/61
f 44/52/62 60/80/62 45/54/62
f 52/53/63 68/81/63 53/55/63
f 46/56/64 60/80/64 61/82/64
f 53/55/65 69/83/65 54/57/65
f 46/56/66 62/68/66 47/58/66
f 66/77/67 82/84/67 67/79/67
f 59/78/68 75/85/68 60/80/68
f 68/81/69 82/84/69 83/86/69
f 61/82/70 75/85/70 76/87/70
f 69/83/71 83/86/71 84/88/71
f 62/68/72 76/87/72 77/89/72
f 69/83/73 85/90/73 70/67/73
f 63/69/74 77/89/74 78/91/74
f 56/71/75 326/92/75 71/93/75
f 482/94/76 70/67/76 85/90/76
f 63/69/77 79/95/77 64/73/78
f 56/71/79 72/96/79 57/74/79
f 64/73/80 80/97/80 65/75/80
f 57/74/81 73/98/81 58/76/81
f 65/75/82 81/99/82 66/77/82
f 58/76/83 74/100/83 59/78/83
f 71/93/84 326/101/84 86/102/84
f 482/103/85 85/90/85 100/104/85
f 78/91/86 94/105/86 79/95/86
f 71/93/87 87/106/87 72/96/87
f 80/97/88 94/105/88 95/107/88
f 72/96/89 88/108/90 73/98/90
f 80/97/91 96/109/91 81/99/91
f 73/98/92 89/110/92 74/100/92
f 81/99/93 97/111/93 82/84/93
f 75/85/94 89/110/94 90/112/94
f 82/84/95 98/113/95 83/86/95
f 75/85/96 91/114/96 76/87/96
f 83/86/97 99/115/98 84/88/98
f 77/89/99 91/114/99 92/116/99
f 84/88/100 100/104/100 85/90/100
f 78/91/101 92/116/101 93/117/101
f 90/112/102 104/118/102 105/119/102
f 98/113/103 112/120/103 113/121/103
f 90/112/104 106/122/104 91/114/104
f 98/113/105 114/123/105 99/115/105
f 92/116/106 106/122/106 107/124/106
f 99/115/107 115/125/107 100/104/107
f 93/117/108 107/124/108 108/126/108
f 86/102/109 326/127/109 101/128/109
f 482/129/110 100/104/110 115/125/110
f 93/117/111 109/130/111 94/105/111
f 86/102/112 102/131/112 87/106/112
f 95/107/113 109/130/113 110/132/113
f 87/106/114 103/133/114 88/108/114
f 95/107/115 111/134/115 96/109/115
f 88/108/116 104/118/116 89/110/116
f 96/109/117 112/120/117 97/111/117
f 108/126/118 124/135/118 109/130/118
f 102/131/119 116/136/119 117/137/119
f 110/132/120 124/135/120 125/138/120
f 102/131/121 118/139/121 103/133/121
f 110/132/122 126/140/122 111/134/122
f 103/133/123 119/141/123 104/118/123
f 112/120/124 126/140/124 127/142/124
f 104/118/125 120/143/125 105/119/125
f 113/121/126 127/142/126 128/144/126
f 105/119/127 121/145/127 106/122/127
f 114/123/128 128/144/128 129/146/128
f 106/122/129 122/147/129 107/124/129
f 114/123/130 130/148/130 115/125/130
f 108/126/131 122/147/131 123/149/131
f 101/128/132 326/150/132 116/136/132
f 482/151/133 115/125/133 130/148/133
f 128/144/134 142/152/134 143/153/134
f 120/143/135 136/154/135 121/145/135
f 128/144/136 144/155/136 129/146/136
f 121/145/137 137/156/137 122/147/137
f 129/146/138 145/157/138 130/148/138
f 123/149/139 137/156/139 138/158/139
f 116/136/140 326/159/140 131/160/140
f 482/161/141 130/148/141 145/157/141
f 123/149/142 139/162/142 124/135/142
f 117/137/143 131/160/143 132/163/143
f 124/135/144 140/164/144 125/138/144
f 118/139/145 132/163/145 133/165/145
f 125/138/146 141/166/146 126/140/146
f 118/139/147 134/167/147 119/141/147
f 126/140/148 142/152/148 127/142/148
f 120/143/149 134/167/149 135/168/149
f 131/160/150 147/169/150 132/163/150
f 140/164/151 154/170/151 155/171/151
f 132/163/152 148/172/152 133/165/152
f 140/164/153 156/173/153 141/166/153
f 133/165/154 149/174/154 134/167/154
f 141/166/155 157/175/155 142/152/155
f 135/168/156 149/174/156 150/176/156
f 143/153/157 157/175/157 158/177/157
f 135/168/158 151/178/158 136/154/158
f 143/153/159 159/179/159 144/155/159
f 137/156/160 151/178/160 152/180/160
f 145/157/161 159/179/161 160/181/161
f 138/158/162 152/180/162 153/182/162
f 131/160/163 326/183/163 146/184/163
f 482/185/164 145/157/164 160/181/164
f 138/158/165 154/170/165 139/162/165
f 150/176/166 166/186/166 151/178/166
f 158/177/167 174/187/168 159/179/168
f 152/180/169 166/186/169 167/188/169
f 160/181/170 174/187/170 175/189/170
f 153/182/171 167/188/171 168/190/171
f 146/184/172 326/191/172 161/192/172
f 482/193/173 160/181/173 175/189/173
f 153/182/174 169/194/174 154/170/174
f 146/184/175 162/195/175 147/169/175
f 155/171/176 169/194/176 170/196/176
f 147/169/177 163/197/177 148/172/177
f 155/171/178 171/198/178 156/173/178
f 148/172/179 164/199/179 149/174/179
f 157/175/180 171/198/180 172/200/180
f 149/174/181 165/201/181 150/176/181
f 158/177/182 172/200/182 173/202/182
f 170/196/183 184/203/183 185/204/183
f 162/195/184 178/205/184 163/197/184
f 170/196/185 186/206/185 171/198/185
f 163/197/186 179/207/186 164/199/186
f 172/200/187 186/206/187 187/208/187
f 164/199/188 180/209/188 165/201/188
f 172/200/189 188/210/189 173/202/189
f 165/201/190 181/211/190 166/186/190
f 173/202/191 189/212/191 174/187/191
f 167/188/192 181/211/192 182/213/192
f 174/187/193 190/214/193 175/189/193
f 168/190/194 182/213/194 183/215/194
f 161/192/195 326/216/195 176/217/195
f 482/218/196 175/189/196 190/214/196
f 168/190/197 184/203/197 169/194/197
f 161/192/198 177/219/198 162/195/198
f 189/212/199 203/220/199 204/221/199
f 181/211/200 197/222/200 182/213/200
f 189/212/201 205/223/201 190/214/201
f 183/215/202 197/222/202 198/224/202
f 176/217/203 326/225/203 191/226/203
f 482/227/204 190/214/204 205/223/204
f 183/215/205 199/228/205 184/203/205
f 177/219/206 191/226/206 192/229/206
f 185/204/207 199/228/207 200/230/207
f 177/219/208 193/231/208 178/205/208
f 185/204/209 201/232/209 186/206/209
f 178/205/210 194/233/210 179/207/210
f 186/206/211 202/234/211 187/208/211
f 180/209/212 194/233/212 195/235/212
f 187/208/213 203/220/213 188/210/213
f 180/209/214 196/236/214 181/211/214
f 200/230/215 216/237/215 201/232/215
f 193/231/216 209/238/216 194/233/216
f 201/232/217 217/239/217 202/234/217
f 195/235/218 209/238/218 210/240/218
f 203/220/219 217/239/219 218/241/219
f 195/235/220 211/242/220 196/236/220
f 203/220/221 219/243/222 204/221/222
f 197/222/223 211/242/223 212/244/223
f 204/221/224 220/245/224 205/223/224
f 198/224/225 212/244/225 213/246/225
f 191/226/226 326/247/226 206/248/226
f 482/249/227 205/223/227 220/245/227
f 198/224/228 214/250/228 199/228/228
f 191/226/229 207/251/229 192/229/229
f 199/228/230 215/252/230 200/230/230
f 192/229/231 208/253/231 193/231/231
f 219/243/232 235/254/232 220/245/232
f 213/246/233 227/255/233 228/256/233
f 206/248/234 326/257/234 221/258/234
f 482/259/235 220/245/235 235/254/235
f 213/246/236 229/260/236 214/250/236
f 206/248/237 222/261/237 207/251/237
f 214/250/238 230/262/238 215/252/238
f 208/253/239 222/261/239 223/263/239
f 215/252/240 231/264/240 216/237/240
f 208/253/241 224/265/241 209/238/241
f 216/237/242 232/266/242 217/239/242
f 209/238/243 225/267/243 210/240/243
f 218/241/244 232/266/244 233/268/244
f 211/242/245 225/267/245 226/269/245
f 218/241/246 234/270/246 219/243/246
f 212/244/247 226/269/247 227/255/247
f 223/263/248 239/271/248 224/265/248
f 231/264/249 247/272/249 232/266/249
f 225/267/250 239/271/250 240/273/250
f 233/268/251 247/272/251 248/274/251
f 225/267/252 241/275/252 226/269/252
f 234/270/253 248/274/253 249/276/253
f 227/255/254 241/275/254 242/277/254
f 235/254/255 249/276/255 250/278/255
f 228/256/256 242/277/256 243/279/256
f 221/258/257 326/280/257 236/281/257
f 482/282/258 235/254/258 250/278/258
f 228/256/259 244/283/259 229/260/260
f 221/258/261 237/284/261 222/261/261
f 230/262/262 244/283/262 245/285/262
f 222/261/263 238/286/263 223/263/263
f 230/262/264 246/287/264 231/264/264
f 243/279/265 257/288/265 258/289/265
f 236/281/266 326/290/266 251/291/266
f 482/292/267 250/278/267 265/293/267
f 243/279/268 259/294/268 244/283/268
f 237/284/269 251/291/269 252/295/269
f 244/283/270 260/296/270 245/285/270
f 237/284/271 253/297/271 238/286/271
f 245/285/272 261/298/272 246/287/272
f 238/286/273 254/299/273 239/271/273
f 246/287/274 262/300/274 247/272/274
f 240/273/275 254/299/275 255/301/275
f 248/274/276 262/300/276 263/302/276
f 240/273/277 256/303/277 241/275/277
f 248/274/278 264/304/278 249/276/278
f 242/277/279 256/303/279 257/288/279
f 249/276/280 265/293/280 250/278/280
f 261/298/281 277/305/281 262/300/281
f 255/301/282 269/306/282 270/307/282
f 263/302/283 277/305/283 278/308/283
f 255/301/284 271/309/284 256/303/284
f 263/302/285 279/310/285 264/304/285
f 257/288/286 271/309/286 272/311/286
f 265/293/287 279/310/287 280/312/287
f 258/289/288 272/311/288 273/313/288
f 251/291/289 326/314/289 266/315/289
f 482/316/290 265/293/290 280/312/290
f 258/289/291 274/317/291 259/294/291
f 251/291/292 267/318/292 252/295/292
f 260/296/293 274/317/293 275/319/293
f 252/295/294 268/320/294 253/297/294
f 260/296/295 276/321/295 261/298/295
f 253/297/296 269/306/296 254/299/296
f 266/315/297 326/322/297 281/323/297
f 482/324/298 280/312/298 295/325/298
f 273/313/299 289/326/299 274/317/299
f 267/318/300 281/323/300 282/327/300
f 274/317/301 290/328/301 275/319/301
f 267/318/302 283/329/302 268/320/302
f 275/319/303 291/330/303 276/321/303
f 268/320/304 284/331/304 269/306/304
f 276/321/305 292/332/305 277/305/305
f 270/307/306 284/331/306 285/333/306
f 278/308/307 292/332/307 293/334/307
f 270/307/308 286/335/308 271/309/308
f 278/308/309 294/336/310 279/310/310
f 272/311/311 286/335/311 287/337/311
f 279/310/312 295/325/312 280/312/312
f 273/313/313 287/337/313 288/338/313
f 284/331/314 300/339/314 285/333/314
f 293/334/315 307/340/315 308/341/315
f 285/333/316 301/342/316 286/335/316
f 294/336/317 308/341/317 309/343/317
f 287/337/318 301/342/318 302/344/318
f 295/325/319 309/343/319 310/345/319
f 288/338/320 302/344/320 303/346/320
f 281/323/321 326/347/321 296/348/321
f 482/349/322 295/325/322 310/345/322
f 288/338/323 304/350/323 289/326/323
f 281/323/324 297/351/324 282/327/324
f 290/328/325 304/350/325 305/352/325
f 282/327/326 298/353/326 283/329/326
f 290/328/327 306/354/327 291/330/327
f 283/329/328 299/355/328 284/331/328
f 291/330/329 307/340/329 292/332/329
f 303/346/330 319/356/330 304/350/330
f 297/351/331 311/357/331 312/358/331
f 305/352/332 319/356/332 320/359/332
f 297/351/333 313/360/333 298/353/333
f 305/352/334 321/361/334 306/354/334
f 298/353/335 314/362/335 299/355/335
f 306/354/336 322/363/336 307/340/336
f 299/355/337 315/364/337 300/339/337
f 308/341/338 322/363/338 323/365/338
f 301/342/339 315/364/339 316/366/339
f 308/341/340 324/367/340 309/343/340
f 302/344/341 316/366/341 317/368/341
f 309/343/342 325/369/342 310/345/342
f 303/346/343 317/368/343 318/370/343
f 296/348/344 326/371/344 311/357/344
f 482/372/345 310/345/345 325/369/345
f 323/365/346 338/373/346 339/374/346
f 316/366/347 331/375/347 332/376/347
f 324/367/348 339/374/348 340/377/348
f 317/368/349 332/376/349 333/378/349
f 325/369/350 340/377/350 341/379/350
f 318/370/351 333/378/351 334/380/351
f 311/357/352 326/381/352 327/382/352
f 482/383/353 325/369/353 341/379/353
f 318/370/354 335/384/354 319/356/354
f 311/357/355 328/385/355 312/358/355
f 320/359/356 335/384/356 336/386/356
f 312/358/357 329/387/357 313/360/357
f 320/359/358 337/388/358 321/361/358
f 313/360/359 330/389/359 314/362/359
f 321/361/360 338/373/360 322/363/360
f 315/364/361 330/389/361 331/375/361
f 336/386/362 350/390/362 351/391/362
f 329/387/363 343/392/363 344/393/363
f 336/386/364 352/394/364 337/388/364
f 330/389/365 344/393/365 345/395/365
f 337/388/366 353/396/366 338/373/366
f 331/375/367 345/395/367 346/397/367
f 338/373/368 354/398/368 339/374/368
f 331/375/369 347/399/369 332/376/369
f 339/374/370 355/400/370 340/377/370
f 333/378/371 347/399/371 348/401/371
f 341/379/372 355/400/372 356/402/372
f 334/380/373 348/401/373 349/403/373
f 327/382/374 326/404/374 342/405/374
f 482/406/375 341/379/375 356/402/375
f 334/380/376 350/390/376 335/384/376
f 327/382/377 343/392/377 328/385/377
f 354/398/378 370/407/378 355/400/378
f 348/401/379 362/408/379 363/409/379
f 355/400/380 371/410/380 356/402/380
f 349/403/381 363/409/381 364/411/381
f 342/405/382 326/412/382 357/413/382
f 482/414/383 356/402/383 371/410/383
f 349/403/384 365/415/384 350/390/385
f 342/405/386 358/416/386 343/392/386
f 350/390/387 366/417/387 351/391/387
f 343/392/388 359/418/388 344/393/388
f 351/391/389 367/419/389 352/394/389
f 344/393/390 360/420/390 345/395/390
f 353/396/391 367/419/391 368/421/391
f 346/397/392 360/420/392 361/422/392
f 354/398/393 368/421/393 369/423/393
f 347/399/394 361/422/394 362/408/394
f 358/424/395 374/425/395 359/426/395
f 366/427/396 382/428/396 367/429/396
f 359/426/397 375/430/397 360/431/397
f 367/429/398 383/432/398 368/433/398
f 360/431/399 376/434/399 361/435/399
f 369/436/400 383/432/400 384/437/400
f 361/435/401 377/438/401 362/439/401
f 369/436/402 385/440/402 370/441/402
f 362/439/403 378/442/403 363/443/403
f 370/441/404 386/444/404 371/445/404
f 364/446/405 378/442/405 379/447/405
f 357/448/406 326/449/406 372/450/406
f 482/451/407 371/445/407 386/444/407
f 364/446/408 380/452/408 365/453/409
f 357/448/410 373/454/410 358/424/410
f 365/453/411 381/455/411 366/427/411
f 378/442/412 392/456/412 393/457/412
f 385/440/413 401/458/413 386/444/413
f 379/447/414 393/457/414 394/459/414
f 372/450/415 326/460/415 387/461/415
f 482/462/416 386/444/416 401/458/416
f 379/447/417 395/463/417 380/452/417
f 372/450/418 388/464/418 373/454/418
f 381/455/419 395/463/419 396/465/419
f 373/454/420 389/466/420 374/425/420
f 381/455/421 397/467/421 382/428/421
f 374/425/422 390/468/422 375/430/422
f 382/428/423 398/469/423 383/432/423
f 376/434/424 390/468/424 391/470/424
f 384/437/425 398/469/425 399/471/425
f 376/434/426 392/456/426 377/438/426
f 384/437/427 400/472/427 385/440/427
f 396/465/428 412/473/428 397/467/428
f 389/466/429 405/474/429 390/468/429
f 398/469/430 412/473/430 413/475/430
f 390/468/431 406/476/431 391/470/431
f 399/471/432 413/475/432 414/477/432
f 392/456/433 406/476/433 407/478/433
f 400/472/434 414/477/434 415/479/434
f 393/457/435 407/478/435 408/480/435
f 400/472/436 416/481/436 401/458/436
f 394/459/437 408/480/437 409/482/437
f 387/461/438 326/483/438 402/484/438
f 482/485/439 401/458/439 416/481/439
f 394/459/440 410/486/440 395/463/440
f 387/461/441 403/487/441 388/464/441
f 396/465/442 410/486/442 411/488/442
f 388/464/443 404/489/444 389/466/444
f 415/479/445 431/490/445 416/481/445
f 409/482/446 423/491/446 424/492/446
f 402/484/447 326/493/447 417/494/447
f 482/495/448 416/481/448 431/490/448
f 409/482/449 425/496/449 410/486/449
f 403/487/450 417/494/450 418/497/450
f 410/486/451 426/498/451 411/488/451
f 404/489/452 418/497/452 419/499/452
f 411/488/453 427/500/453 412/473/453
f 404/489/454 420/501/454 405/474/454
f 412/473/455 428/502/455 413/475/455
f 406/476/456 420/501/456 421/503/456
f 414/477/457 428/502/457 429/504/457
f 407/478/458 421/503/458 422/505/458
f 414/477/459 430/506/459 415/479/459
f 408/480/460 422/505/460 423/491/460
f 419/499/461 435/507/461 420/501/461
f 428/502/462 442/508/462 443/509/462
f 420/501/463 436/510/463 421/503/463
f 429/504/464 443/509/464 444/511/464
f 422/505/465 436/510/465 437/512/465
f 429/504/466 445/513/466 430/506/466
f 423/491/467 437/512/467 438/514/467
f 430/506/468 446/515/468 431/490/468
f 424/492/469 438/514/469 439/516/469
f 417/494/470 326/517/470 432/518/470
f 482/519/471 431/490/471 446/515/471
f 424/492/472 440/520/472 425/496/472
f 417/494/473 433/521/473 418/497/473
f 425/496/474 441/522/474 426/498/474
f 418/497/475 434/523/475 419/499/475
f 426/498/476 442/508/476 427/500/476
f 439/516/477 453/524/477 454/525/477
f 432/518/478 326/526/478 447/527/478
f 482/528/479 446/515/479 461/529/479
f 439/516/480 455/530/480 440/520/480
f 432/518/481 448/531/481 433/521/481
f 440/520/482 456/532/482 441/522/482
f 434/523/483 448/531/483 449/533/484
f 441/522/485 457/534/485 442/508/485
f 434/523/486 450/535/486 435/507/486
f 442/508/487 458/536/487 443/509/487
f 435/507/488 451/537/488 436/510/488
f 444/511/489 458/536/489 459/538/489
f 436/510/490 452/539/490 437/512/490
f 444/511/491 460/540/491 445/513/491
f 438/514/492 452/539/492 453/524/492
f 445/513/493 461/529/493 446/515/494
f 457/534/495 473/541/495 458/536/495
f 450/535/496 466/542/496 451/537/496
f 459/538/497 473/541/497 474/543/497
f 452/539/498 466/542/498 467/544/498
f 459/538/499 475/545/499 460/540/499
f 453/524/500 467/544/500 468/546/500
f 461/529/501 475/545/501 476/547/501
f 454/525/502 468/546/502 469/548/502
f 447/527/503 326/549/503 462/550/503
f 482/551/504 461/529/504 476/547/504
f 454/525/505 470/552/505 455/530/505
f 448/531/506 462/550/506 463/553/506
f 455/530/507 471/554/507 456/532/507
f 448/531/508 464/555/508 449/533/508
f 456/532/509 472/556/509 457/534/509
f 449/533/510 465/557/510 450/535/510
f 482/558/511 476/547/511 481/5/511
f 469/548/512 478/9/512 470/552/512
f 463/553/513 1/1/513 2/11/513
f 471/554/514 478/9/514 479/13/514
f 464/555/515 2/11/515 3/15/515
f 471/554/516 8/17/516 472/556/516
f 465/557/517 3/15/517 4/19/517
f 472/556/518 9/21/518 473/541/518
f 466/542/519 4/19/519 5/23/519
f 473/541/520 10/24/520 474/543/520
f 467/544/521 5/23/521 6/27/521
f 474/543/522 480/29/522 475/545/522
f 468/546/523 6/27/523 7/30/523
f 476/547/524 480/29/524 481/5/524
f 469/548/525 7/30/525 477/7/526
f 462/550/527 326/559/527 1/1/527
f 477/7/3 18/32/3 19/8/3
f 1/1/4 11/3/4 12/10/4
f 478/9/5 19/8/5 20/12/5
f 2/11/6 12/10/6 13/14/6
f 479/13/7 20/12/7 21/16/7
f 3/15/8 13/14/8 14/18/8
f 8/17/9 21/16/9 22/20/9
f 4/19/10 14/18/10 15/22/10
f 10/24/11 9/21/11 22/20/11
f 5/23/12 15/22/12 16/26/12
f 10/24/13 23/25/13 24/28/13
f 7/30/14 6/27/14 16/26/14
f 480/29/15 24/28/15 25/6/15
f 477/7/16 7/30/16 17/31/16
f 16/26/17 31/49/17 32/33/17
f 25/6/18 24/28/18 39/34/18
f 18/32/19 17/31/19 32/33/19
f 18/32/22 33/36/528 34/40/22
f 11/3/23 26/38/23 27/41/23
f 19/8/24 34/40/24 35/42/24
f 13/14/25 12/10/25 27/41/25
f 20/12/26 35/42/26 36/44/26
f 14/18/27 13/14/27 28/43/27
f 21/16/28 36/44/28 37/46/28
f 14/18/29 29/45/29 30/47/29
f 23/25/30 22/20/30 37/46/30
f 15/22/31 30/47/31 31/49/31
f 24/28/32 23/25/32 38/48/32
f 36/44/33 35/42/33 50/50/33
f 28/43/34 43/66/34 44/52/34
f 36/44/35 51/51/35 52/53/35
f 29/45/36 44/52/36 45/54/36
f 37/46/37 52/53/37 53/55/37
f 30/47/38 45/54/38 46/56/38
f 39/34/39 38/48/39 53/55/39
f 32/33/40 31/49/40 46/56/40
f 40/35/41 39/34/41 54/57/41
f 33/36/42 32/33/42 47/58/42
f 33/36/45 48/60/45 49/64/45
f 26/38/47 41/62/47 42/65/47
f 35/42/48 34/40/48 49/64/48
f 27/41/49 42/65/49 43/66/50
f 54/57/51 69/83/51 70/67/51
f 48/60/52 47/58/52 62/68/52
f 48/60/55 63/69/55 64/73/55
f 41/62/56 56/71/56 57/74/56
f 50/50/57 49/64/57 64/73/57
f 42/65/58 57/74/58 58/76/58
f 51/51/59 50/50/59 65/75/59
f 43/66/60 58/76/60 59/78/60
f 51/51/61 66/77/61 67/79/61
f 44/52/62 59/78/62 60/80/62
f 52/53/63 67/79/63 68/81/63
f 46/56/64 45/54/64 60/80/64
f 53/55/65 68/81/65 69/83/65
f 46/56/66 61/82/66 62/68/66
f 66/77/67 81/99/67 82/84/67
f 59/78/68 74/100/68 75/85/68
f 68/81/69 67/79/69 82/84/69
f 61/82/70 60/80/70 75/85/70
f 69/83/71 68/81/71 83/86/71
f 62/68/72 61/82/72 76/87/72
f 69/83/73 84/88/73 85/90/73
f 63/69/74 62/68/529 77/89/74
f 63/69/77 78/91/77 79/95/77
f 56/71/79 71/93/79 72/96/79
f 64/73/80 79/95/80 80/97/80
f 57/74/81 72/96/81 73/98/81
f 65/75/82 80/97/82 81/99/82
f 58/76/83 73/98/83 74/100/83
f 78/91/86 93/117/86 94/105/86
f 71/93/87 86/102/87 87/106/87
f 80/97/88 79/95/88 94/105/88
f 72/96/89 87/106/89 88/108/90
f 80/97/91 95/107/91 96/109/91
f 73/98/92 88/108/92 89/110/92
f 81/99/93 96/109/93 97/111/93
f 75/85/94 74/100/94 89/110/94
f 82/84/95 97/111/95 98/113/95
f 75/85/96 90/112/96 91/114/96
f 83/86/97 98/113/98 99/115/98
f 77/89/99 76/87/99 91/114/99
f 84/88/100 99/115/100 100/104/100
f 78/91/101 77/89/530 92/116/101
f 90/112/102 89/110/102 104/118/102
f 98/113/103 97/111/103 112/120/103
f 90/112/104 105/119/104 106/122/104
f 98/113/105 113/121/105 114/123/105
f 92/116/106 91/114/106 106/122/106
f 99/115/107 114/123/107 115/125/107
f 93/117/108 92/116/108 107/124/108
f 93/117/111 108/126/111 109/130/111
f 86/102/112 101/128/112 102/131/112
f 95/107/113 94/105/113 109/130/113
f 87/106/114 102/131/114 103/133/114
f 95/107/115 110/132/115 111/134/115
f 88/108/116 103/133/116 104/118/116
f 96/109/117 111/134/117 112/120/117
f 108/126/118 123/149/118 124/135/118
f 102/131/119 101/128/119 116/136/119
f 110/132/120 109/130/120 124/135/120
f 102/131/121 117/137/121 118/139/121
f 110/132/122 125/138/122 126/140/122
f 103/133/123 118/139/123 119/141/123
f 112/120/124 111/134/124 126/140/124
f 104/118/125 119/141/125 120/143/125
f 113/121/126 112/120/126 127/142/126
f 105/119/127 120/143/127 121/145/127
f 114/123/128 113/121/128 128/144/128
f 106/122/129 121/145/129 122/147/129
f 114/123/130 129/146/130 130/148/130
f 108/126/131 107/124/131 122/147/131
f 128/144/134 127/142/134 142/152/134
f 120/143/135 135/168/135 136/154/135
f 128/144/136 143/153/136 144/155/136
f 121/145/137 136/154/137 137/156/137
f 129/146/138 144/155/138 145/157/138
f 123/149/139 122/147/139 137/156/139
f 123/149/142 138/158/142 139/162/142
f 117/137/143 116/136/143 131/160/143
f 124/135/144 139/162/144 140/164/144
f 118/139/145 117/137/145 132/163/145
f 125/138/146 140/164/146 141/166/146
f 118/139/147 133/165/147 134/167/147
f 126/140/148 141/166/148 142/152/148
f 120/143/149 119/141/149 134/167/149
f 131/160/150 146/184/150 147/169/150
f 140/164/151 139/162/151 154/170/151
f 132/163/152 147/169/152 148/172/152
f 140/164/153 155/171/153 156/173/153
f 133/165/154 148/172/154 149/174/154
f 141/166/155 156/173/155 157/175/155
f 135/168/156 134/167/156 149/174/156
f 143/153/157 142/152/157 157/175/157
f 135/168/158 150/176/158 151/178/158
f 143/153/159 158/177/159 159/179/159
f 137/156/160 136/154/160 151/178/160
f 145/157/161 144/155/161 159/179/161
f 138/158/162 137/156/162 152/180/162
f 138/158/165 153/182/165 154/170/165
f 150/176/166 165/201/166 166/186/166
f 158/177/167 173/202/167 174/187/168
f 152/180/169 151/178/169 166/186/169
f 160/181/170 159/179/170 174/187/170
f 153/182/171 152/180/171 167/188/171
f 153/182/174 168/190/174 169/194/174
f 146/184/175 161/192/175 162/195/175
f 155/171/176 154/170/176 169/194/176
f 147/169/177 162/195/177 163/197/177
f 155/171/178 170/196/178 171/198/178
f 148/172/179 163/197/179 164/199/179
f 157/175/180 156/173/180 171/198/180
f 149/174/181 164/199/181 165/201/181
f 158/177/182 157/175/182 172/200/182
f 170/196/183 169/194/183 184/203/183
f 162/195/184 177/219/184 178/205/184
f 170/196/185 185/204/185 186/206/185
f 163/197/186 178/205/186 179/207/186
f 172/200/187 171/198/187 186/206/187
f 164/199/188 179/207/188 180/209/188
f 172/200/189 187/208/189 188/210/189
f 165/201/190 180/209/190 181/211/190
f 173/202/191 188/210/191 189/212/191
f 167/188/192 166/186/192 181/211/192
f 174/187/193 189/212/193 190/214/193
f 168/190/194 167/188/194 182/213/194
f 168/190/197 183/215/197 184/203/197
f 161/192/198 176/217/198 177/219/198
f 189/212/199 188/210/199 203/220/199
f 181/211/200 196/236/200 197/222/200
f 189/212/201 204/221/201 205/223/201
f 183/215/202 182/213/202 197/222/202
f 183/215/205 198/224/205 199/228/205
f 177/219/206 176/217/206 191/226/206
f 185/204/207 184/203/207 199/228/207
f 177/219/208 192/229/208 193/231/208
f 185/204/209 200/230/209 201/232/209
f 178/205/210 193/231/210 194/233/210
f 186/206/211 201/232/211 202/234/211
f 180/209/212 179/207/212 194/233/212
f 187/208/213 202/234/213 203/220/213
f 180/209/214 195/235/214 196/236/214
f 200/230/215 215/252/215 216/237/215
f 193/231/216 208/253/216 209/238/216
f 201/232/217 216/237/217 217/239/217
f 195/235/218 194/233/218 209/238/218
f 203/220/219 202/234/219 217/239/219
f 195/235/220 210/240/220 211/242/220
f 203/220/221 218/241/221 219/243/222
f 197/222/223 196/236/223 211/242/223
f 204/221/224 219/243/224 220/245/224
f 198/224/225 197/222/225 212/244/225
f 198/224/228 213/246/228 214/250/228
f 191/226/229 206/248/229 207/251/229
f 199/228/230 214/250/230 215/252/230
f 192/229/231 207/251/231 208/253/231
f 219/243/232 234/270/232 235/254/232
f 213/246/233 212/244/233 227/255/233
f 213/246/236 228/256/236 229/260/236
f 206/248/237 221/258/237 222/261/237
f 214/250/238 229/260/238 230/262/238
f 208/253/239 207/251/239 222/261/239
f 215/252/240 230/262/240 231/264/240
f 208/253/241 223/263/241 224/265/241
f 216/237/242 231/264/242 232/266/242
f 209/238/243 224/265/243 225/267/243
f 218/241/244 217/239/244 232/266/244
f 211/242/245 210/240/245 225/267/245
f 218/241/246 233/268/246 234/270/246
f 212/244/247 211/242/247 226/269/247
f 223/263/248 238/286/248 239/271/248
f 231/264/249 246/287/249 247/272/249
f 225/267/250 224/265/250 239/271/250
f 233/268/251 232/266/251 247/272/251
f 225/267/252 240/273/252 241/275/252
f 234/270/253 233/268/253 248/274/253
f 227/255/254 226/269/254 241/275/254
f 235/254/255 234/270/255 249/276/255
f 228/256/256 227/255/531 242/277/256
f 228/256/259 243/279/259 244/283/259
f 221/258/261 236/281/261 237/284/261
f 230/262/262 229/260/262 244/283/262
f 222/261/263 237/284/263 238/286/263
f 230/262/264 245/285/264 246/287/264
f 243/279/265 242/277/265 257/288/265
f 243/279/268 258/289/268 259/294/268
f 237/284/269 236/281/269 251/291/269
f 244/283/270 259/294/270 260/296/270
f 237/284/271 252/295/271 253/297/271
f 245/285/272 260/296/272 261/298/272
f 238/286/273 253/297/273 254/299/273
f 246/287/274 261/298/274 262/300/274
f 240/273/275 239/271/275 254/299/275
f 248/274/276 247/272/276 262/300/276
f 240/273/277 255/301/277 256/303/277
f 248/274/278 263/302/278 264/304/278
f 242/277/279 241/275/279 256/303/279
f 249/276/280 264/304/280 265/293/280
f 261/298/281 276/321/281 277/305/281
f 255/301/282 254/299/282 269/306/282
f 263/302/283 262/300/283 277/305/283
f 255/301/284 270/307/284 271/309/284
f 263/302/285 278/308/285 279/310/285
f 257/288/286 256/303/286 271/309/286
f 265/293/287 264/304/287 279/310/287
f 258/289/288 257/288/288 272/311/288
f 258/289/291 273/313/291 274/317/291
f 251/291/292 266/315/292 267/318/292
f 260/296/293 259/294/293 274/317/293
f 252/295/294 267/318/294 268/320/294
f 260/296/295 275/319/295 276/321/295
f 253/297/296 268/320/296 269/306/296
f 273/313/299 288/338/299 289/326/299
f 267/318/300 266/315/300 281/323/300
f 274/317/301 289/326/301 290/328/301
f 267/318/302 282/327/302 283/329/302
f 275/319/303 290/328/303 291/330/303
f 268/320/304 283/329/304 284/331/304
f 276/321/305 291/330/305 292/332/305
f 270/307/306 269/306/306 284/331/306
f 278/308/307 277/305/307 292/332/307
f 270/307/308 285/333/308 286/335/308
f 278/308/309 293/334/309 294/336/310
f 272/311/311 271/309/311 286/335/311
f 279/310/312 294/336/312 295/325/312
f 273/313/313 272/311/313 287/337/313
f 284/331/314 299/355/314 300/339/314
f 293/334/315 292/332/315 307/340/315
f 285/333/316 300/339/316 301/342/316
f 294/336/317 293/334/317 308/341/317
f 287/337/318 286/335/318 301/342/318
f 295/325/319 294/336/319 309/343/319
f 288/338/320 287/337/320 302/344/320
f 288/338/323 303/346/323 304/350/323
f 281/323/324 296/348/324 297/351/324
f 290/328/325 289/326/325 304/350/325
f 282/327/326 297/351/326 298/353/326
f 290/328/327 305/352/327 306/354/327
f 283/329/328 298/353/328 299/355/328
f 291/330/329 306/354/329 307/340/329
f 303/346/330 318/370/330 319/356/330
f 297/351/331 296/348/331 311/357/331
f 305/352/332 304/350/332 319/356/332
f 297/351/333 312/358/333 313/360/333
f 305/352/334 320/359/334 321/361/334
f 298/353/335 313/360/335 314/362/335
f 306/354/336 321/361/336 322/363/336
f 299/355/337 314/362/337 315/364/337
f 308/341/338 307/340/338 322/363/338
f 301/342/339 300/339/339 315/364/339
f 308/341/340 323/365/340 324/367/340
f 302/344/341 301/342/341 316/366/341
f 309/343/342 324/367/342 325/369/342
f 303/346/343 302/344/343 317/368/343
f 323/365/346 322/363/346 338/373/346
f 316/366/347 315/364/347 331/375/347
f 324/367/348 323/365/348 339/374/348
f 317/368/349 316/366/349 332/376/349
f 325/369/350 324/367/350 340/377/350
f 318/370/351 317/368/351 333/378/351
f 318/370/354 334/380/354 335/384/354
f 311/357/355 327/382/355 328/385/355
f 320/359/356 319/356/356 335/384/356
f 312/358/357 328/385/357 329/387/357
f 320/359/358 336/386/358 337/388/358
f 313/360/359 329/387/359 330/389/359
f 321/361/360 337/388/360 338/373/360
f 315/364/361 314/362/361 330/389/361
f 336/386/362 335/384/362 350/390/362
f 329/387/363 328/385/363 343/392/363
f 336/386/364 351/391/364 352/394/364
f 330/389/365 329/387/365 344/393/365
f 337/388/366 352/394/366 353/396/366
f 331/375/367 330/389/367 345/395/367
f 338/373/368 353/396/368 354/398/368
f 331/375/369 346/397/369 347/399/369
f 339/374/370 354/398/370 355/400/370
f 333/378/371 332/376/371 347/399/371
f 341/379/372 340/377/372 355/400/372
f 334/380/373 333/378/373 348/401/373
f 334/380/376 349/403/376 350/390/376
f 327/382/377 342/405/377 343/392/377
f 354/398/378 369/423/378 370/407/378
f 348/401/379 347/399/379 362/408/379
f 355/400/380 370/407/380 371/410/380
f 349/403/381 348/401/532 363/409/381
f 349/403/384 364/411/384 365/415/384
f 342/405/386 357/413/386 358/416/386
f 350/390/387 365/415/387 366/417/387
f 343/392/388 358/416/388 359/418/388
f 351/391/389 366/417/389 367/419/389
f 344/393/390 359/418/390 360/420/390
f 353/396/391 352/394/391 367/419/391
f 346/397/392 345/395/392 360/420/392
f 354/398/393 353/396/393 368/421/393
f 347/399/394 346/397/394 361/422/394
f 358/424/395 373/454/395 374/425/395
f 366/427/396 381/455/396 382/428/396
f 359/426/397 374/425/397 375/430/397
f 367/429/398 382/428/398 383/432/398
f 360/431/399 375/430/399 376/434/399
f 369/436/400 368/433/400 383/432/400
f 361/435/401 376/434/401 377/438/401
f 369/436/402 384/437/402 385/440/402
f 362/439/403 377/438/403 378/442/403
f 370/441/404 385/440/404 386/444/404
f 364/446/405 363/443/405 378/442/405
f 364/446/408 379/447/408 380/452/408
f 357/448/410 372/450/410 373/454/410
f 365/453/411 380/452/411 381/455/411
f 378/442/412 377/438/412 392/456/412
f 385/440/413 400/472/413 401/458/413
f 379/447/414 378/442/414 393/457/414
f 379/447/417 394/459/417 395/463/417
f 372/450/418 387/461/418 388/464/418
f 381/455/419 380/452/419 395/463/419
f 373/454/420 388/464/420 389/466/420
f 381/455/421 396/465/421 397/467/421
f 374/425/422 389/466/422 390/468/422
f 382/428/423 397/467/423 398/469/423
f 376/434/424 375/430/424 390/468/424
f 384/437/425 383/432/425 398/469/425
f 376/434/426 391/470/426 392/456/426
f 384/437/427 399/471/427 400/472/427
f 396/465/428 411/488/428 412/473/428
f 389/466/429 404/489/429 405/474/429
f 398/469/430 397/467/430 412/473/430
f 390/468/431 405/474/431 406/476/431
f 399/471/432 398/469/432 413/475/432
f 392/456/433 391/470/433 406/476/433
f 400/472/434 399/471/434 414/477/434
f 393/457/435 392/456/435 407/478/435
f 400/472/436 415/479/436 416/481/436
f 394/459/437 393/457/437 408/480/437
f 394/459/440 409/482/440 410/486/440
f 387/461/441 402/484/533 403/487/441
f 396/465/442 395/463/442 410/486/442
f 388/464/443 403/487/443 404/489/444
f 415/479/445 430/506/445 431/490/445
f 409/482/446 408/480/446 423/491/446
f 409/482/449 424/492/449 425/496/449
f 403/487/450 402/484/450 417/494/450
f 410/486/451 425/496/451 426/498/451
f 404/489/452 403/487/452 418/497/452
f 411/488/453 426/498/453 427/500/453
f 404/489/454 419/499/454 420/501/454
f 412/473/455 427/500/455 428/502/455
f 406/476/456 405/474/456 420/501/456
f 414/477/457 413/475/457 428/502/457
f 407/478/458 406/476/458 421/503/458
f 414/477/459 429/504/459 430/506/459
f 408/480/460 407/478/460 422/505/460
f 419/499/461 434/523/461 435/507/461
f 428/502/462 427/500/462 442/508/462
f 420/501/463 435/507/463 436/510/463
f 429/504/464 428/502/464 443/509/464
f 422/505/465 421/503/465 436/510/465
f 429/504/466 444/511/466 445/513/466
f 423/491/467 422/505/467 437/512/467
f 430/506/468 445/513/468 446/515/468
f 424/492/469 423/491/469 438/514/469
f 424/492/472 439/516/472 440/520/472
f 417/494/473 432/518/473 433/521/473
f 425/496/474 440/520/474 441/522/474
f 418/497/475 433/521/475 434/523/475
f 426/498/476 441/522/476 442/508/476
f 439/516/477 438/514/477 453/524/477
f 439/516/480 454/525/480 455/530/480
f 432/518/481 447/527/481 448/531/481
f 440/520/482 455/530/482 456/532/482
f 434/523/483 433/521/483 448/531/483
f 441/522/485 456/532/485 457/534/485
f 434/523/486 449/533/486 450/535/486
f 442/508/487 457/534/487 458/536/487
f 435/507/488 450/535/488 451/537/488
f 444/511/489 443/509/489 458/536/489
f 436/510/490 451/537/490 452/539/490
f 444/511/491 459/538/491 460/540/491
f 438/514/492 437/512/492 452/539/492
f 445/513/493 460/540/493 461/529/493
f 457/534/495 472/556/495 473/541/495
f 450/535/496 465/557/496 466/542/496
f 459/538/497 458/536/497 473/541/497
f 452/539/498 451/537/498 466/542/498
f 459/538/499 474/543/499 475/545/499
f 453/524/500 452/539/500 467/544/500
f 461/529/501 460/540/501 475/545/501
f 454/525/502 453/524/502 468/546/502
f 454/525/505 469/548/505 470/552/505
f 448/531/506 447/527/506 462/550/506
f 455/530/507 470/552/507 471/554/507
f 448/531/508 463/553/508 464/555/508
f 456/532/509 471/554/509 472/556/509
f 449/533/510 464/555/510 465/557/510
f 469/548/512 477/7/512 478/9/512
f 463/553/513 462/550/513 1/1/513
f 471/554/514 470/552/514 478/9/514
f 464/555/515 463/553/515 2/11/515
f 471/554/516 479/13/516 8/17/516
f 465/557/517 464/555/517 3/15/517
f 472/556/518 8/17/518 9/21/518
f 466/542/519 465/557/519 4/19/519
f 473/541/520 9/21/520 10/24/520
f 467/544/521 466/542/521 5/23/521
f 474/543/522 10/24/522 480/29/522
f 468/546/523 467/544/523 6/27/523
f 476/547/524 475/545/524 480/29/524
f 469/548/525 468/546/525 7/30/525
