# Blender 4.4.1
# www.blender.org
mtllib leftForeArm.mtl
o leftForeArm
v -0.066749 -1.585882 -0.169583
v 0.078561 -1.585882 -0.169583
v 0.078561 -1.585882 0.074213
v -0.066749 -1.585882 0.074213
v -0.021493 -2.044898 -0.331906
v 0.033305 -2.044898 -0.331906
v 0.033305 -1.927206 0.228986
v -0.021493 -1.927206 0.228986
v 0.140510 -1.585882 -0.014277
v 0.140510 -1.585882 -0.163645
v -0.128698 -1.585882 -0.163644
v -0.128698 -1.585882 -0.014276
v 0.033305 -2.136758 0.023846
v 0.033305 -2.136758 -0.229295
v -0.021493 -2.136758 -0.229295
v -0.021493 -2.136758 0.023846
v -0.102196 -0.394161 -0.230106
v -0.194369 -0.394161 -0.201059
v -0.194369 -0.394161 0.021182
v 0.206181 -0.394161 0.021181
v 0.206181 -0.394161 -0.201060
v 0.114007 -0.394161 -0.230107
v 0.114007 -0.394161 0.107879
v -0.102196 -0.394161 0.107879
v 0.103140 -0.047301 -0.224741
v 0.102528 0.000908 -0.224870
v -0.091329 -0.047301 -0.224740
v -0.090716 0.000908 -0.224869
v 0.103126 -0.046852 0.075465
v 0.102514 0.000752 0.074582
v -0.091314 -0.046852 0.075466
v -0.090702 0.000752 0.074583
v -0.174225 -0.047126 -0.189023
v -0.173098 0.000952 -0.188313
v -0.174224 -0.047104 0.010864
v -0.173096 0.000936 0.010323
v 0.186036 -0.047104 0.010863
v 0.184908 0.000936 0.010322
v 0.186037 -0.047126 -0.189024
v 0.184910 0.000952 -0.188314
v 0.068229 -1.440403 -0.153535
v 0.067122 -1.329478 -0.152123
v 0.066285 -1.385115 -0.150607
v 0.067163 -1.328661 0.043371
v 0.068204 -1.440055 0.048937
v 0.066290 -1.384775 0.043380
v -0.056392 -1.440055 0.048937
v -0.055351 -1.328661 0.043372
v -0.054479 -1.384775 0.043381
v -0.055310 -1.329478 -0.152123
v -0.056417 -1.440403 -0.153535
v -0.054474 -1.385116 -0.150607
v -0.109564 -1.440457 -0.148445
v -0.107571 -1.328770 -0.146020
v -0.105977 -1.384924 -0.145350
v -0.109566 -1.440474 -0.020309
v -0.107573 -1.328748 -0.020096
v -0.105979 -1.384923 -0.021194
v 0.121378 -1.440474 -0.020310
v 0.119385 -1.328748 -0.020097
v 0.117791 -1.384923 -0.021195
v 0.121376 -1.440457 -0.148446
v 0.119383 -1.328770 -0.146021
v 0.117789 -1.384924 -0.145351
vn 0.2992 -0.0942 -0.9495
vn -0.0000 -0.0831 -0.9965
vn -0.7869 0.1286 0.6035
vn -0.6827 -0.0843 0.7258
vn -0.0000 -0.6995 0.7146
vn -0.0000 0.3334 -0.9428
vn 0.0949 0.0996 -0.9905
vn -0.0000 0.4130 0.9107
vn -0.8134 -0.1189 0.5694
vn -0.9816 -0.1910 -0.0000
vn -0.0950 0.0996 -0.9905
vn 0.9816 -0.1910 -0.0000
vn 0.8134 -0.1189 0.5694
vn -0.0000 -1.0000 -0.0000
vn -0.0000 -0.7451 -0.6670
vn -0.9957 -0.0925 -0.0000
vn -0.2992 -0.0942 -0.9495
vn 0.9957 -0.0925 -0.0000
vn -0.0000 -0.0689 0.9976
vn -0.0000 0.0929 0.9957
vn 0.9983 0.0579 -0.0000
vn -0.6137 0.0590 0.7874
vn 0.3950 0.0547 -0.9170
vn -0.0000 0.0155 -0.9999
vn 0.0948 0.1158 -0.9887
vn -0.0000 0.1708 0.9853
vn -0.9915 0.1304 -0.0000
vn -0.9915 0.1305 -0.0000
vn 0.9915 0.1304 -0.0000
vn 0.9915 0.1305 -0.0000
vn -0.0948 0.1158 -0.9887
vn 0.6827 -0.0843 0.7258
vn 0.7869 0.1286 0.6035
vn -0.0000 0.1096 -0.9940
vn -0.3950 0.0547 -0.9170
vn 0.6137 0.0590 0.7874
vn -0.9983 0.0579 -0.0000
vn 0.6146 0.0228 0.7885
vn 0.6148 0.0232 0.7884
vn 0.6145 0.0225 0.7886
vn 0.9997 0.0235 -0.0000
vn 0.9997 0.0234 -0.0000
vn -0.3957 0.0026 -0.9184
vn -0.9997 0.0235 -0.0000
vn -0.9997 0.0234 -0.0000
vn -0.6147 0.0231 0.7884
vn -0.6148 0.0232 0.7884
vn -0.6148 0.0233 0.7883
vn -0.0000 0.0185 0.9998
vn 0.4055 0.0230 -0.9138
vn -0.0000 -0.0027 -1.0000
vn 0.7903 0.0883 0.6063
vn 0.7721 -0.0119 0.6353
vn 0.9979 0.0644 -0.0000
vn 0.9979 0.0645 -0.0000
vn 0.9996 -0.0284 -0.0000
vn -0.1005 0.0621 -0.9930
vn -0.0983 0.0590 -0.9934
vn -0.0952 0.0560 -0.9939
vn -0.1016 -0.0286 -0.9944
vn -0.9979 0.0644 -0.0000
vn -0.9979 0.0645 -0.0000
vn -0.9996 -0.0284 -0.0000
vn -0.7805 0.0603 0.6223
vn -0.7813 -0.0344 0.6232
vn -0.0000 0.1000 0.9950
vn -0.0000 0.0002 1.0000
vn 0.1005 0.0622 -0.9930
vn 0.0982 0.0590 -0.9934
vn 0.1011 0.0619 -0.9930
vn 0.1162 -0.0151 -0.9931
vn -0.0000 0.0529 -0.9986
vn -0.0000 -0.0272 -0.9996
vn 0.1166 -0.0692 -0.9908
vn -0.8092 0.1557 0.5665
vn -0.7683 -0.0993 0.6323
vn 0.9950 -0.0745 -0.0667
vn -0.9917 -0.0899 0.0918
vn -0.9950 -0.0745 -0.0667
vn 0.9917 -0.0899 0.0918
vn -0.1166 -0.0692 -0.9908
vn -0.6824 0.0891 0.7255
vn 0.3005 0.0242 -0.9535
vn 0.7683 -0.0993 0.6323
vn 0.8092 0.1557 0.5665
vn -0.3005 0.0242 -0.9535
vn 0.6824 0.0891 0.7255
vn 0.6148 0.0233 0.7883
vn -0.4055 0.0230 -0.9138
vn -0.6145 0.0225 0.7886
vn 0.3957 0.0026 -0.9184
vn 0.7805 0.0603 0.6223
vn 0.7813 -0.0344 0.6232
vn -0.1011 0.0619 -0.9929
vn -0.1162 -0.0151 -0.9931
vn -0.7903 0.0883 0.6063
vn -0.7721 -0.0119 0.6353
vn 0.0952 0.0560 -0.9939
vn 0.1016 -0.0286 -0.9944
vn -0.0007 1.0000 0.0009
vn -0.0005 1.0000 0.0003
vn 0.0003 1.0000 0.0002
vn 0.0006 1.0000 0.0001
vn 0.0005 1.0000 0.0006
vn -0.0000 1.0000 0.0029
vn -0.0022 1.0000 0.0001
vn -0.0000 1.0000 -0.0012
vt 0.625000 0.562500
vt 0.625000 0.500000
vt 0.562500 0.500000
vt 0.562500 0.687500
vt 0.562500 0.750000
vt 0.625000 0.687500
vt 0.625000 0.750000
vt 0.562500 0.562500
vt 0.625000 0.562083
vt 0.625000 0.687822
vt 0.562500 0.562083
vt 0.562500 0.687822
vt 0.625000 0.688064
vt 0.562500 0.688064
s 1
usemtl マテリアル
f 21/1/1 42/2/1 22/2/1
f 22/2/2 50/3/2 17/3/2
f 12/4/3 47/5/3 56/4/3
f 19/4/4 48/5/4 24/5/4
f 13/6/5 8/5/5 16/4/5
f 6/2/6 1/3/6 2/2/6
f 14/1/7 2/2/7 10/1/7
f 4/5/8 7/7/8 3/7/8
f 16/4/9 4/5/9 12/4/9
f 11/8/10 16/4/10 12/4/10
f 1/3/11 15/8/11 11/8/11
f 13/6/12 10/1/12 9/6/12
f 3/7/13 13/6/13 9/6/13
f 14/1/14 16/4/14 15/8/14
f 6/2/15 15/8/15 5/3/15
f 54/8/16 19/4/16 18/8/16
f 50/3/17 18/8/17 17/3/17
f 20/6/18 63/1/18 21/1/18
f 48/5/19 23/7/19 24/5/19
f 31/5/20 23/7/20 29/7/20
f 20/6/21 39/1/21 37/6/21
f 19/4/22 31/5/22 35/4/22
f 21/1/23 25/2/23 39/1/23
f 22/2/24 27/3/24 25/2/24
f 10/1/25 41/2/25 62/1/25
f 4/5/26 45/7/26 47/5/26
f 53/8/27 12/4/27 56/4/28
f 9/6/29 62/1/29 59/6/30
f 51/3/31 11/8/31 53/8/31
f 44/7/32 20/6/32 23/7/32
f 45/7/33 9/6/33 59/6/33
f 2/2/34 51/3/34 41/2/34
f 27/3/35 18/8/35 33/8/35
f 29/7/36 20/6/36 37/6/36
f 33/8/37 19/4/37 35/4/37
f 37/6/38 30/7/39 29/7/40
f 37/6/41 40/9/42 38/10/41
f 33/8/43 28/3/43 27/3/43
f 35/4/44 34/11/45 33/8/45
f 35/4/46 32/5/47 36/12/48
f 29/7/49 32/5/49 31/5/49
f 39/1/50 26/2/50 40/9/50
f 27/3/51 26/2/51 25/2/51
f 59/6/52 46/7/52 45/7/52
f 46/7/53 60/6/53 44/7/53
f 59/6/54 64/1/55 61/13/54
f 61/13/56 63/1/56 60/6/56
f 53/8/57 52/3/58 51/3/59
f 55/8/60 50/3/60 52/3/60
f 56/4/61 55/8/62 53/8/62
f 58/14/63 54/8/63 55/8/63
f 56/4/64 49/5/64 58/14/64
f 49/5/65 57/4/65 58/14/65
f 45/7/66 49/5/66 47/5/66
f 46/7/67 48/5/67 49/5/67
f 62/1/68 43/2/69 64/1/70
f 64/1/71 42/2/71 63/1/71
f 51/3/72 43/2/72 41/2/72
f 52/3/73 42/2/73 43/2/73
f 21/1/74 63/1/74 42/2/74
f 22/2/2 42/2/2 50/3/2
f 12/4/75 4/5/75 47/5/75
f 19/4/76 57/4/76 48/5/76
f 13/6/5 7/7/5 8/5/5
f 6/2/6 5/3/6 1/3/6
f 14/1/77 6/2/77 2/2/77
f 4/5/8 8/5/8 7/7/8
f 16/4/78 8/5/78 4/5/78
f 11/8/10 15/8/10 16/4/10
f 1/3/79 5/3/79 15/8/79
f 13/6/12 14/1/12 10/1/12
f 3/7/80 7/7/80 13/6/80
f 14/1/14 13/6/14 16/4/14
f 6/2/15 14/1/15 15/8/15
f 54/8/16 57/4/16 19/4/16
f 50/3/81 54/8/81 18/8/81
f 20/6/18 60/6/18 63/1/18
f 48/5/19 44/7/19 23/7/19
f 31/5/20 24/5/20 23/7/20
f 20/6/21 21/1/21 39/1/21
f 19/4/82 24/5/82 31/5/82
f 21/1/83 22/2/83 25/2/83
f 22/2/24 17/3/24 27/3/24
f 10/1/25 2/2/25 41/2/25
f 4/5/26 3/7/26 45/7/26
f 53/8/27 11/8/27 12/4/27
f 9/6/29 10/1/29 62/1/29
f 51/3/31 1/3/31 11/8/31
f 44/7/84 60/6/84 20/6/84
f 45/7/85 3/7/85 9/6/85
f 2/2/34 1/3/34 51/3/34
f 27/3/86 17/3/86 18/8/86
f 29/7/87 23/7/87 20/6/87
f 33/8/37 18/8/37 19/4/37
f 37/6/38 38/10/88 30/7/39
f 37/6/41 39/1/42 40/9/42
f 33/8/89 34/11/89 28/3/89
f 35/4/44 36/12/44 34/11/45
f 35/4/46 31/5/90 32/5/47
f 29/7/49 30/7/49 32/5/49
f 39/1/91 25/2/91 26/2/91
f 27/3/51 28/3/51 26/2/51
f 59/6/92 61/13/92 46/7/92
f 46/7/93 61/13/93 60/6/93
f 59/6/54 62/1/55 64/1/55
f 61/13/56 64/1/56 63/1/56
f 53/8/57 55/8/94 52/3/58
f 55/8/95 54/8/95 50/3/95
f 56/4/61 58/14/61 55/8/62
f 58/14/63 57/4/63 54/8/63
f 56/4/96 47/5/96 49/5/96
f 49/5/97 48/5/97 57/4/97
f 45/7/66 46/7/66 49/5/66
f 46/7/67 44/7/67 48/5/67
f 62/1/68 41/2/98 43/2/69
f 64/1/99 43/2/99 42/2/99
f 51/3/72 52/3/72 43/2/72
f 52/3/73 50/3/73 42/2/73
f 30/7/100 40/9/101 28/3/102
f 28/3/102 34/11/103 36/12/104
f 36/12/104 32/5/105 30/7/100
f 30/7/100 38/10/106 40/9/101
f 40/9/101 26/2/107 28/3/102
f 28/3/102 36/12/104 30/7/100
