# Blender 4.4.1
# www.blender.org
mtllib head.mtl
o head
v 0.500000 1.336218 -0.518992
v 0.500000 0.408169 -0.499456
v 0.500000 1.336218 0.481008
v 0.500000 0.336217 0.481008
v -0.500000 1.336218 -0.518992
v -0.500000 0.408169 -0.499456
v -0.500000 1.336218 0.481008
v -0.500000 0.336217 0.481008
v -0.572933 0.263285 -0.315642
v -0.609568 0.226649 -0.018992
v -0.572933 0.263285 0.277658
v 0.296650 0.335237 -0.572388
v 0.000000 0.298602 -0.609023
v -0.296650 0.335237 -0.572388
v 0.572933 1.200337 -0.591925
v 0.609568 0.903687 -0.680638
v 0.572933 0.637276 -0.591925
v -0.572933 0.539568 0.553940
v -0.609568 0.836218 0.590576
v -0.572933 1.091494 0.553940
v 0.572933 1.091494 0.553940
v 0.609568 0.836218 0.590576
v 0.572933 0.597758 0.553940
v -0.572933 1.200337 -0.591925
v -0.609568 0.903687 -0.680638
v -0.572933 0.637276 -0.591925
v 0.296650 1.409150 0.553941
v 0.000000 1.445786 0.590576
v -0.296650 1.409150 0.553941
v 0.572933 1.409150 -0.315642
v 0.609568 1.445786 -0.018992
v 0.572933 1.409150 0.277658
v -0.337677 0.227306 0.553941
v 0.000000 0.050777 0.615697
v 0.337677 0.227306 0.553941
v -0.572933 1.409150 0.277658
v -0.609568 1.445786 -0.018992
v -0.572933 1.409150 -0.315642
v -0.296650 1.409150 -0.591925
v 0.000000 1.445786 -0.628560
v 0.296650 1.409150 -0.591925
v 0.572933 0.263285 0.277658
v 0.609568 0.226650 -0.018992
v 0.572933 0.263285 -0.315642
v 0.316157 1.565208 -0.335149
v 0.000000 1.618047 -0.352133
v -0.316157 1.565208 -0.335149
v 0.333141 1.618047 -0.018992
v 0.000000 1.675724 -0.018992
v -0.333140 1.618047 -0.018992
v 0.316157 1.565208 0.297165
v 0.000000 1.618047 0.314148
v -0.316157 1.565208 0.297165
v 0.345219 0.578107 0.709998
v 0.333141 0.752617 0.741228
v 0.316157 1.025547 0.709998
v 0.007016 0.503077 0.896251
v 0.000000 0.703823 0.798906
v 0.000000 1.042530 0.762837
v -0.357979 0.609842 0.709998
v -0.333140 0.752617 0.741228
v -0.316157 1.025547 0.709998
v -0.728990 0.520060 0.297165
v -0.781829 0.836218 0.314148
v -0.728990 1.152375 0.297165
v -0.781829 0.503077 -0.018992
v -0.839506 0.836218 -0.018992
v -0.781829 1.169358 -0.018992
v -0.728990 0.520060 -0.335149
v -0.781829 0.836218 -0.352133
v -0.728990 1.152375 -0.335149
v -0.316157 0.107228 -0.335149
v 0.000000 0.054389 -0.352133
v 0.316157 0.107227 -0.335149
v -0.333140 0.054389 -0.018992
v 0.000000 -0.003289 -0.018992
v 0.333141 0.054389 -0.018992
v -0.316157 0.107227 0.297165
v 0.000000 0.054389 0.314148
v 0.316157 0.107228 0.297165
v 0.728990 0.520060 -0.335149
v 0.781829 0.836218 -0.352133
v 0.728990 1.152375 -0.335149
v 0.781829 0.503077 -0.018992
v 0.839506 0.836218 -0.018992
v 0.781829 1.169358 -0.018992
v 0.728990 0.520060 0.297165
v 0.781829 0.836218 0.314148
v 0.728990 1.152375 0.297165
v -0.316157 0.617768 -0.747982
v -0.333140 0.903687 -0.852899
v -0.316157 1.219844 -0.747982
v 0.000000 0.600785 -0.800821
v 0.000000 0.903687 -0.910577
v 0.000000 1.236827 -0.800821
v 0.316157 0.617768 -0.747982
v 0.333140 0.903687 -0.852899
v 0.316157 1.219844 -0.747982
vn 0.1697 0.9708 -0.1697
vn 0.1681 0.9708 -0.1713
vn -0.1697 0.9708 -0.1697
vn -0.1713 0.9708 -0.1681
vn 0.1697 0.9708 0.1697
vn 0.1681 0.9708 0.1713
vn -0.1697 0.9708 0.1697
vn -0.1713 0.9708 0.1681
vn 0.4896 0.7501 -0.4446
vn 0.1678 0.8367 -0.5213
vn -0.1678 0.8367 -0.5213
vn -0.1677 0.8367 -0.5214
vn -0.4446 0.7501 -0.4896
vn -0.5213 0.8367 -0.1678
vn -0.5213 0.8367 0.1678
vn -0.4446 0.7501 0.4896
vn -0.1678 0.8367 0.5213
vn -0.1677 0.8367 0.5214
vn 0.1678 0.8367 0.5213
vn 0.4896 0.7501 0.4446
vn 0.5213 0.8367 0.1678
vn 0.5214 0.8367 0.1677
vn 0.5213 0.8367 -0.1678
vn 0.5214 0.8367 -0.1677
vn 0.3660 0.4164 0.8323
vn 0.1548 0.1046 0.9824
vn -0.3191 0.4045 0.8571
vn -0.1548 0.1046 0.9824
vn 0.5740 -0.3645 0.7332
vn 0.5650 -0.2094 0.7981
vn 0.4442 0.1291 0.8866
vn 0.4149 0.3609 0.8352
vn 0.1722 0.3870 0.9059
vn -0.1722 0.3870 0.9059
vn -0.4149 0.3609 0.8352
vn -0.4442 0.1291 0.8866
vn -0.5424 -0.1686 0.8230
vn -0.5999 -0.4519 0.6602
vn -0.3506 -0.3696 0.8605
vn 0.3573 -0.3860 0.8505
vn -0.9708 -0.1697 0.1697
vn -0.9708 -0.1681 0.1713
vn -0.9708 0.1697 0.1697
vn -0.9708 0.1713 0.1681
vn -0.9708 -0.1697 -0.1697
vn -0.9708 -0.1681 -0.1713
vn -0.9708 0.1697 -0.1697
vn -0.9708 0.1713 -0.1681
vn -0.7501 -0.4896 0.4446
vn -0.8367 -0.1678 0.5213
vn -0.8326 0.1939 0.5188
vn -0.7456 0.3844 0.5443
vn -0.8367 0.5213 0.1678
vn -0.8367 0.5213 -0.1678
vn -0.7396 0.5801 -0.3412
vn -0.8802 0.2324 -0.4138
vn -0.8075 -0.1654 -0.5662
vn -0.6553 -0.4487 -0.6077
vn -0.6565 -0.4444 -0.6095
vn -0.6554 -0.4447 -0.6105
vn -0.8367 -0.5213 -0.1678
vn -0.8367 -0.5214 -0.1677
vn -0.8367 -0.5213 0.1678
vn -0.8367 -0.5214 0.1677
vn -0.1697 -0.9708 -0.1697
vn -0.1681 -0.9708 -0.1713
vn 0.1697 -0.9708 -0.1697
vn 0.1713 -0.9708 -0.1681
vn -0.1697 -0.9708 0.1697
vn -0.1681 -0.9708 0.1713
vn 0.1697 -0.9708 0.1697
vn 0.1713 -0.9708 0.1681
vn -0.4269 -0.6201 -0.6582
vn -0.1551 -0.7059 -0.6912
vn 0.1720 -0.7140 -0.6787
vn 0.4523 -0.6241 -0.6371
vn 0.5213 -0.8367 -0.1678
vn 0.5213 -0.8367 0.1678
vn 0.6196 -0.7297 0.2893
vn 0.4617 -0.8870 -0.0106
vn -0.1718 -0.8978 0.4055
vn -0.4896 -0.7501 0.4446
vn -0.5213 -0.8367 0.1678
vn -0.5214 -0.8367 0.1677
vn -0.5213 -0.8367 -0.1678
vn -0.5214 -0.8367 -0.1677
vn 0.9708 -0.1697 -0.1697
vn 0.9708 -0.1681 -0.1713
vn 0.9708 0.1697 -0.1697
vn 0.9708 0.1713 -0.1681
vn 0.9708 -0.1697 0.1697
vn 0.9708 -0.1681 0.1713
vn 0.9708 0.1697 0.1697
vn 0.9708 0.1713 0.1681
vn 0.6565 -0.4444 -0.6095
vn 0.6553 -0.4487 -0.6077
vn 0.6554 -0.4447 -0.6105
vn 0.8075 -0.1654 -0.5662
vn 0.8802 0.2324 -0.4138
vn 0.7396 0.5801 -0.3412
vn 0.8367 0.5213 -0.1678
vn 0.8367 0.5213 0.1678
vn 0.7456 0.3844 0.5443
vn 0.8326 0.1939 0.5188
vn 0.8195 -0.1664 0.5484
vn 0.7501 -0.4896 0.4446
vn 0.8367 -0.5213 0.1678
vn 0.8367 -0.5214 0.1677
vn 0.8367 -0.5213 -0.1678
vn 0.8367 -0.5214 -0.1677
vn -0.1727 -0.3483 -0.9213
vn -0.1623 0.3088 -0.9372
vn 0.1727 -0.3483 -0.9213
vn 0.1623 0.3088 -0.9372
vn -0.4405 -0.4530 -0.7751
vn -0.5079 -0.3342 -0.7939
vn -0.5116 0.3031 -0.8040
vn -0.5120 0.3028 -0.8038
vn -0.5052 0.2961 -0.8106
vn -0.4519 0.5976 -0.6623
vn -0.4516 0.5974 -0.6626
vn -0.4499 0.5952 -0.6658
vn -0.1610 0.6278 -0.7615
vn 0.1610 0.6278 -0.7615
vn 0.4516 0.5974 -0.6627
vn 0.4519 0.5976 -0.6623
vn 0.4499 0.5952 -0.6658
vn 0.5121 0.3028 -0.8038
vn 0.5116 0.3031 -0.8040
vn 0.5052 0.2961 -0.8106
vn 0.5079 -0.3342 -0.7939
vn 0.4405 -0.4530 -0.7751
vn 0.1678 -0.5285 -0.8322
vn 0.1677 -0.5285 -0.8322
vn 0.1680 -0.5287 -0.8320
vn -0.1677 -0.5285 -0.8322
vn -0.1678 -0.5285 -0.8322
vn -0.1680 -0.5287 -0.8320
vn 0.1713 0.9708 -0.1681
vn -0.1681 0.9708 -0.1713
vn 0.1713 0.9708 0.1681
vn -0.1681 0.9708 0.1713
vn 0.4446 0.7501 -0.4896
vn 0.1677 0.8367 -0.5214
vn -0.4896 0.7501 -0.4446
vn -0.5214 0.8367 -0.1677
vn -0.5214 0.8367 0.1677
vn -0.4896 0.7501 0.4446
vn 0.1677 0.8367 0.5214
vn 0.4446 0.7501 0.4896
vn 0.1911 -0.1601 0.9684
vn 0.1700 0.1225 0.9778
vn -0.1931 -0.1775 0.9650
vn -0.1700 0.1225 0.9778
vn 0.5500 -0.3493 0.7586
vn 0.5026 -0.1185 0.8564
vn 0.4734 0.1913 0.8598
vn 0.4289 0.3730 0.8228
vn 0.1594 0.3790 0.9116
vn -0.1594 0.3790 0.9116
vn -0.4289 0.3730 0.8228
vn -0.4734 0.1913 0.8598
vn -0.4995 -0.1013 0.8604
vn -0.4706 -0.3546 0.8079
vn -0.5068 -0.4487 0.7361
vn 0.5044 -0.4608 0.7303
vn -0.9708 -0.1713 0.1681
vn -0.9708 0.1681 0.1713
vn -0.9708 -0.1713 -0.1681
vn -0.9708 0.1681 -0.1713
vn -0.7501 -0.4446 0.4896
vn -0.8367 -0.1677 0.5214
vn -0.8245 0.1668 0.5407
vn -0.7501 0.4896 0.4446
vn -0.8367 0.5214 0.1677
vn -0.8367 0.5214 -0.1677
vn -0.7501 0.4896 -0.4446
vn -0.8559 0.1693 -0.4886
vn -0.8264 -0.2769 -0.4902
vn -0.6552 -0.4527 -0.6048
vn -0.1713 -0.9708 -0.1681
vn 0.1681 -0.9708 -0.1713
vn -0.1713 -0.9708 0.1681
vn 0.1681 -0.9708 0.1713
vn -0.4523 -0.6241 -0.6371
vn -0.1720 -0.7140 -0.6787
vn 0.1551 -0.7059 -0.6912
vn 0.4269 -0.6201 -0.6582
vn 0.5214 -0.8367 -0.1677
vn 0.5214 -0.8367 0.1677
vn 0.4896 -0.7501 0.4446
vn 0.1718 -0.8978 0.4055
vn -0.4617 -0.8870 -0.0106
vn -0.6196 -0.7297 0.2893
vn 0.9708 -0.1713 -0.1681
vn 0.9708 0.1681 -0.1713
vn 0.9708 -0.1713 0.1681
vn 0.9708 0.1681 0.1713
vn 0.6552 -0.4527 -0.6048
vn 0.8264 -0.2769 -0.4902
vn 0.8559 0.1693 -0.4886
vn 0.7501 0.4896 -0.4446
vn 0.8367 0.5214 -0.1677
vn 0.8367 0.5214 0.1677
vn 0.7501 0.4896 0.4446
vn 0.8245 0.1668 0.5407
vn 0.8303 -0.2071 0.5174
vn 0.7431 -0.3638 0.5617
vn -0.1607 -0.3362 -0.9280
vn -0.1729 0.3186 -0.9320
vn 0.1607 -0.3362 -0.9280
vn 0.1729 0.3186 -0.9320
vn -0.4804 -0.4866 -0.7296
vn -0.5003 -0.3243 -0.8028
vn -0.5116 0.3036 -0.8038
vn -0.4519 0.5979 -0.6621
vn -0.1715 0.6371 -0.7514
vn 0.1715 0.6371 -0.7514
vn 0.4519 0.5979 -0.6621
vn 0.5116 0.3036 -0.8038
vn 0.5003 -0.3243 -0.8028
vn 0.4804 -0.4866 -0.7296
vn 0.1675 -0.5283 -0.8324
vn -0.1675 -0.5283 -0.8324
vt 0.000000 0.000000
s 1
usemtl Material.001
f 45/1/1 49/1/1 48/1/2
f 47/1/3 49/1/3 46/1/4
f 49/1/5 51/1/5 48/1/6
f 49/1/7 53/1/7 52/1/8
f 1/1/9 45/1/9 30/1/9
f 41/1/10 46/1/10 45/1/10
f 39/1/11 46/1/11 40/1/12
f 5/1/13 47/1/13 39/1/13
f 38/1/14 50/1/14 47/1/14
f 50/1/15 36/1/15 53/1/15
f 53/1/16 7/1/16 29/1/16
f 52/1/17 29/1/17 28/1/18
f 52/1/19 27/1/19 51/1/19
f 51/1/20 3/1/20 32/1/20
f 48/1/21 32/1/21 31/1/22
f 30/1/23 48/1/23 31/1/24
f 54/1/25 58/1/25 57/1/25
f 55/1/26 59/1/26 58/1/26
f 58/1/27 60/1/27 57/1/27
f 59/1/28 61/1/28 58/1/28
f 23/1/29 35/1/29 4/1/29
f 22/1/30 54/1/30 23/1/30
f 22/1/31 56/1/31 55/1/31
f 21/1/32 27/1/32 56/1/32
f 56/1/33 28/1/33 59/1/33
f 28/1/34 62/1/34 59/1/34
f 29/1/35 20/1/35 62/1/35
f 62/1/36 19/1/36 61/1/36
f 60/1/37 19/1/37 18/1/37
f 33/1/38 18/1/38 8/1/38
f 34/1/39 60/1/39 33/1/39
f 54/1/40 34/1/40 35/1/40
f 63/1/41 67/1/41 66/1/42
f 65/1/43 67/1/43 64/1/44
f 67/1/45 69/1/45 66/1/46
f 67/1/47 71/1/47 70/1/48
f 8/1/49 63/1/49 11/1/49
f 18/1/50 64/1/50 63/1/50
f 20/1/51 64/1/51 19/1/51
f 7/1/52 65/1/52 20/1/52
f 36/1/53 68/1/53 65/1/53
f 68/1/54 38/1/54 71/1/54
f 71/1/55 5/1/55 24/1/55
f 70/1/56 24/1/56 25/1/56
f 70/1/57 26/1/57 69/1/57
f 69/1/58 6/1/59 9/1/60
f 66/1/61 9/1/61 10/1/62
f 11/1/63 66/1/63 10/1/64
f 72/1/65 76/1/65 75/1/66
f 74/1/67 76/1/67 73/1/68
f 76/1/69 78/1/69 75/1/70
f 76/1/71 80/1/71 79/1/72
f 6/1/73 72/1/73 9/1/73
f 14/1/74 73/1/74 72/1/74
f 12/1/75 73/1/75 13/1/75
f 2/1/76 74/1/76 12/1/76
f 44/1/77 77/1/77 74/1/77
f 77/1/78 42/1/78 80/1/78
f 80/1/79 4/1/79 35/1/79
f 79/1/80 35/1/80 34/1/80
f 79/1/81 33/1/81 78/1/81
f 78/1/82 8/1/82 11/1/82
f 75/1/83 11/1/83 10/1/84
f 9/1/85 75/1/85 10/1/86
f 81/1/87 85/1/87 84/1/88
f 83/1/89 85/1/89 82/1/90
f 85/1/91 87/1/91 84/1/92
f 85/1/93 89/1/93 88/1/94
f 2/1/95 81/1/96 44/1/97
f 17/1/98 82/1/98 81/1/98
f 15/1/99 82/1/99 16/1/99
f 1/1/100 83/1/100 15/1/100
f 30/1/101 86/1/101 83/1/101
f 86/1/102 32/1/102 89/1/102
f 89/1/103 3/1/103 21/1/103
f 88/1/104 21/1/104 22/1/104
f 88/1/105 23/1/105 87/1/105
f 87/1/106 4/1/106 42/1/106
f 84/1/107 42/1/107 43/1/108
f 44/1/109 84/1/109 43/1/110
f 91/1/111 93/1/111 90/1/111
f 91/1/112 95/1/112 94/1/112
f 93/1/113 97/1/113 96/1/113
f 95/1/114 97/1/114 94/1/114
f 26/1/115 14/1/115 6/1/115
f 25/1/116 90/1/116 26/1/116
f 25/1/117 92/1/118 91/1/119
f 24/1/120 39/1/121 92/1/122
f 92/1/123 40/1/123 95/1/123
f 40/1/124 98/1/124 95/1/124
f 41/1/125 15/1/126 98/1/127
f 98/1/128 16/1/129 97/1/130
f 96/1/131 16/1/131 17/1/131
f 12/1/132 17/1/132 2/1/132
f 13/1/133 96/1/134 12/1/135
f 90/1/136 13/1/137 14/1/138
f 45/1/1 46/1/139 49/1/1
f 47/1/3 50/1/140 49/1/3
f 49/1/5 52/1/141 51/1/5
f 49/1/7 50/1/142 53/1/7
f 1/1/143 41/1/143 45/1/143
f 41/1/10 40/1/144 46/1/10
f 39/1/11 47/1/11 46/1/11
f 5/1/145 38/1/145 47/1/145
f 38/1/14 37/1/146 50/1/14
f 50/1/15 37/1/147 36/1/15
f 53/1/148 36/1/148 7/1/148
f 52/1/17 53/1/17 29/1/17
f 52/1/19 28/1/149 27/1/19
f 51/1/150 27/1/150 3/1/150
f 48/1/21 51/1/21 32/1/21
f 30/1/23 45/1/23 48/1/23
f 54/1/151 55/1/151 58/1/151
f 55/1/152 56/1/152 59/1/152
f 58/1/153 61/1/153 60/1/153
f 59/1/154 62/1/154 61/1/154
f 23/1/155 54/1/155 35/1/155
f 22/1/156 55/1/156 54/1/156
f 22/1/157 21/1/157 56/1/157
f 21/1/158 3/1/158 27/1/158
f 56/1/159 27/1/159 28/1/159
f 28/1/160 29/1/160 62/1/160
f 29/1/161 7/1/161 20/1/161
f 62/1/162 20/1/162 19/1/162
f 60/1/163 61/1/163 19/1/163
f 33/1/164 60/1/164 18/1/164
f 34/1/165 57/1/165 60/1/165
f 54/1/166 57/1/166 34/1/166
f 63/1/41 64/1/167 67/1/41
f 65/1/43 68/1/168 67/1/43
f 67/1/45 70/1/169 69/1/45
f 67/1/47 68/1/170 71/1/47
f 8/1/171 18/1/171 63/1/171
f 18/1/50 19/1/172 64/1/50
f 20/1/173 65/1/173 64/1/173
f 7/1/174 36/1/174 65/1/174
f 36/1/53 37/1/175 68/1/53
f 68/1/54 37/1/176 38/1/54
f 71/1/177 38/1/177 5/1/177
f 70/1/178 71/1/178 24/1/178
f 70/1/179 25/1/179 26/1/179
f 69/1/58 26/1/180 6/1/59
f 66/1/61 69/1/61 9/1/61
f 11/1/63 63/1/63 66/1/63
f 72/1/65 73/1/181 76/1/65
f 74/1/67 77/1/182 76/1/67
f 76/1/69 79/1/183 78/1/69
f 76/1/71 77/1/184 80/1/71
f 6/1/185 14/1/185 72/1/185
f 14/1/186 13/1/186 73/1/186
f 12/1/187 74/1/187 73/1/187
f 2/1/188 44/1/188 74/1/188
f 44/1/77 43/1/189 77/1/77
f 77/1/78 43/1/190 42/1/78
f 80/1/191 42/1/191 4/1/191
f 79/1/192 80/1/192 35/1/192
f 79/1/193 34/1/193 33/1/193
f 78/1/194 33/1/194 8/1/194
f 75/1/83 78/1/83 11/1/83
f 9/1/85 72/1/85 75/1/85
f 81/1/87 82/1/195 85/1/87
f 83/1/89 86/1/196 85/1/89
f 85/1/91 88/1/197 87/1/91
f 85/1/93 86/1/198 89/1/93
f 2/1/95 17/1/199 81/1/96
f 17/1/200 16/1/200 82/1/200
f 15/1/201 83/1/201 82/1/201
f 1/1/202 30/1/202 83/1/202
f 30/1/101 31/1/203 86/1/101
f 86/1/102 31/1/204 32/1/102
f 89/1/205 32/1/205 3/1/205
f 88/1/206 89/1/206 21/1/206
f 88/1/207 22/1/207 23/1/207
f 87/1/208 23/1/208 4/1/208
f 84/1/107 87/1/107 42/1/107
f 44/1/109 81/1/109 84/1/109
f 91/1/209 94/1/209 93/1/209
f 91/1/210 92/1/210 95/1/210
f 93/1/211 94/1/211 97/1/211
f 95/1/212 98/1/212 97/1/212
f 26/1/213 90/1/213 14/1/213
f 25/1/214 91/1/214 90/1/214
f 25/1/117 24/1/215 92/1/118
f 24/1/120 5/1/216 39/1/121
f 92/1/217 39/1/217 40/1/217
f 40/1/218 41/1/218 98/1/218
f 41/1/125 1/1/219 15/1/126
f 98/1/128 15/1/220 16/1/129
f 96/1/221 97/1/221 16/1/221
f 12/1/222 96/1/222 17/1/222
f 13/1/133 93/1/223 96/1/134
f 90/1/136 93/1/224 13/1/137
