# Blender 4.4.1
# www.blender.org
mtllib leftThighs.mtl
o leftThigh
v 0.210872 0.783554 0.344216
v 0.210872 0.783554 -0.439134
v -0.253664 0.783554 0.344216
v -0.253664 0.783554 -0.439134
v 0.449909 0.783554 0.148378
v 0.449909 0.783554 -0.243296
v -0.526030 0.692523 -0.243296
v -0.526030 0.692523 0.026280
v -0.221728 -0.354859 -0.408435
v -0.448168 -0.354859 -0.227289
v -0.448168 -0.467409 0.002369
v 0.444766 -0.354859 0.135005
v 0.444766 -0.354859 -0.227289
v 0.218326 -0.354859 -0.408435
v 0.218326 -0.354859 0.316152
v -0.221728 -0.354859 0.316152
v 0.179320 -0.702814 -0.338995
v 0.172992 -0.785886 -0.330920
v -0.182702 -0.702993 -0.338959
v -0.176388 -0.785919 -0.330907
v 0.179399 -0.702105 0.244720
v 0.173017 -0.786184 0.231551
v -0.182832 -0.701829 0.244777
v -0.176428 -0.786131 0.231567
v -0.369089 -0.702503 -0.193133
v -0.356202 -0.786112 -0.185216
v -0.374872 -0.705109 -0.023354
v -0.357896 -0.786883 -0.025227
v 0.365894 -0.701596 0.098809
v 0.352861 -0.785978 0.091172
v 0.365839 -0.701837 -0.193198
v 0.352845 -0.785984 -0.185229
vn -0.0000 -0.2015 0.9795
vn 0.6083 -0.2243 0.7613
vn 0.6026 -0.2179 0.7677
vn 0.6087 -0.2248 0.7609
vn -0.7547 -0.2123 0.6208
vn 0.9751 -0.2218 -0.0000
vn -0.6090 -0.2197 -0.7621
vn -0.6033 -0.2134 -0.7685
vn -0.6093 -0.2203 -0.7617
vn -0.9664 -0.2309 -0.1132
vn 0.6033 -0.2134 -0.7685
vn 0.6090 -0.2197 -0.7621
vn 0.6093 -0.2203 -0.7617
vn -0.0000 -0.0270 -0.9996
vn 0.6268 -0.0145 -0.7791
vn 0.6316 -0.0160 -0.7751
vn 0.6337 -0.0167 -0.7734
vn -0.0000 -0.0246 0.9997
vn -0.0364 0.8451 0.5334
vn 0.0035 0.9176 0.3975
vn -0.7536 -0.0373 0.6563
vn -0.9972 -0.0741 -0.0000
vn -0.5749 -0.0382 -0.8173
vn 1.0000 -0.0045 -0.0000
vn 0.6316 -0.0142 0.7752
vn 0.6268 -0.0127 0.7791
vn 0.6337 -0.0149 0.7735
vn 0.6073 -0.1649 0.7772
vn 0.6077 -0.1670 0.7764
vn 0.6078 -0.1677 0.7762
vn 0.9883 -0.1526 -0.0001
vn -0.6118 -0.1225 -0.7815
vn -0.9872 -0.1556 -0.0360
vn -0.8031 -0.1797 0.5681
vn -0.0000 -0.1548 0.9879
vn -0.0000 -0.1548 0.9880
vn 0.6204 -0.1683 -0.7660
vn -0.0000 -0.0967 -0.9953
vn -0.0001 -0.0967 -0.9953
vn -0.0000 -0.1957 -0.9807
vn 0.6019 -0.2171 0.7685
vn -0.7740 -0.2991 0.5580
vn -0.6025 -0.2126 -0.7693
vn -0.9561 -0.2908 -0.0370
vn 0.6025 -0.2126 -0.7693
vn 0.6246 -0.0138 -0.7808
vn -0.7978 -0.0659 0.5993
vn -0.9973 -0.0663 -0.0325
vn -0.6236 -0.0583 -0.7796
vn 0.6246 -0.0120 0.7808
vn 0.6071 -0.1641 0.7775
vn -0.6205 -0.1682 -0.7660
vn -0.9791 -0.2030 -0.0113
vn -0.8027 -0.1514 0.5768
vn -0.0000 -0.1547 0.9880
vn 0.6116 -0.1226 -0.7816
vn -0.0000 -0.0966 -0.9953
vn 0.0009 -1.0000 -0.0007
vn 0.0030 -1.0000 -0.0003
vn -0.0001 -1.0000 -0.0013
vn 0.0015 1.0000 0.0071
vn -0.1227 0.9916 0.0413
vn -0.0029 -1.0000 -0.0048
vn 0.0001 -1.0000 -0.0029
vn 0.0001 -1.0000 -0.0008
vn 0.0012 -1.0000 -0.0000
vn -0.0002 -1.0000 0.0030
vn -0.3170 0.9484 -0.0000
vn -0.1697 0.9855 0.0049
vn -0.0000 1.0000 -0.0000
vt 0.312500 0.750000
vt 0.375000 0.750000
vt 0.375000 0.687500
vt 0.312500 0.687500
vt 0.375000 0.562500
vt 0.312500 0.500000
vt 0.312500 0.562500
vt 0.375000 0.500000
vt 0.375000 0.687527
vt 0.312500 0.688198
s 1
usemtl マテリアル
f 23/1/1 15/2/1 16/1/1
f 21/2/2 12/3/3 15/2/4
f 11/4/5 23/1/5 16/1/5
f 29/3/6 13/5/6 12/3/6
f 19/6/7 10/7/8 9/6/9
f 25/7/10 11/4/10 10/7/10
f 13/5/11 17/8/12 14/8/13
f 2/8/14 9/6/14 4/6/14
f 6/5/15 14/8/16 2/8/17
f 16/1/18 1/2/19 3/1/20
f 8/4/21 16/1/21 3/1/21
f 10/7/22 8/4/22 7/7/22
f 9/6/23 7/7/23 4/6/23
f 5/3/24 13/5/24 6/5/24
f 15/2/25 5/3/26 1/2/27
f 22/2/28 29/3/29 21/2/30
f 32/5/31 29/3/31 30/9/31
f 20/6/32 25/7/32 19/6/32
f 26/7/33 27/4/33 25/7/33
f 24/1/34 27/4/34 28/10/34
f 24/1/35 21/2/36 23/1/35
f 18/8/37 31/5/37 32/5/37
f 18/8/38 19/6/38 17/8/39
f 17/8/40 9/6/40 14/8/40
f 23/1/1 21/2/1 15/2/1
f 21/2/2 29/3/41 12/3/3
f 11/4/42 27/4/42 23/1/42
f 29/3/6 31/5/6 13/5/6
f 19/6/7 25/7/43 10/7/8
f 25/7/44 27/4/44 11/4/44
f 13/5/11 31/5/45 17/8/12
f 2/8/14 14/8/14 9/6/14
f 6/5/15 13/5/46 14/8/16
f 16/1/18 15/2/18 1/2/19
f 8/4/47 11/4/47 16/1/47
f 10/7/48 11/4/48 8/4/48
f 9/6/49 10/7/49 7/7/49
f 5/3/24 12/3/24 13/5/24
f 15/2/25 12/3/50 5/3/26
f 22/2/28 30/9/51 29/3/29
f 32/5/31 31/5/31 29/3/31
f 20/6/52 26/7/52 25/7/52
f 26/7/53 28/10/53 27/4/53
f 24/1/54 23/1/54 27/4/54
f 24/1/35 22/2/55 21/2/36
f 18/8/56 17/8/56 31/5/56
f 18/8/38 20/6/57 19/6/38
f 17/8/40 19/6/40 9/6/40
f 32/5/58 22/2/59 28/10/60
f 1/2/19 6/5/61 4/6/62
f 28/10/60 26/7/63 20/6/64
f 20/6/64 18/8/65 32/5/58
f 32/5/58 30/9/66 22/2/59
f 22/2/59 24/1/67 28/10/60
f 28/10/60 20/6/64 32/5/58
f 4/6/62 7/7/68 8/4/69
f 8/4/69 3/1/20 1/2/19
f 1/2/19 5/3/70 6/5/61
f 6/5/61 2/8/70 4/6/62
f 4/6/62 8/4/69 1/2/19
