# Blender 4.4.1
# www.blender.org
mtllib rightForeArm.mtl
o rightForeArm
v 0.079635 -1.590105 0.074213
v -0.065675 -1.590105 0.074213
v -0.065675 -1.590105 -0.169583
v 0.079635 -1.590105 -0.169583
v 0.034379 -1.931427 0.228986
v -0.020419 -1.931427 0.228986
v -0.020419 -2.049120 -0.331906
v 0.034379 -2.049120 -0.331906
v -0.127624 -1.590105 -0.163645
v -0.127624 -1.590105 -0.014277
v 0.141585 -1.590105 -0.014276
v 0.141585 -1.590105 -0.163644
v -0.020419 -2.140981 -0.229295
v -0.020419 -2.140981 0.023846
v 0.034379 -2.140981 0.023846
v 0.034379 -2.140981 -0.229295
v 0.115082 -0.398384 0.107879
v 0.207255 -0.398384 0.021182
v 0.207255 -0.398384 -0.201059
v -0.193295 -0.398384 -0.201060
v -0.193295 -0.398384 0.021181
v -0.101121 -0.398384 0.107879
v -0.101121 -0.398384 -0.230107
v 0.115082 -0.398384 -0.230106
v -0.090241 -0.051075 0.075464
v -0.089628 -0.003470 0.074581
v 0.104200 -0.051075 0.075465
v 0.103588 -0.003470 0.074582
v -0.090254 -0.051524 -0.224741
v -0.089643 -0.003315 -0.224870
v 0.104215 -0.051524 -0.224740
v 0.103601 -0.003315 -0.224869
v 0.187109 -0.051327 0.010864
v 0.185982 -0.003287 0.010323
v 0.187112 -0.051349 -0.189023
v 0.185984 -0.003271 -0.188313
v -0.173152 -0.051349 -0.189024
v -0.172023 -0.003271 -0.188314
v -0.173149 -0.051327 0.010863
v -0.172022 -0.003287 0.010322
v -0.055318 -1.444277 0.048937
v -0.054276 -1.332884 0.043371
v -0.053404 -1.388998 0.043380
v -0.054235 -1.333701 -0.152123
v -0.055343 -1.444625 -0.153535
v -0.053400 -1.389338 -0.150607
v 0.069303 -1.444625 -0.153535
v 0.068196 -1.333701 -0.152123
v 0.067359 -1.389338 -0.150607
v 0.068237 -1.332884 0.043372
v 0.069279 -1.444277 0.048937
v 0.067365 -1.388998 0.043381
v 0.122453 -1.444697 -0.020309
v 0.120459 -1.332971 -0.020096
v 0.118865 -1.389146 -0.021194
v 0.122450 -1.444679 -0.148445
v 0.120458 -1.332993 -0.146020
v 0.118864 -1.389146 -0.145350
v -0.108490 -1.444679 -0.148446
v -0.106496 -1.332993 -0.146021
v -0.104903 -1.389146 -0.145351
v -0.108492 -1.444697 -0.020311
v -0.106498 -1.332971 -0.020097
v -0.104904 -1.389146 -0.021195
vn -0.0000 0.4130 0.9107
vn -0.0000 -0.7451 -0.6670
vn -0.6827 -0.0843 0.7258
vn -0.0000 -0.0689 0.9976
vn 0.0948 0.1158 -0.9887
vn 0.2992 -0.0942 -0.9495
vn -0.8134 -0.1189 0.5694
vn -0.0000 0.3334 -0.9428
vn 0.0950 0.0996 -0.9905
vn 0.9816 -0.1910 -0.0000
vn 0.8134 -0.1189 0.5694
vn -0.9816 -0.1910 -0.0000
vn -0.0950 0.0996 -0.9905
vn 0.9957 -0.0925 -0.0000
vn 0.6827 -0.0843 0.7258
vn -0.9957 -0.0925 -0.0000
vn -0.0000 -0.0831 -0.9965
vn -0.0000 -1.0000 -0.0000
vn -0.0000 -0.6995 0.7146
vn -0.0000 0.0155 -0.9999
vn -0.9983 0.0579 -0.0000
vn 0.3950 0.0547 -0.9170
vn -0.6137 0.0590 0.7874
vn -0.0000 0.0929 0.9957
vn -0.0000 0.1097 -0.9940
vn 0.9915 0.1305 -0.0000
vn -0.9915 0.1304 -0.0000
vn -0.9915 0.1305 -0.0000
vn 0.7869 0.1286 0.6035
vn -0.2992 -0.0942 -0.9495
vn -0.0948 0.1158 -0.9887
vn -0.0000 0.1708 0.9853
vn 0.6137 0.0590 0.7874
vn -0.3950 0.0547 -0.9170
vn 0.9983 0.0579 -0.0000
vn -0.3957 0.0026 -0.9184
vn -0.9997 0.0234 -0.0000
vn -0.9997 0.0235 -0.0000
vn 0.6146 0.0226 0.7885
vn 0.6148 0.0232 0.7884
vn 0.6145 0.0225 0.7886
vn 0.9997 0.0235 -0.0000
vn 0.4055 0.0230 -0.9138
vn -0.0000 -0.0027 -1.0000
vn -0.6146 0.0226 0.7885
vn -0.6148 0.0232 0.7884
vn -0.6148 0.0233 0.7884
vn -0.0000 0.0185 0.9998
vn -0.1005 0.0621 -0.9930
vn -0.0982 0.0590 -0.9934
vn -0.0952 0.0560 -0.9939
vn -0.1016 -0.0286 -0.9944
vn -0.9979 0.0645 -0.0000
vn -0.9996 -0.0284 -0.0000
vn 0.7903 0.0883 0.6063
vn 0.7721 -0.0119 0.6353
vn 0.9979 0.0645 -0.0000
vn 0.9979 0.0644 -0.0000
vn 0.9996 -0.0284 -0.0000
vn 0.1005 0.0621 -0.9930
vn 0.0982 0.0590 -0.9934
vn 0.1011 0.0619 -0.9930
vn 0.1162 -0.0151 -0.9931
vn -0.0000 0.0529 -0.9986
vn -0.0000 -0.0272 -0.9996
vn -0.7805 0.0603 0.6223
vn -0.7813 -0.0344 0.6232
vn -0.0000 0.1000 0.9950
vn -0.0000 0.0002 1.0000
vn -0.7869 0.1286 0.6035
vn -0.7683 -0.0993 0.6323
vn 0.1166 -0.0692 -0.9908
vn -0.9917 -0.0899 0.0918
vn 0.9950 -0.0745 -0.0667
vn 0.9917 -0.0899 0.0918
vn -0.9950 -0.0745 -0.0667
vn 0.7683 -0.0993 0.6323
vn 0.3005 0.0242 -0.9535
vn -0.6824 0.0891 0.7255
vn 0.8092 0.1557 0.5665
vn -0.1166 -0.0692 -0.9908
vn 0.6824 0.0891 0.7255
vn -0.3005 0.0242 -0.9535
vn -0.4055 0.0230 -0.9138
vn 0.6148 0.0233 0.7884
vn 0.3957 0.0026 -0.9184
vn -0.6145 0.0225 0.7886
vn -0.1011 0.0619 -0.9930
vn -0.1162 -0.0151 -0.9931
vn 0.7805 0.0603 0.6223
vn 0.7813 -0.0344 0.6232
vn 0.0952 0.0560 -0.9939
vn 0.1016 -0.0286 -0.9944
vn -0.7903 0.0883 0.6063
vn -0.7721 -0.0119 0.6353
vn -0.8092 0.1557 0.5665
vn 0.0003 1.0000 0.0002
vn 0.0005 1.0000 0.0006
vn -0.0007 1.0000 0.0009
vn -0.0022 1.0000 0.0001
vn -0.0005 1.0000 0.0003
vn -0.0000 1.0000 -0.0012
vn 0.0006 1.0000 0.0001
vn -0.0000 1.0000 0.0028
vt 0.625000 0.000000
vt 0.562500 0.000000
vt 0.625000 0.187500
vt 0.562500 0.250000
vt 0.562500 0.187500
vt 0.625000 0.062500
vt 0.625000 0.250000
vt 0.562500 0.062500
vt 0.625000 0.187917
vt 0.562500 0.187917
vt 0.562500 0.062178
vt 0.625000 0.062178
vt 0.625000 0.061936
vt 0.562500 0.061936
s 1
usemtl マテリアル
f 6/1/1 1/2/1 2/1/1
f 13/3/2 8/4/2 16/5/2
f 21/6/3 42/1/3 22/1/3
f 22/1/4 50/2/4 17/2/4
f 12/5/5 47/4/5 56/5/5
f 19/5/6 48/4/6 24/4/6
f 14/6/7 2/1/7 10/6/7
f 4/4/8 7/7/8 3/7/8
f 16/5/9 4/4/9 12/5/9
f 15/8/10 12/5/10 11/8/10
f 1/2/11 15/8/11 11/8/11
f 9/3/12 14/6/12 10/6/12
f 3/7/13 13/3/13 9/3/13
f 18/8/14 57/5/14 19/5/14
f 50/2/15 18/8/15 17/2/15
f 60/3/16 21/6/16 20/3/16
f 48/4/17 23/7/17 24/4/17
f 14/6/18 16/5/18 15/8/18
f 6/1/19 15/8/19 5/2/19
f 31/4/20 23/7/20 29/7/20
f 37/3/21 21/6/21 39/6/21
f 19/5/22 31/4/22 35/5/22
f 21/6/23 25/1/23 39/6/23
f 22/1/24 27/2/24 25/1/24
f 4/4/25 45/7/25 47/4/25
f 11/8/26 56/5/26 53/8/26
f 59/3/27 10/6/27 62/6/28
f 51/2/29 11/8/29 53/8/29
f 44/7/30 20/3/30 23/7/30
f 45/7/31 9/3/31 59/3/31
f 2/1/32 51/2/32 41/1/32
f 27/2/33 18/8/33 33/8/33
f 29/7/34 20/3/34 37/3/34
f 18/8/35 35/5/35 33/8/35
f 37/3/36 30/7/36 29/7/36
f 39/6/37 38/9/38 37/3/38
f 33/8/39 28/2/40 27/2/41
f 33/8/42 36/10/42 34/11/42
f 35/5/43 32/4/43 36/10/43
f 29/7/44 32/4/44 31/4/44
f 39/6/45 26/1/46 40/12/47
f 25/1/48 28/2/48 26/1/48
f 59/3/49 46/7/50 45/7/51
f 61/3/52 44/7/52 46/7/52
f 62/6/53 61/3/53 59/3/53
f 64/13/54 60/3/54 61/3/54
f 53/8/55 52/2/55 51/2/55
f 52/2/56 54/8/56 50/2/56
f 53/8/57 58/5/58 55/14/57
f 55/14/59 57/5/59 54/8/59
f 56/5/60 49/4/61 58/5/62
f 58/5/63 48/4/63 57/5/63
f 45/7/64 49/4/64 47/4/64
f 46/7/65 48/4/65 49/4/65
f 62/6/66 43/1/66 64/13/66
f 43/1/67 63/6/67 64/13/67
f 41/1/68 52/2/68 43/1/68
f 52/2/69 42/1/69 43/1/69
f 10/6/70 41/1/70 62/6/70
f 6/1/1 5/2/1 1/2/1
f 13/3/2 7/7/2 8/4/2
f 21/6/71 63/6/71 42/1/71
f 22/1/4 42/1/4 50/2/4
f 12/5/5 4/4/5 47/4/5
f 19/5/72 57/5/72 48/4/72
f 14/6/73 6/1/73 2/1/73
f 4/4/8 8/4/8 7/7/8
f 16/5/74 8/4/74 4/4/74
f 15/8/10 16/5/10 12/5/10
f 1/2/75 5/2/75 15/8/75
f 9/3/12 13/3/12 14/6/12
f 3/7/76 7/7/76 13/3/76
f 18/8/14 54/8/14 57/5/14
f 50/2/77 54/8/77 18/8/77
f 60/3/16 63/6/16 21/6/16
f 48/4/17 44/7/17 23/7/17
f 14/6/18 13/3/18 16/5/18
f 6/1/19 14/6/19 15/8/19
f 31/4/20 24/4/20 23/7/20
f 37/3/21 20/3/21 21/6/21
f 19/5/78 24/4/78 31/4/78
f 21/6/79 22/1/79 25/1/79
f 22/1/24 17/2/24 27/2/24
f 4/4/25 3/7/25 45/7/25
f 11/8/26 12/5/26 56/5/26
f 59/3/27 9/3/27 10/6/27
f 51/2/80 1/2/80 11/8/80
f 44/7/81 60/3/81 20/3/81
f 45/7/31 3/7/31 9/3/31
f 2/1/32 1/2/32 51/2/32
f 27/2/82 17/2/82 18/8/82
f 29/7/83 23/7/83 20/3/83
f 18/8/35 19/5/35 35/5/35
f 37/3/84 38/9/84 30/7/84
f 39/6/37 40/12/37 38/9/38
f 33/8/39 34/11/85 28/2/40
f 33/8/42 35/5/42 36/10/42
f 35/5/86 31/4/86 32/4/86
f 29/7/44 30/7/44 32/4/44
f 39/6/45 25/1/87 26/1/46
f 25/1/48 27/2/48 28/2/48
f 59/3/49 61/3/88 46/7/50
f 61/3/89 60/3/89 44/7/89
f 62/6/53 64/13/53 61/3/53
f 64/13/54 63/6/54 60/3/54
f 53/8/90 55/14/90 52/2/90
f 52/2/91 55/14/91 54/8/91
f 53/8/57 56/5/58 58/5/58
f 55/14/59 58/5/59 57/5/59
f 56/5/60 47/4/92 49/4/61
f 58/5/93 49/4/93 48/4/93
f 45/7/64 46/7/64 49/4/64
f 46/7/65 44/7/65 48/4/65
f 62/6/94 41/1/94 43/1/94
f 43/1/95 42/1/95 63/6/95
f 41/1/68 51/2/68 52/2/68
f 52/2/69 50/2/69 42/1/69
f 10/6/96 2/1/96 41/1/96
f 30/7/97 40/12/98 28/2/99
f 28/2/99 34/11/100 36/10/101
f 36/10/101 32/4/102 30/7/97
f 30/7/97 38/9/103 40/12/98
f 40/12/98 26/1/104 28/2/99
f 28/2/99 36/10/101 30/7/97
